<svg width="682" height="433" viewBox="0 0 682 433" version="1.1" xmlns="http://www.w3.org/2000/svg" xmlns:xlink="http://www.w3.org/1999/xlink">
<title>s1m1_Sampling_v2</title>
<desc>Created using Figma</desc>
<g id="Canvas" transform="translate(2059 47)">
<rect x="-2059" y="-47" width="682" height="433" fill="#FFFFFF"/>
<g id="Component">
<g id="Rectangle">
<use xlink:href="#path0_fill" transform="translate(-2012 -21)" fill="#BDBDBD"/>
</g>
<g id="Rectangle">
<use xlink:href="#path0_fill" transform="translate(-1910 -21)" fill="#BDBDBD"/>
</g>
<g id="Rectangle">
<use xlink:href="#path0_fill" transform="translate(-1961 -21)" fill="#BDBDBD"/>
</g>
<g id="Ellipse 2">
<use xlink:href="#path1_fill" transform="translate(-1958 -47)" fill="#BDBDBD"/>
</g>
<g id="Ellipse 2.1">
<use xlink:href="#path1_fill" transform="translate(-2009 -47)" fill="#BDBDBD"/>
</g>
<g id="Ellipse 2.2">
<use xlink:href="#path1_fill" transform="translate(-1907 -47)" fill="#BDBDBD"/>
</g>
<g id="Rectangle">
<use xlink:href="#path0_fill" transform="translate(-1859 -21)" fill="#2F80ED"/>
</g>
<g id="Ellipse 2.3">
<use xlink:href="#path1_fill" transform="translate(-1856 -47)" fill="#BDBDBD"/>
</g>
</g>
<g id="Component">
<g id="Rectangle">
<use xlink:href="#path0_fill" transform="translate(-2012 59)" fill="#BDBDBD"/>
</g>
<g id="Rectangle">
<use xlink:href="#path0_fill" transform="translate(-1910 59)" fill="#2F80ED"/>
</g>
<g id="Rectangle">
<use xlink:href="#path0_fill" transform="translate(-1961 59)" fill="#2F80ED"/>
</g>
<g id="Ellipse 2">
<use xlink:href="#path1_fill" transform="translate(-1958 33)" fill="#BDBDBD"/>
</g>
<g id="Ellipse 2.1">
<use xlink:href="#path1_fill" transform="translate(-2009 33)" fill="#BDBDBD"/>
</g>
<g id="Ellipse 2.2">
<use xlink:href="#path1_fill" transform="translate(-1907 33)" fill="#BDBDBD"/>
</g>
<g id="Rectangle">
<use xlink:href="#path0_fill" transform="translate(-1859 59)" fill="#BDBDBD"/>
</g>
<g id="Ellipse 2.3">
<use xlink:href="#path1_fill" transform="translate(-1856 33)" fill="#BDBDBD"/>
</g>
</g>
<g id="Component">
<g id="Rectangle">
<use xlink:href="#path0_fill" transform="translate(-2012 219)" fill="#BDBDBD"/>
</g>
<g id="Rectangle">
<use xlink:href="#path0_fill" transform="translate(-1910 219)" fill="#BDBDBD"/>
</g>
<g id="Rectangle">
<use xlink:href="#path0_fill" transform="translate(-1961 219)" fill="#2F80ED"/>
</g>
<g id="Ellipse 2">
<use xlink:href="#path1_fill" transform="translate(-1958 193)" fill="#BDBDBD"/>
</g>
<g id="Ellipse 2.1">
<use xlink:href="#path1_fill" transform="translate(-2009 193)" fill="#BDBDBD"/>
</g>
<g id="Ellipse 2.2">
<use xlink:href="#path1_fill" transform="translate(-1907 193)" fill="#BDBDBD"/>
</g>
<g id="Rectangle">
<use xlink:href="#path0_fill" transform="translate(-1859 219)" fill="#2F80ED"/>
</g>
<g id="Ellipse 2.3">
<use xlink:href="#path1_fill" transform="translate(-1856 193)" fill="#BDBDBD"/>
</g>
</g>
<g id="Component">
<g id="Rectangle">
<use xlink:href="#path0_fill" transform="translate(-2012 299)" fill="#2F80ED"/>
</g>
<g id="Rectangle">
<use xlink:href="#path0_fill" transform="translate(-1910 299)" fill="#BDBDBD"/>
</g>
<g id="Rectangle">
<use xlink:href="#path0_fill" transform="translate(-1961 299)" fill="#BDBDBD"/>
</g>
<g id="Ellipse 2">
<use xlink:href="#path1_fill" transform="translate(-1958 273)" fill="#BDBDBD"/>
</g>
<g id="Ellipse 2.1">
<use xlink:href="#path1_fill" transform="translate(-2009 273)" fill="#BDBDBD"/>
</g>
<g id="Ellipse 2.2">
<use xlink:href="#path1_fill" transform="translate(-1907 273)" fill="#BDBDBD"/>
</g>
<g id="Rectangle">
<use xlink:href="#path0_fill" transform="translate(-1859 299)" fill="#BDBDBD"/>
</g>
<g id="Ellipse 2.3">
<use xlink:href="#path1_fill" transform="translate(-1856 273)" fill="#BDBDBD"/>
</g>
</g>
<g id="Component 2">
<g id="Ellipse">
<use xlink:href="#path1_fill" transform="translate(-1549 33)" fill="#C4C4C4"/>
</g>
<g id="Rectangle">
<use xlink:href="#path0_fill" transform="translate(-1552 59)" fill="#2F80ED"/>
</g>
<g id="Ellipse">
<use xlink:href="#path1_fill" transform="translate(-1495 33)" fill="#C4C4C4"/>
</g>
<g id="Rectangle">
<use xlink:href="#path0_fill" transform="translate(-1498 59)" fill="#2F80ED"/>
</g>
<g id="Ellipse">
<use xlink:href="#path2_fill" transform="translate(-1441.09 33)" fill="#C4C4C4"/>
</g>
<g id="Rectangle">
<use xlink:href="#path3_fill" transform="translate(-1444 59)" fill="#2F80ED"/>
</g>
</g>
<g id="Component 2">
<g id="Ellipse">
<use xlink:href="#path1_fill" transform="translate(-1549 193)" fill="#C4C4C4"/>
</g>
<g id="Rectangle">
<use xlink:href="#path0_fill" transform="translate(-1552 219)" fill="#2F80ED"/>
</g>
<g id="Ellipse">
<use xlink:href="#path1_fill" transform="translate(-1495 193)" fill="#C4C4C4"/>
</g>
<g id="Rectangle">
<use xlink:href="#path0_fill" transform="translate(-1498 219)" fill="#2F80ED"/>
</g>
<g id="Ellipse">
<use xlink:href="#path2_fill" transform="translate(-1441.09 193)" fill="#C4C4C4"/>
</g>
<g id="Rectangle">
<use xlink:href="#path3_fill" transform="translate(-1444 219)" fill="#2F80ED"/>
</g>
</g>
<g id="Population (&#62;50000 )">
<use xlink:href="#path4_fill" transform="translate(-2061 353)"/>
</g>
<g id="Sampling">
<use xlink:href="#path5_fill" transform="translate(-1751 109)"/>
</g>
<g id="Sample (~100 )">
<use xlink:href="#path6_fill" transform="translate(-1590 274)"/>
</g>
<g id="......">
<use xlink:href="#path7_fill" transform="translate(-1534 88)"/>
</g>
<g id="......">
<use xlink:href="#path8_fill" transform="translate(-1971 88)"/>
</g>
<g id="Ellipse">
<use xlink:href="#path9_fill" transform="translate(-1405.69 274)" fill="#C4C4C4"/>
</g>
<g id="Rectangle">
<use xlink:href="#path10_fill" transform="translate(-1407 284.09)" fill="#BDBDBD"/>
</g>
<g id="Ellipse">
<use xlink:href="#path9_fill" transform="translate(-1809.69 353)" fill="#C4C4C4"/>
</g>
<g id="Rectangle">
<use xlink:href="#path10_fill" transform="translate(-1811 363.09)" fill="#BDBDBD"/>
</g>
<g id="Arrow">
<use xlink:href="#path11_stroke" transform="translate(-1803 147)"/>
</g>
</g>
<defs>
<path id="path0_fill" d="M 0 0L 32 0L 32 41L 0 41L 0 0Z"/>
<path id="path1_fill" d="M 27 13C 27 20.1797 20.9558 26 13.5 26C 6.04416 26 0 20.1797 0 13C 0 5.8203 6.04416 0 13.5 0C 20.9558 0 27 5.8203 27 13Z"/>
<path id="path2_fill" d="M 26.1562 13C 26.1562 20.1797 20.301 26 13.0781 26C 5.85528 26 0 20.1797 0 13C 0 5.8203 5.85528 0 13.0781 0C 20.301 0 26.1562 5.8203 26.1562 13Z"/>
<path id="path3_fill" d="M 0 0L 31 0L 31 41L 0 41L 0 0Z"/>
<path id="path4_fill" d="M 4.93555 18.207L 4.93555 26L 2.31055 26L 2.31055 6.09375L 9.65234 6.09375C 11.8307 6.09375 13.5352 6.64974 14.7656 7.76172C 16.0052 8.8737 16.625 10.3457 16.625 12.1777C 16.625 14.11 16.0189 15.6003 14.8066 16.6484C 13.6035 17.6875 11.8763 18.207 9.625 18.207L 4.93555 18.207ZM 4.93555 16.0605L 9.65234 16.0605C 11.056 16.0605 12.1315 15.7324 12.8789 15.0762C 13.6263 14.4108 14 13.4538 14 12.2051C 14 11.0202 13.6263 10.0723 12.8789 9.36133C 12.1315 8.65039 11.1061 8.28125 9.80273 8.25391L 4.93555 8.25391L 4.93555 16.0605ZM 18.7168 18.4668C 18.7168 17.0176 18.9993 15.7142 19.5645 14.5566C 20.1387 13.3991 20.9316 12.5059 21.9434 11.877C 22.9642 11.248 24.1263 10.9336 25.4297 10.9336C 27.444 10.9336 29.071 11.6309 30.3105 13.0254C 31.5592 14.4199 32.1836 16.2747 32.1836 18.5898L 32.1836 18.7676C 32.1836 20.2077 31.9056 21.502 31.3496 22.6504C 30.8027 23.7897 30.0143 24.6784 28.9844 25.3164C 27.9635 25.9544 26.7878 26.2734 25.457 26.2734C 23.4518 26.2734 21.8249 25.5762 20.5762 24.1816C 19.3366 22.7871 18.7168 20.9414 18.7168 18.6445L 18.7168 18.4668ZM 21.2598 18.7676C 21.2598 20.4082 21.638 21.7253 22.3945 22.7188C 23.1602 23.7122 24.181 24.209 25.457 24.209C 26.7422 24.209 27.763 23.7077 28.5195 22.7051C 29.276 21.6934 29.6543 20.2806 29.6543 18.4668C 29.6543 16.8444 29.2669 15.5319 28.4922 14.5293C 27.7266 13.5176 26.7057 13.0117 25.4297 13.0117C 24.181 13.0117 23.1738 13.5085 22.4082 14.502C 21.6426 15.4954 21.2598 16.9173 21.2598 18.7676ZM 47.8516 18.7676C 47.8516 21.0189 47.3366 22.8327 46.3066 24.209C 45.2767 25.5853 43.8822 26.2734 42.123 26.2734C 40.3275 26.2734 38.9147 25.7038 37.8848 24.5645L 37.8848 31.6875L 35.3555 31.6875L 35.3555 11.207L 37.666 11.207L 37.7891 12.8477C 38.819 11.5716 40.25 10.9336 42.082 10.9336C 43.8594 10.9336 45.263 11.6035 46.293 12.9434C 47.332 14.2832 47.8516 16.1471 47.8516 18.5352L 47.8516 18.7676ZM 45.3223 18.4805C 45.3223 16.8125 44.9668 15.4954 44.2559 14.5293C 43.5449 13.5632 42.5697 13.0801 41.3301 13.0801C 39.7988 13.0801 38.6504 13.7591 37.8848 15.1172L 37.8848 22.1855C 38.6413 23.5345 39.7988 24.209 41.3574 24.209C 42.5697 24.209 43.5312 23.7305 44.2422 22.7734C 44.9622 21.8073 45.3223 20.3763 45.3223 18.4805ZM 60.2109 24.5371C 59.2266 25.6947 57.7819 26.2734 55.877 26.2734C 54.3001 26.2734 53.097 25.8177 52.2676 24.9062C 51.4473 23.9857 51.0326 22.6276 51.0234 20.832L 51.0234 11.207L 53.5527 11.207L 53.5527 20.7637C 53.5527 23.0059 54.4642 24.127 56.2871 24.127C 58.2194 24.127 59.5046 23.4069 60.1426 21.9668L 60.1426 11.207L 62.6719 11.207L 62.6719 26L 60.2656 26L 60.2109 24.5371ZM 69.2754 26L 66.7461 26L 66.7461 5L 69.2754 5L 69.2754 26ZM 82.4688 26C 82.3229 25.7083 82.2044 25.1888 82.1133 24.4414C 80.9375 25.6628 79.5339 26.2734 77.9023 26.2734C 76.444 26.2734 75.2454 25.8633 74.3066 25.043C 73.377 24.2135 72.9121 23.1654 72.9121 21.8984C 72.9121 20.3581 73.4954 19.1641 74.6621 18.3164C 75.8379 17.4596 77.4876 17.0312 79.6113 17.0312L 82.0723 17.0312L 82.0723 15.8691C 82.0723 14.985 81.8079 14.2832 81.2793 13.7637C 80.7507 13.235 79.9714 12.9707 78.9414 12.9707C 78.0391 12.9707 77.2826 13.1986 76.6719 13.6543C 76.0612 14.11 75.7559 14.6615 75.7559 15.3086L 73.2129 15.3086C 73.2129 14.5703 73.4727 13.8594 73.9922 13.1758C 74.5208 12.4831 75.2318 11.9362 76.125 11.5352C 77.0273 11.1341 78.0163 10.9336 79.0918 10.9336C 80.7962 10.9336 82.1315 11.362 83.0977 12.2188C 84.0638 13.0664 84.5651 14.2376 84.6016 15.7324L 84.6016 22.541C 84.6016 23.8991 84.7747 24.9792 85.1211 25.7812L 85.1211 26L 82.4688 26ZM 78.2715 24.0723C 79.0645 24.0723 79.8164 23.8672 80.5273 23.457C 81.2383 23.0469 81.7533 22.5137 82.0723 21.8574L 82.0723 18.8223L 80.0898 18.8223C 76.9909 18.8223 75.4414 19.7292 75.4414 21.543C 75.4414 22.3359 75.7057 22.9557 76.2344 23.4023C 76.763 23.849 77.4421 24.0723 78.2715 24.0723ZM 91.998 7.625L 91.998 11.207L 94.7598 11.207L 94.7598 13.1621L 91.998 13.1621L 91.998 22.3359C 91.998 22.9284 92.1211 23.375 92.3672 23.6758C 92.6133 23.9674 93.0326 24.1133 93.625 24.1133C 93.9167 24.1133 94.3177 24.0586 94.8281 23.9492L 94.8281 26C 94.1628 26.1823 93.5156 26.2734 92.8867 26.2734C 91.7565 26.2734 90.9043 25.9316 90.3301 25.248C 89.7559 24.5645 89.4688 23.5938 89.4688 22.3359L 89.4688 13.1621L 86.7754 13.1621L 86.7754 11.207L 89.4688 11.207L 89.4688 7.625L 91.998 7.625ZM 100.475 26L 97.9453 26L 97.9453 11.207L 100.475 11.207L 100.475 26ZM 97.7402 7.2832C 97.7402 6.87305 97.8633 6.52669 98.1094 6.24414C 98.3646 5.96159 98.7383 5.82031 99.2305 5.82031C 99.7227 5.82031 100.096 5.96159 100.352 6.24414C 100.607 6.52669 100.734 6.87305 100.734 7.2832C 100.734 7.69336 100.607 8.03516 100.352 8.30859C 100.096 8.58203 99.7227 8.71875 99.2305 8.71875C 98.7383 8.71875 98.3646 8.58203 98.1094 8.30859C 97.8633 8.03516 97.7402 7.69336 97.7402 7.2832ZM 103.865 18.4668C 103.865 17.0176 104.148 15.7142 104.713 14.5566C 105.287 13.3991 106.08 12.5059 107.092 11.877C 108.113 11.248 109.275 10.9336 110.578 10.9336C 112.592 10.9336 114.219 11.6309 115.459 13.0254C 116.708 14.4199 117.332 16.2747 117.332 18.5898L 117.332 18.7676C 117.332 20.2077 117.054 21.502 116.498 22.6504C 115.951 23.7897 115.163 24.6784 114.133 25.3164C 113.112 25.9544 111.936 26.2734 110.605 26.2734C 108.6 26.2734 106.973 25.5762 105.725 24.1816C 104.485 22.7871 103.865 20.9414 103.865 18.6445L 103.865 18.4668ZM 106.408 18.7676C 106.408 20.4082 106.786 21.7253 107.543 22.7188C 108.309 23.7122 109.329 24.209 110.605 24.209C 111.891 24.209 112.911 23.7077 113.668 22.7051C 114.424 21.6934 114.803 20.2806 114.803 18.4668C 114.803 16.8444 114.415 15.5319 113.641 14.5293C 112.875 13.5176 111.854 13.0117 110.578 13.0117C 109.329 13.0117 108.322 13.5085 107.557 14.502C 106.791 15.4954 106.408 16.9173 106.408 18.7676ZM 122.896 11.207L 122.979 13.0664C 124.109 11.6445 125.585 10.9336 127.408 10.9336C 130.535 10.9336 132.111 12.6973 132.139 16.2246L 132.139 26L 129.609 26L 129.609 16.2109C 129.6 15.1445 129.354 14.3561 128.871 13.8457C 128.397 13.3353 127.654 13.0801 126.643 13.0801C 125.822 13.0801 125.102 13.2988 124.482 13.7363C 123.863 14.1738 123.38 14.748 123.033 15.459L 123.033 26L 120.504 26L 120.504 11.207L 122.896 11.207ZM 142.803 17.9199C 142.803 15.86 143.076 13.8822 143.623 11.9863C 144.179 10.0905 145.004 8.36784 146.098 6.81836C 147.191 5.26888 148.326 4.17513 149.502 3.53711L 150.021 5.20508C 148.691 6.22591 147.597 7.78451 146.74 9.88086C 145.893 11.9772 145.428 14.3242 145.346 16.9219L 145.332 18.084C 145.332 21.6022 145.975 24.6556 147.26 27.2441C 148.035 28.7936 148.955 30.0059 150.021 30.8809L 149.502 32.4258C 148.29 31.7513 147.132 30.6211 146.029 29.0352C 143.878 25.9362 142.803 22.2311 142.803 17.9199ZM 161.424 17.1133L 152.387 13.5723L 152.387 10.9746L 164.062 16.1426L 164.062 18.1387L 152.387 23.3203L 152.387 20.6953L 161.424 17.1133ZM 168 16.0195L 169.012 6.09375L 179.211 6.09375L 179.211 8.43164L 171.158 8.43164L 170.557 13.8594C 171.532 13.2852 172.639 12.998 173.879 12.998C 175.693 12.998 177.133 13.5996 178.199 14.8027C 179.266 15.9967 179.799 17.6146 179.799 19.6562C 179.799 21.707 179.243 23.3249 178.131 24.5098C 177.028 25.6855 175.483 26.2734 173.496 26.2734C 171.737 26.2734 170.301 25.7858 169.189 24.8105C 168.077 23.8353 167.444 22.4863 167.289 20.7637L 169.682 20.7637C 169.837 21.903 170.242 22.7643 170.898 23.3477C 171.555 23.9219 172.421 24.209 173.496 24.209C 174.672 24.209 175.592 23.8079 176.258 23.0059C 176.932 22.2038 177.27 21.0964 177.27 19.6836C 177.27 18.3529 176.905 17.2865 176.176 16.4844C 175.456 15.6732 174.494 15.2676 173.291 15.2676C 172.188 15.2676 171.322 15.5091 170.693 15.9922L 170.023 16.5391L 168 16.0195ZM 195.043 17.5098C 195.043 20.472 194.537 22.6732 193.525 24.1133C 192.514 25.5534 190.932 26.2734 188.781 26.2734C 186.658 26.2734 185.085 25.5716 184.064 24.168C 183.044 22.7552 182.515 20.6497 182.479 17.8516L 182.479 14.4746C 182.479 11.5488 182.984 9.375 183.996 7.95312C 185.008 6.53125 186.594 5.82031 188.754 5.82031C 190.896 5.82031 192.473 6.50846 193.484 7.88477C 194.496 9.25195 195.016 11.3665 195.043 14.2285L 195.043 17.5098ZM 192.514 14.0508C 192.514 11.9089 192.213 10.3503 191.611 9.375C 191.01 8.39062 190.057 7.89844 188.754 7.89844C 187.46 7.89844 186.516 8.38607 185.924 9.36133C 185.331 10.3366 185.026 11.8359 185.008 13.8594L 185.008 17.9062C 185.008 20.0573 185.318 21.6478 185.938 22.6777C 186.566 23.6986 187.514 24.209 188.781 24.209C 190.03 24.209 190.955 23.7259 191.557 22.7598C 192.167 21.7936 192.486 20.2715 192.514 18.1934L 192.514 14.0508ZM 210.766 17.5098C 210.766 20.472 210.26 22.6732 209.248 24.1133C 208.236 25.5534 206.655 26.2734 204.504 26.2734C 202.38 26.2734 200.808 25.5716 199.787 24.168C 198.766 22.7552 198.238 20.6497 198.201 17.8516L 198.201 14.4746C 198.201 11.5488 198.707 9.375 199.719 7.95312C 200.73 6.53125 202.316 5.82031 204.477 5.82031C 206.618 5.82031 208.195 6.50846 209.207 7.88477C 210.219 9.25195 210.738 11.3665 210.766 14.2285L 210.766 17.5098ZM 208.236 14.0508C 208.236 11.9089 207.936 10.3503 207.334 9.375C 206.732 8.39062 205.78 7.89844 204.477 7.89844C 203.182 7.89844 202.239 8.38607 201.646 9.36133C 201.054 10.3366 200.749 11.8359 200.73 13.8594L 200.73 17.9062C 200.73 20.0573 201.04 21.6478 201.66 22.6777C 202.289 23.6986 203.237 24.209 204.504 24.209C 205.753 24.209 206.678 23.7259 207.279 22.7598C 207.89 21.7936 208.209 20.2715 208.236 18.1934L 208.236 14.0508ZM 226.488 17.5098C 226.488 20.472 225.982 22.6732 224.971 24.1133C 223.959 25.5534 222.378 26.2734 220.227 26.2734C 218.103 26.2734 216.531 25.5716 215.51 24.168C 214.489 22.7552 213.96 20.6497 213.924 17.8516L 213.924 14.4746C 213.924 11.5488 214.43 9.375 215.441 7.95312C 216.453 6.53125 218.039 5.82031 220.199 5.82031C 222.341 5.82031 223.918 6.50846 224.93 7.88477C 225.941 9.25195 226.461 11.3665 226.488 14.2285L 226.488 17.5098ZM 223.959 14.0508C 223.959 11.9089 223.658 10.3503 223.057 9.375C 222.455 8.39062 221.503 7.89844 220.199 7.89844C 218.905 7.89844 217.962 8.38607 217.369 9.36133C 216.777 10.3366 216.471 11.8359 216.453 13.8594L 216.453 17.9062C 216.453 20.0573 216.763 21.6478 217.383 22.6777C 218.012 23.6986 218.96 24.209 220.227 24.209C 221.475 24.209 222.4 23.7259 223.002 22.7598C 223.613 21.7936 223.932 20.2715 223.959 18.1934L 223.959 14.0508ZM 242.211 17.5098C 242.211 20.472 241.705 22.6732 240.693 24.1133C 239.682 25.5534 238.1 26.2734 235.949 26.2734C 233.826 26.2734 232.253 25.5716 231.232 24.168C 230.212 22.7552 229.683 20.6497 229.646 17.8516L 229.646 14.4746C 229.646 11.5488 230.152 9.375 231.164 7.95312C 232.176 6.53125 233.762 5.82031 235.922 5.82031C 238.064 5.82031 239.641 6.50846 240.652 7.88477C 241.664 9.25195 242.184 11.3665 242.211 14.2285L 242.211 17.5098ZM 239.682 14.0508C 239.682 11.9089 239.381 10.3503 238.779 9.375C 238.178 8.39062 237.225 7.89844 235.922 7.89844C 234.628 7.89844 233.684 8.38607 233.092 9.36133C 232.499 10.3366 232.194 11.8359 232.176 13.8594L 232.176 17.9062C 232.176 20.0573 232.486 21.6478 233.105 22.6777C 233.734 23.6986 234.682 24.209 235.949 24.209C 237.198 24.209 238.123 23.7259 238.725 22.7598C 239.335 21.7936 239.654 20.2715 239.682 18.1934L 239.682 14.0508ZM 279.33 18.0566C 279.33 20.0892 279.061 22.0397 278.523 23.9082C 277.995 25.7676 277.179 27.4857 276.076 29.0625C 274.982 30.6393 273.834 31.7604 272.631 32.4258L 272.098 30.8809C 273.501 29.8053 274.627 28.1374 275.475 25.877C 276.331 23.6074 276.769 21.0918 276.787 18.3301L 276.787 17.8926C 276.787 15.9785 276.587 14.2012 276.186 12.5605C 275.785 10.9108 275.224 9.43424 274.504 8.13086C 273.793 6.82747 272.991 5.8112 272.098 5.08203L 272.631 3.53711C 273.834 4.20247 274.978 5.31445 276.062 6.87305C 277.156 8.43164 277.972 10.1497 278.51 12.0273C 279.057 13.9049 279.33 15.9147 279.33 18.0566Z"/>
<path id="path5_fill" d="M 8.17578 17.127C 5.92448 16.4798 4.28385 15.6868 3.25391 14.748C 2.23307 13.8001 1.72266 12.6335 1.72266 11.248C 1.72266 9.68034 2.34701 8.38607 3.5957 7.36523C 4.85352 6.33529 6.48503 5.82031 8.49023 5.82031C 9.85742 5.82031 11.0742 6.08464 12.1406 6.61328C 13.2161 7.14193 14.0456 7.87109 14.6289 8.80078C 15.2214 9.73047 15.5176 10.7467 15.5176 11.8496L 12.8789 11.8496C 12.8789 10.6465 12.4961 9.70312 11.7305 9.01953C 10.9648 8.32682 9.88477 7.98047 8.49023 7.98047C 7.19596 7.98047 6.18424 8.26758 5.45508 8.8418C 4.73503 9.4069 4.375 10.1953 4.375 11.207C 4.375 12.0182 4.7168 12.7064 5.40039 13.2715C 6.0931 13.8275 7.26432 14.3379 8.91406 14.8027C 10.5729 15.2676 11.8672 15.7826 12.7969 16.3477C 13.7357 16.9036 14.4284 17.5553 14.875 18.3027C 15.3307 19.0501 15.5586 19.9297 15.5586 20.9414C 15.5586 22.5547 14.9297 23.849 13.6719 24.8242C 12.4141 25.7904 10.7324 26.2734 8.62695 26.2734C 7.25977 26.2734 5.98372 26.0137 4.79883 25.4941C 3.61393 24.9655 2.69792 24.2454 2.05078 23.334C 1.41276 22.4225 1.09375 21.388 1.09375 20.2305L 3.73242 20.2305C 3.73242 21.4336 4.17448 22.3861 5.05859 23.0879C 5.95182 23.7806 7.14128 24.127 8.62695 24.127C 10.0124 24.127 11.0742 23.8444 11.8125 23.2793C 12.5508 22.7142 12.9199 21.944 12.9199 20.9688C 12.9199 19.9935 12.5781 19.2415 11.8945 18.7129C 11.2109 18.1751 9.97135 17.6465 8.17578 17.127ZM 27.6719 26C 27.526 25.7083 27.4076 25.1888 27.3164 24.4414C 26.1406 25.6628 24.737 26.2734 23.1055 26.2734C 21.6471 26.2734 20.4486 25.8633 19.5098 25.043C 18.5801 24.2135 18.1152 23.1654 18.1152 21.8984C 18.1152 20.3581 18.6986 19.1641 19.8652 18.3164C 21.041 17.4596 22.6908 17.0312 24.8145 17.0312L 27.2754 17.0312L 27.2754 15.8691C 27.2754 14.985 27.0111 14.2832 26.4824 13.7637C 25.9538 13.235 25.1745 12.9707 24.1445 12.9707C 23.2422 12.9707 22.4857 13.1986 21.875 13.6543C 21.2643 14.11 20.959 14.6615 20.959 15.3086L 18.416 15.3086C 18.416 14.5703 18.6758 13.8594 19.1953 13.1758C 19.724 12.4831 20.4349 11.9362 21.3281 11.5352C 22.2305 11.1341 23.2194 10.9336 24.2949 10.9336C 25.9993 10.9336 27.3346 11.362 28.3008 12.2188C 29.2669 13.0664 29.7682 14.2376 29.8047 15.7324L 29.8047 22.541C 29.8047 23.8991 29.9779 24.9792 30.3242 25.7812L 30.3242 26L 27.6719 26ZM 23.4746 24.0723C 24.2676 24.0723 25.0195 23.8672 25.7305 23.457C 26.4414 23.0469 26.9564 22.5137 27.2754 21.8574L 27.2754 18.8223L 25.293 18.8223C 22.194 18.8223 20.6445 19.7292 20.6445 21.543C 20.6445 22.3359 20.9089 22.9557 21.4375 23.4023C 21.9661 23.849 22.6452 24.0723 23.4746 24.0723ZM 36.1484 11.207L 36.2168 12.8477C 37.3014 11.5716 38.7643 10.9336 40.6055 10.9336C 42.6745 10.9336 44.0827 11.7266 44.8301 13.3125C 45.3223 12.6016 45.9603 12.0273 46.7441 11.5898C 47.5371 11.1523 48.4714 10.9336 49.5469 10.9336C 52.7917 10.9336 54.4414 12.6517 54.4961 16.0879L 54.4961 26L 51.9668 26L 51.9668 16.2383C 51.9668 15.181 51.7253 14.3926 51.2422 13.873C 50.7591 13.3444 49.9479 13.0801 48.8086 13.0801C 47.8698 13.0801 47.0905 13.3626 46.4707 13.9277C 45.8509 14.4837 45.4909 15.2357 45.3906 16.1836L 45.3906 26L 42.8477 26L 42.8477 16.3066C 42.8477 14.1556 41.7949 13.0801 39.6895 13.0801C 38.0306 13.0801 36.8958 13.7865 36.2852 15.1992L 36.2852 26L 33.7559 26L 33.7559 11.207L 36.1484 11.207ZM 70.8203 18.7676C 70.8203 21.0189 70.3053 22.8327 69.2754 24.209C 68.2454 25.5853 66.8509 26.2734 65.0918 26.2734C 63.2962 26.2734 61.8835 25.7038 60.8535 24.5645L 60.8535 31.6875L 58.3242 31.6875L 58.3242 11.207L 60.6348 11.207L 60.7578 12.8477C 61.7878 11.5716 63.2188 10.9336 65.0508 10.9336C 66.8281 10.9336 68.2318 11.6035 69.2617 12.9434C 70.3008 14.2832 70.8203 16.1471 70.8203 18.5352L 70.8203 18.7676ZM 68.291 18.4805C 68.291 16.8125 67.9355 15.4954 67.2246 14.5293C 66.5137 13.5632 65.5384 13.0801 64.2988 13.0801C 62.7676 13.0801 61.6191 13.7591 60.8535 15.1172L 60.8535 22.1855C 61.61 23.5345 62.7676 24.209 64.3262 24.209C 65.5384 24.209 66.5 23.7305 67.2109 22.7734C 67.931 21.8073 68.291 20.3763 68.291 18.4805ZM 76.7949 26L 74.2656 26L 74.2656 5L 76.7949 5L 76.7949 26ZM 83.6035 26L 81.0742 26L 81.0742 11.207L 83.6035 11.207L 83.6035 26ZM 80.8691 7.2832C 80.8691 6.87305 80.9922 6.52669 81.2383 6.24414C 81.4935 5.96159 81.8672 5.82031 82.3594 5.82031C 82.8516 5.82031 83.2253 5.96159 83.4805 6.24414C 83.7357 6.52669 83.8633 6.87305 83.8633 7.2832C 83.8633 7.69336 83.7357 8.03516 83.4805 8.30859C 83.2253 8.58203 82.8516 8.71875 82.3594 8.71875C 81.8672 8.71875 81.4935 8.58203 81.2383 8.30859C 80.9922 8.03516 80.8691 7.69336 80.8691 7.2832ZM 90.0566 11.207L 90.1387 13.0664C 91.2689 11.6445 92.7454 10.9336 94.5684 10.9336C 97.6947 10.9336 99.2715 12.6973 99.2988 16.2246L 99.2988 26L 96.7695 26L 96.7695 16.2109C 96.7604 15.1445 96.5143 14.3561 96.0312 13.8457C 95.5573 13.3353 94.8145 13.0801 93.8027 13.0801C 92.9824 13.0801 92.2624 13.2988 91.6426 13.7363C 91.0228 14.1738 90.5397 14.748 90.1934 15.459L 90.1934 26L 87.6641 26L 87.6641 11.207L 90.0566 11.207ZM 102.512 18.4805C 102.512 16.1745 103.045 14.3424 104.111 12.9844C 105.178 11.6172 106.59 10.9336 108.35 10.9336C 110.154 10.9336 111.562 11.5716 112.574 12.8477L 112.697 11.207L 115.008 11.207L 115.008 25.6445C 115.008 27.5586 114.438 29.0671 113.299 30.1699C 112.169 31.2728 110.646 31.8242 108.732 31.8242C 107.666 31.8242 106.622 31.5964 105.602 31.1406C 104.581 30.6849 103.801 30.0605 103.264 29.2676L 104.576 27.75C 105.661 29.0898 106.987 29.7598 108.555 29.7598C 109.785 29.7598 110.742 29.4134 111.426 28.7207C 112.118 28.028 112.465 27.0527 112.465 25.7949L 112.465 24.5234C 111.453 25.6901 110.072 26.2734 108.322 26.2734C 106.59 26.2734 105.187 25.5762 104.111 24.1816C 103.045 22.7871 102.512 20.8867 102.512 18.4805ZM 105.055 18.7676C 105.055 20.4355 105.396 21.748 106.08 22.7051C 106.764 23.653 107.721 24.127 108.951 24.127C 110.546 24.127 111.717 23.4023 112.465 21.9531L 112.465 15.1992C 111.69 13.7865 110.528 13.0801 108.979 13.0801C 107.748 13.0801 106.786 13.5586 106.094 14.5156C 105.401 15.4727 105.055 16.89 105.055 18.7676Z"/>
<path id="path6_fill" d="M 8.17578 17.127C 5.92448 16.4798 4.28385 15.6868 3.25391 14.748C 2.23307 13.8001 1.72266 12.6335 1.72266 11.248C 1.72266 9.68034 2.34701 8.38607 3.5957 7.36523C 4.85352 6.33529 6.48503 5.82031 8.49023 5.82031C 9.85742 5.82031 11.0742 6.08464 12.1406 6.61328C 13.2161 7.14193 14.0456 7.87109 14.6289 8.80078C 15.2214 9.73047 15.5176 10.7467 15.5176 11.8496L 12.8789 11.8496C 12.8789 10.6465 12.4961 9.70312 11.7305 9.01953C 10.9648 8.32682 9.88477 7.98047 8.49023 7.98047C 7.19596 7.98047 6.18424 8.26758 5.45508 8.8418C 4.73503 9.4069 4.375 10.1953 4.375 11.207C 4.375 12.0182 4.7168 12.7064 5.40039 13.2715C 6.0931 13.8275 7.26432 14.3379 8.91406 14.8027C 10.5729 15.2676 11.8672 15.7826 12.7969 16.3477C 13.7357 16.9036 14.4284 17.5553 14.875 18.3027C 15.3307 19.0501 15.5586 19.9297 15.5586 20.9414C 15.5586 22.5547 14.9297 23.849 13.6719 24.8242C 12.4141 25.7904 10.7324 26.2734 8.62695 26.2734C 7.25977 26.2734 5.98372 26.0137 4.79883 25.4941C 3.61393 24.9655 2.69792 24.2454 2.05078 23.334C 1.41276 22.4225 1.09375 21.388 1.09375 20.2305L 3.73242 20.2305C 3.73242 21.4336 4.17448 22.3861 5.05859 23.0879C 5.95182 23.7806 7.14128 24.127 8.62695 24.127C 10.0124 24.127 11.0742 23.8444 11.8125 23.2793C 12.5508 22.7142 12.9199 21.944 12.9199 20.9688C 12.9199 19.9935 12.5781 19.2415 11.8945 18.7129C 11.2109 18.1751 9.97135 17.6465 8.17578 17.127ZM 27.6719 26C 27.526 25.7083 27.4076 25.1888 27.3164 24.4414C 26.1406 25.6628 24.737 26.2734 23.1055 26.2734C 21.6471 26.2734 20.4486 25.8633 19.5098 25.043C 18.5801 24.2135 18.1152 23.1654 18.1152 21.8984C 18.1152 20.3581 18.6986 19.1641 19.8652 18.3164C 21.041 17.4596 22.6908 17.0312 24.8145 17.0312L 27.2754 17.0312L 27.2754 15.8691C 27.2754 14.985 27.0111 14.2832 26.4824 13.7637C 25.9538 13.235 25.1745 12.9707 24.1445 12.9707C 23.2422 12.9707 22.4857 13.1986 21.875 13.6543C 21.2643 14.11 20.959 14.6615 20.959 15.3086L 18.416 15.3086C 18.416 14.5703 18.6758 13.8594 19.1953 13.1758C 19.724 12.4831 20.4349 11.9362 21.3281 11.5352C 22.2305 11.1341 23.2194 10.9336 24.2949 10.9336C 25.9993 10.9336 27.3346 11.362 28.3008 12.2188C 29.2669 13.0664 29.7682 14.2376 29.8047 15.7324L 29.8047 22.541C 29.8047 23.8991 29.9779 24.9792 30.3242 25.7812L 30.3242 26L 27.6719 26ZM 23.4746 24.0723C 24.2676 24.0723 25.0195 23.8672 25.7305 23.457C 26.4414 23.0469 26.9564 22.5137 27.2754 21.8574L 27.2754 18.8223L 25.293 18.8223C 22.194 18.8223 20.6445 19.7292 20.6445 21.543C 20.6445 22.3359 20.9089 22.9557 21.4375 23.4023C 21.9661 23.849 22.6452 24.0723 23.4746 24.0723ZM 36.1484 11.207L 36.2168 12.8477C 37.3014 11.5716 38.7643 10.9336 40.6055 10.9336C 42.6745 10.9336 44.0827 11.7266 44.8301 13.3125C 45.3223 12.6016 45.9603 12.0273 46.7441 11.5898C 47.5371 11.1523 48.4714 10.9336 49.5469 10.9336C 52.7917 10.9336 54.4414 12.6517 54.4961 16.0879L 54.4961 26L 51.9668 26L 51.9668 16.2383C 51.9668 15.181 51.7253 14.3926 51.2422 13.873C 50.7591 13.3444 49.9479 13.0801 48.8086 13.0801C 47.8698 13.0801 47.0905 13.3626 46.4707 13.9277C 45.8509 14.4837 45.4909 15.2357 45.3906 16.1836L 45.3906 26L 42.8477 26L 42.8477 16.3066C 42.8477 14.1556 41.7949 13.0801 39.6895 13.0801C 38.0306 13.0801 36.8958 13.7865 36.2852 15.1992L 36.2852 26L 33.7559 26L 33.7559 11.207L 36.1484 11.207ZM 70.8203 18.7676C 70.8203 21.0189 70.3053 22.8327 69.2754 24.209C 68.2454 25.5853 66.8509 26.2734 65.0918 26.2734C 63.2962 26.2734 61.8835 25.7038 60.8535 24.5645L 60.8535 31.6875L 58.3242 31.6875L 58.3242 11.207L 60.6348 11.207L 60.7578 12.8477C 61.7878 11.5716 63.2188 10.9336 65.0508 10.9336C 66.8281 10.9336 68.2318 11.6035 69.2617 12.9434C 70.3008 14.2832 70.8203 16.1471 70.8203 18.5352L 70.8203 18.7676ZM 68.291 18.4805C 68.291 16.8125 67.9355 15.4954 67.2246 14.5293C 66.5137 13.5632 65.5384 13.0801 64.2988 13.0801C 62.7676 13.0801 61.6191 13.7591 60.8535 15.1172L 60.8535 22.1855C 61.61 23.5345 62.7676 24.209 64.3262 24.209C 65.5384 24.209 66.5 23.7305 67.2109 22.7734C 67.931 21.8073 68.291 20.3763 68.291 18.4805ZM 76.7949 26L 74.2656 26L 74.2656 5L 76.7949 5L 76.7949 26ZM 86.9941 26.2734C 84.9889 26.2734 83.3574 25.6172 82.0996 24.3047C 80.8418 22.9831 80.2129 21.2194 80.2129 19.0137L 80.2129 18.5488C 80.2129 17.0814 80.4909 15.7734 81.0469 14.625C 81.612 13.4674 82.3958 12.5651 83.3984 11.918C 84.4102 11.2617 85.5039 10.9336 86.6797 10.9336C 88.6029 10.9336 90.0977 11.5671 91.1641 12.834C 92.2305 14.1009 92.7637 15.9147 92.7637 18.2754L 92.7637 19.3281L 82.7422 19.3281C 82.7786 20.7865 83.2025 21.9668 84.0137 22.8691C 84.834 23.7624 85.873 24.209 87.1309 24.209C 88.0241 24.209 88.7806 24.0267 89.4004 23.6621C 90.0202 23.2975 90.5625 22.8145 91.0273 22.2129L 92.5723 23.416C 91.3327 25.321 89.4733 26.2734 86.9941 26.2734ZM 86.6797 13.0117C 85.6589 13.0117 84.8021 13.3854 84.1094 14.1328C 83.4167 14.8711 82.9883 15.9102 82.8242 17.25L 90.2344 17.25L 90.2344 17.0586C 90.1615 15.7734 89.8151 14.7799 89.1953 14.0781C 88.5755 13.3672 87.737 13.0117 86.6797 13.0117ZM 102.553 17.9199C 102.553 15.86 102.826 13.8822 103.373 11.9863C 103.929 10.0905 104.754 8.36784 105.848 6.81836C 106.941 5.26888 108.076 4.17513 109.252 3.53711L 109.771 5.20508C 108.441 6.22591 107.347 7.78451 106.49 9.88086C 105.643 11.9772 105.178 14.3242 105.096 16.9219L 105.082 18.084C 105.082 21.6022 105.725 24.6556 107.01 27.2441C 107.785 28.7936 108.705 30.0059 109.771 30.8809L 109.252 32.4258C 108.04 31.7513 106.882 30.6211 105.779 29.0352C 103.628 25.9362 102.553 22.2311 102.553 17.9199ZM 127.572 15.377C 127.572 16.8171 127.144 18.0339 126.287 19.0273C 125.439 20.0117 124.391 20.5039 123.143 20.5039C 122.486 20.5039 121.867 20.3854 121.283 20.1484C 120.7 19.9023 120.021 19.4421 119.246 18.7676C 118.48 18.0931 117.929 17.6738 117.592 17.5098C 117.255 17.3457 116.895 17.2637 116.512 17.2637C 115.801 17.2637 115.254 17.5098 114.871 18.002C 114.488 18.485 114.297 19.1549 114.297 20.0117L 112.096 20.0391C 112.096 18.5807 112.515 17.3822 113.354 16.4434C 114.192 15.5046 115.245 15.0352 116.512 15.0352C 117.204 15.0352 117.87 15.181 118.508 15.4727C 119.146 15.7643 119.866 16.2793 120.668 17.0176C 121.47 17.7467 122.163 18.1569 122.746 18.248L 123.143 18.2754C 123.835 18.2754 124.396 18.0111 124.824 17.4824C 125.262 16.9538 125.48 16.2565 125.48 15.3906L 127.572 15.377ZM 139.33 26L 136.787 26L 136.787 9.14258L 131.688 11.0156L 131.688 8.71875L 138.934 5.99805L 139.33 5.99805L 139.33 26ZM 159.223 17.5098C 159.223 20.472 158.717 22.6732 157.705 24.1133C 156.693 25.5534 155.112 26.2734 152.961 26.2734C 150.837 26.2734 149.265 25.5716 148.244 24.168C 147.223 22.7552 146.695 20.6497 146.658 17.8516L 146.658 14.4746C 146.658 11.5488 147.164 9.375 148.176 7.95312C 149.188 6.53125 150.773 5.82031 152.934 5.82031C 155.076 5.82031 156.652 6.50846 157.664 7.88477C 158.676 9.25195 159.195 11.3665 159.223 14.2285L 159.223 17.5098ZM 156.693 14.0508C 156.693 11.9089 156.393 10.3503 155.791 9.375C 155.189 8.39062 154.237 7.89844 152.934 7.89844C 151.639 7.89844 150.696 8.38607 150.104 9.36133C 149.511 10.3366 149.206 11.8359 149.188 13.8594L 149.188 17.9062C 149.188 20.0573 149.497 21.6478 150.117 22.6777C 150.746 23.6986 151.694 24.209 152.961 24.209C 154.21 24.209 155.135 23.7259 155.736 22.7598C 156.347 21.7936 156.666 20.2715 156.693 18.1934L 156.693 14.0508ZM 174.945 17.5098C 174.945 20.472 174.439 22.6732 173.428 24.1133C 172.416 25.5534 170.835 26.2734 168.684 26.2734C 166.56 26.2734 164.988 25.5716 163.967 24.168C 162.946 22.7552 162.417 20.6497 162.381 17.8516L 162.381 14.4746C 162.381 11.5488 162.887 9.375 163.898 7.95312C 164.91 6.53125 166.496 5.82031 168.656 5.82031C 170.798 5.82031 172.375 6.50846 173.387 7.88477C 174.398 9.25195 174.918 11.3665 174.945 14.2285L 174.945 17.5098ZM 172.416 14.0508C 172.416 11.9089 172.115 10.3503 171.514 9.375C 170.912 8.39062 169.96 7.89844 168.656 7.89844C 167.362 7.89844 166.419 8.38607 165.826 9.36133C 165.234 10.3366 164.928 11.8359 164.91 13.8594L 164.91 17.9062C 164.91 20.0573 165.22 21.6478 165.84 22.6777C 166.469 23.6986 167.417 24.209 168.684 24.209C 169.932 24.209 170.857 23.7259 171.459 22.7598C 172.07 21.7936 172.389 20.2715 172.416 18.1934L 172.416 14.0508ZM 212.064 18.0566C 212.064 20.0892 211.796 22.0397 211.258 23.9082C 210.729 25.7676 209.913 27.4857 208.811 29.0625C 207.717 30.6393 206.568 31.7604 205.365 32.4258L 204.832 30.8809C 206.236 29.8053 207.361 28.1374 208.209 25.877C 209.066 23.6074 209.503 21.0918 209.521 18.3301L 209.521 17.8926C 209.521 15.9785 209.321 14.2012 208.92 12.5605C 208.519 10.9108 207.958 9.43424 207.238 8.13086C 206.527 6.82747 205.725 5.8112 204.832 5.08203L 205.365 3.53711C 206.568 4.20247 207.712 5.31445 208.797 6.87305C 209.891 8.43164 210.706 10.1497 211.244 12.0273C 211.791 13.9049 212.064 15.9147 212.064 18.0566Z"/>
<path id="path7_fill" d="M 4.5 55.9688C 4.5 54.9688 4.79167 54.1354 5.375 53.4688C 5.97917 52.8021 6.875 52.4688 8.0625 52.4688C 9.25 52.4688 10.1458 52.8021 10.75 53.4688C 11.375 54.1354 11.6875 54.9688 11.6875 55.9688C 11.6875 56.9271 11.375 57.7292 10.75 58.375C 10.1458 59.0208 9.25 59.3438 8.0625 59.3438C 6.875 59.3438 5.97917 59.0208 5.375 58.375C 4.79167 57.7292 4.5 56.9271 4.5 55.9688ZM 21.375 55.9688C 21.375 54.9688 21.6667 54.1354 22.25 53.4688C 22.8542 52.8021 23.75 52.4688 24.9375 52.4688C 26.125 52.4688 27.0208 52.8021 27.625 53.4688C 28.25 54.1354 28.5625 54.9688 28.5625 55.9688C 28.5625 56.9271 28.25 57.7292 27.625 58.375C 27.0208 59.0208 26.125 59.3438 24.9375 59.3438C 23.75 59.3438 22.8542 59.0208 22.25 58.375C 21.6667 57.7292 21.375 56.9271 21.375 55.9688ZM 38.25 55.9688C 38.25 54.9688 38.5417 54.1354 39.125 53.4688C 39.7292 52.8021 40.625 52.4688 41.8125 52.4688C 43 52.4688 43.8958 52.8021 44.5 53.4688C 45.125 54.1354 45.4375 54.9688 45.4375 55.9688C 45.4375 56.9271 45.125 57.7292 44.5 58.375C 43.8958 59.0208 43 59.3438 41.8125 59.3438C 40.625 59.3438 39.7292 59.0208 39.125 58.375C 38.5417 57.7292 38.25 56.9271 38.25 55.9688ZM 55.125 55.9688C 55.125 54.9688 55.4167 54.1354 56 53.4688C 56.6042 52.8021 57.5 52.4688 58.6875 52.4688C 59.875 52.4688 60.7708 52.8021 61.375 53.4688C 62 54.1354 62.3125 54.9688 62.3125 55.9688C 62.3125 56.9271 62 57.7292 61.375 58.375C 60.7708 59.0208 59.875 59.3438 58.6875 59.3438C 57.5 59.3438 56.6042 59.0208 56 58.375C 55.4167 57.7292 55.125 56.9271 55.125 55.9688ZM 72 55.9688C 72 54.9688 72.2917 54.1354 72.875 53.4688C 73.4792 52.8021 74.375 52.4688 75.5625 52.4688C 76.75 52.4688 77.6458 52.8021 78.25 53.4688C 78.875 54.1354 79.1875 54.9688 79.1875 55.9688C 79.1875 56.9271 78.875 57.7292 78.25 58.375C 77.6458 59.0208 76.75 59.3438 75.5625 59.3438C 74.375 59.3438 73.4792 59.0208 72.875 58.375C 72.2917 57.7292 72 56.9271 72 55.9688ZM 88.875 55.9688C 88.875 54.9688 89.1667 54.1354 89.75 53.4688C 90.3542 52.8021 91.25 52.4688 92.4375 52.4688C 93.625 52.4688 94.5208 52.8021 95.125 53.4688C 95.75 54.1354 96.0625 54.9688 96.0625 55.9688C 96.0625 56.9271 95.75 57.7292 95.125 58.375C 94.5208 59.0208 93.625 59.3438 92.4375 59.3438C 91.25 59.3438 90.3542 59.0208 89.75 58.375C 89.1667 57.7292 88.875 56.9271 88.875 55.9688Z"/>
<path id="path8_fill" d="M 4.5 55.9688C 4.5 54.9688 4.79167 54.1354 5.375 53.4688C 5.97917 52.8021 6.875 52.4688 8.0625 52.4688C 9.25 52.4688 10.1458 52.8021 10.75 53.4688C 11.375 54.1354 11.6875 54.9688 11.6875 55.9688C 11.6875 56.9271 11.375 57.7292 10.75 58.375C 10.1458 59.0208 9.25 59.3438 8.0625 59.3438C 6.875 59.3438 5.97917 59.0208 5.375 58.375C 4.79167 57.7292 4.5 56.9271 4.5 55.9688ZM 21.375 55.9688C 21.375 54.9688 21.6667 54.1354 22.25 53.4688C 22.8542 52.8021 23.75 52.4688 24.9375 52.4688C 26.125 52.4688 27.0208 52.8021 27.625 53.4688C 28.25 54.1354 28.5625 54.9688 28.5625 55.9688C 28.5625 56.9271 28.25 57.7292 27.625 58.375C 27.0208 59.0208 26.125 59.3438 24.9375 59.3438C 23.75 59.3438 22.8542 59.0208 22.25 58.375C 21.6667 57.7292 21.375 56.9271 21.375 55.9688ZM 38.25 55.9688C 38.25 54.9688 38.5417 54.1354 39.125 53.4688C 39.7292 52.8021 40.625 52.4688 41.8125 52.4688C 43 52.4688 43.8958 52.8021 44.5 53.4688C 45.125 54.1354 45.4375 54.9688 45.4375 55.9688C 45.4375 56.9271 45.125 57.7292 44.5 58.375C 43.8958 59.0208 43 59.3438 41.8125 59.3438C 40.625 59.3438 39.7292 59.0208 39.125 58.375C 38.5417 57.7292 38.25 56.9271 38.25 55.9688ZM 55.125 55.9688C 55.125 54.9688 55.4167 54.1354 56 53.4688C 56.6042 52.8021 57.5 52.4688 58.6875 52.4688C 59.875 52.4688 60.7708 52.8021 61.375 53.4688C 62 54.1354 62.3125 54.9688 62.3125 55.9688C 62.3125 56.9271 62 57.7292 61.375 58.375C 60.7708 59.0208 59.875 59.3438 58.6875 59.3438C 57.5 59.3438 56.6042 59.0208 56 58.375C 55.4167 57.7292 55.125 56.9271 55.125 55.9688ZM 72 55.9688C 72 54.9688 72.2917 54.1354 72.875 53.4688C 73.4792 52.8021 74.375 52.4688 75.5625 52.4688C 76.75 52.4688 77.6458 52.8021 78.25 53.4688C 78.875 54.1354 79.1875 54.9688 79.1875 55.9688C 79.1875 56.9271 78.875 57.7292 78.25 58.375C 77.6458 59.0208 76.75 59.3438 75.5625 59.3438C 74.375 59.3438 73.4792 59.0208 72.875 58.375C 72.2917 57.7292 72 56.9271 72 55.9688ZM 88.875 55.9688C 88.875 54.9688 89.1667 54.1354 89.75 53.4688C 90.3542 52.8021 91.25 52.4688 92.4375 52.4688C 93.625 52.4688 94.5208 52.8021 95.125 53.4688C 95.75 54.1354 96.0625 54.9688 96.0625 55.9688C 96.0625 56.9271 95.75 57.7292 95.125 58.375C 94.5208 59.0208 93.625 59.3438 92.4375 59.3438C 91.25 59.3438 90.3542 59.0208 89.75 58.375C 89.1667 57.7292 88.875 56.9271 88.875 55.9688Z"/>
<path id="path9_fill" d="M 11.8125 5.04478C 11.8125 7.83093 9.16818 10.0896 5.90625 10.0896C 2.64432 10.0896 0 7.83093 0 5.04478C 0 2.25862 2.64432 0 5.90625 0C 9.16818 0 11.8125 2.25862 11.8125 5.04478Z"/>
<path id="path10_fill" d="M 0 0L 14 0L 14 15.9104L 0 15.9104L 0 0Z"/>
<path id="path11_stroke" d="M 221.061 1.06066C 221.646 0.474874 221.646 -0.474874 221.061 -1.06066L 211.515 -10.6066C 210.929 -11.1924 209.979 -11.1924 209.393 -10.6066C 208.808 -10.0208 208.808 -9.07107 209.393 -8.48528L 217.879 0L 209.393 8.48528C 208.808 9.07107 208.808 10.0208 209.393 10.6066C 209.979 11.1924 210.929 11.1924 211.515 10.6066L 221.061 1.06066ZM 0 1.5L 220 1.5L 220 -1.5L 0 -1.5L 0 1.5Z"/>
</defs>
</svg>
