<svg width="731" height="427" viewBox="0 0 731 427" version="1.1" xmlns="http://www.w3.org/2000/svg" xmlns:xlink="http://www.w3.org/1999/xlink">
<title>s1m1_inference</title>
<desc>Created using Figma</desc>
<g id="Canvas" transform="translate(1726 39)">
<rect x="-1726" y="-39" width="731" height="427" fill="#FFFFFF"/>
<g id="Component">
<g id="Rectangle">
<use xlink:href="#path0_fill" transform="translate(-1180 -13)" fill="#BDBDBD"/>
</g>
<g id="Rectangle">
<use xlink:href="#path0_fill" transform="translate(-1078 -13)" fill="#BDBDBD"/>
</g>
<g id="Rectangle">
<use xlink:href="#path0_fill" transform="translate(-1129 -13)" fill="#BDBDBD"/>
</g>
<g id="Ellipse 2">
<use xlink:href="#path1_fill" transform="translate(-1126 -39)" fill="#BDBDBD"/>
</g>
<g id="Ellipse 2.1">
<use xlink:href="#path1_fill" transform="translate(-1177 -39)" fill="#BDBDBD"/>
</g>
<g id="Ellipse 2.2">
<use xlink:href="#path1_fill" transform="translate(-1075 -39)" fill="#BDBDBD"/>
</g>
<g id="Rectangle">
<use xlink:href="#path0_fill" transform="translate(-1027 -13)" fill="#BDBDBD"/>
</g>
<g id="Ellipse 2.3">
<use xlink:href="#path1_fill" transform="translate(-1024 -39)" fill="#BDBDBD"/>
</g>
</g>
<g id="Component">
<g id="Rectangle">
<use xlink:href="#path0_fill" transform="translate(-1180 67)" fill="#BDBDBD"/>
</g>
<g id="Rectangle">
<use xlink:href="#path0_fill" transform="translate(-1078 67)" fill="#BDBDBD"/>
</g>
<g id="Rectangle">
<use xlink:href="#path0_fill" transform="translate(-1129 67)" fill="#BDBDBD"/>
</g>
<g id="Ellipse 2">
<use xlink:href="#path1_fill" transform="translate(-1126 41)" fill="#BDBDBD"/>
</g>
<g id="Ellipse 2.1">
<use xlink:href="#path1_fill" transform="translate(-1177 41)" fill="#BDBDBD"/>
</g>
<g id="Ellipse 2.2">
<use xlink:href="#path1_fill" transform="translate(-1075 41)" fill="#BDBDBD"/>
</g>
<g id="Rectangle">
<use xlink:href="#path0_fill" transform="translate(-1027 67)" fill="#BDBDBD"/>
</g>
<g id="Ellipse 2.3">
<use xlink:href="#path1_fill" transform="translate(-1024 41)" fill="#BDBDBD"/>
</g>
</g>
<g id="Component">
<g id="Rectangle">
<use xlink:href="#path0_fill" transform="translate(-1180 227)" fill="#BDBDBD"/>
</g>
<g id="Rectangle">
<use xlink:href="#path0_fill" transform="translate(-1078 227)" fill="#BDBDBD"/>
</g>
<g id="Rectangle">
<use xlink:href="#path0_fill" transform="translate(-1129 227)" fill="#BDBDBD"/>
</g>
<g id="Ellipse 2">
<use xlink:href="#path1_fill" transform="translate(-1126 201)" fill="#BDBDBD"/>
</g>
<g id="Ellipse 2.1">
<use xlink:href="#path1_fill" transform="translate(-1177 201)" fill="#BDBDBD"/>
</g>
<g id="Ellipse 2.2">
<use xlink:href="#path1_fill" transform="translate(-1075 201)" fill="#BDBDBD"/>
</g>
<g id="Rectangle">
<use xlink:href="#path0_fill" transform="translate(-1027 227)" fill="#BDBDBD"/>
</g>
<g id="Ellipse 2.3">
<use xlink:href="#path1_fill" transform="translate(-1024 201)" fill="#BDBDBD"/>
</g>
</g>
<g id="Component">
<g id="Rectangle">
<use xlink:href="#path0_fill" transform="translate(-1180 307)" fill="#BDBDBD"/>
</g>
<g id="Rectangle">
<use xlink:href="#path0_fill" transform="translate(-1078 307)" fill="#BDBDBD"/>
</g>
<g id="Rectangle">
<use xlink:href="#path0_fill" transform="translate(-1129 307)" fill="#BDBDBD"/>
</g>
<g id="Ellipse 2">
<use xlink:href="#path1_fill" transform="translate(-1126 281)" fill="#BDBDBD"/>
</g>
<g id="Ellipse 2.1">
<use xlink:href="#path1_fill" transform="translate(-1177 281)" fill="#BDBDBD"/>
</g>
<g id="Ellipse 2.2">
<use xlink:href="#path1_fill" transform="translate(-1075 281)" fill="#BDBDBD"/>
</g>
<g id="Rectangle">
<use xlink:href="#path0_fill" transform="translate(-1027 307)" fill="#BDBDBD"/>
</g>
<g id="Ellipse 2.3">
<use xlink:href="#path1_fill" transform="translate(-1024 281)" fill="#BDBDBD"/>
</g>
</g>
<g id="Component 2">
<g id="Ellipse">
<use xlink:href="#path1_fill" transform="translate(-1550 43)" fill="#C4C4C4"/>
</g>
<g id="Rectangle">
<use xlink:href="#path0_fill" transform="translate(-1553 69)" fill="#BDBDBD"/>
</g>
<g id="Ellipse">
<use xlink:href="#path1_fill" transform="translate(-1496 43)" fill="#C4C4C4"/>
</g>
<g id="Rectangle">
<use xlink:href="#path0_fill" transform="translate(-1499 69)" fill="#BDBDBD"/>
</g>
<g id="Ellipse">
<use xlink:href="#path2_fill" transform="translate(-1442.09 43)" fill="#C4C4C4"/>
</g>
<g id="Rectangle">
<use xlink:href="#path3_fill" transform="translate(-1445 69)" fill="#BDBDBD"/>
</g>
</g>
<g id="Component 2">
<g id="Ellipse">
<use xlink:href="#path1_fill" transform="translate(-1550 203)" fill="#C4C4C4"/>
</g>
<g id="Rectangle">
<use xlink:href="#path0_fill" transform="translate(-1553 229)" fill="#BDBDBD"/>
</g>
<g id="Ellipse">
<use xlink:href="#path1_fill" transform="translate(-1496 203)" fill="#C4C4C4"/>
</g>
<g id="Rectangle">
<use xlink:href="#path0_fill" transform="translate(-1499 229)" fill="#BDBDBD"/>
</g>
<g id="Ellipse">
<use xlink:href="#path2_fill" transform="translate(-1442.09 203)" fill="#C4C4C4"/>
</g>
<g id="Rectangle">
<use xlink:href="#path3_fill" transform="translate(-1445 229)" fill="#BDBDBD"/>
</g>
</g>
<g id="&#62;50000">
<use xlink:href="#path4_fill" transform="translate(-1153 361)"/>
</g>
<g id="~100">
<use xlink:href="#path5_fill" transform="translate(-1528 285)"/>
</g>
<g id="......">
<use xlink:href="#path6_fill" transform="translate(-1535 98)"/>
</g>
<g id="......">
<use xlink:href="#path6_fill" transform="translate(-1139 96)"/>
</g>
<g id="Ellipse">
<use xlink:href="#path7_fill" transform="translate(-1451.69 285)" fill="#C4C4C4"/>
</g>
<g id="Rectangle">
<use xlink:href="#path8_fill" transform="translate(-1453 295.09)" fill="#BDBDBD"/>
</g>
<g id="Ellipse">
<use xlink:href="#path7_fill" transform="translate(-1049.69 361)" fill="#C4C4C4"/>
</g>
<g id="Rectangle">
<use xlink:href="#path8_fill" transform="translate(-1051 371.09)" fill="#BDBDBD"/>
</g>
<g id="We need to learn to use this:">
<use xlink:href="#path9_fill" transform="translate(-1727 131)"/>
</g>
<g id="to answer questions about this:">
<use xlink:href="#path10_fill" transform="translate(-1390 131)"/>
</g>
</g>
<defs>
<path id="path0_fill" d="M 0 0L 32 0L 32 41L 0 41L 0 0Z"/>
<path id="path1_fill" d="M 27 13C 27 20.1797 20.9558 26 13.5 26C 6.04416 26 0 20.1797 0 13C 0 5.8203 6.04416 0 13.5 0C 20.9558 0 27 5.8203 27 13Z"/>
<path id="path2_fill" d="M 26.1562 13C 26.1562 20.1797 20.301 26 13.0781 26C 5.85528 26 0 20.1797 0 13C 0 5.8203 5.85528 0 13.0781 0C 20.301 0 26.1562 5.8203 26.1562 13Z"/>
<path id="path3_fill" d="M 0 0L 31 0L 31 41L 0 41L 0 0Z"/>
<path id="path4_fill" d="M 10.8691 17.1133L 1.83203 13.5723L 1.83203 10.9746L 13.5078 16.1426L 13.5078 18.1387L 1.83203 23.3203L 1.83203 20.6953L 10.8691 17.1133ZM 17.4453 16.0195L 18.457 6.09375L 28.6562 6.09375L 28.6562 8.43164L 20.6035 8.43164L 20.002 13.8594C 20.9772 13.2852 22.0846 12.998 23.3242 12.998C 25.138 12.998 26.5781 13.5996 27.6445 14.8027C 28.7109 15.9967 29.2441 17.6146 29.2441 19.6562C 29.2441 21.707 28.6882 23.3249 27.5762 24.5098C 26.4733 25.6855 24.9284 26.2734 22.9414 26.2734C 21.1823 26.2734 19.7467 25.7858 18.6348 24.8105C 17.5228 23.8353 16.8893 22.4863 16.7344 20.7637L 19.127 20.7637C 19.2819 21.903 19.6875 22.7643 20.3438 23.3477C 21 23.9219 21.8659 24.209 22.9414 24.209C 24.1172 24.209 25.0378 23.8079 25.7031 23.0059C 26.3776 22.2038 26.7148 21.0964 26.7148 19.6836C 26.7148 18.3529 26.3503 17.2865 25.6211 16.4844C 24.901 15.6732 23.9395 15.2676 22.7363 15.2676C 21.6335 15.2676 20.7676 15.5091 20.1387 15.9922L 19.4688 16.5391L 17.4453 16.0195ZM 44.4883 17.5098C 44.4883 20.472 43.9824 22.6732 42.9707 24.1133C 41.959 25.5534 40.3776 26.2734 38.2266 26.2734C 36.1029 26.2734 34.5306 25.5716 33.5098 24.168C 32.4889 22.7552 31.9603 20.6497 31.9238 17.8516L 31.9238 14.4746C 31.9238 11.5488 32.4297 9.375 33.4414 7.95312C 34.4531 6.53125 36.0391 5.82031 38.1992 5.82031C 40.3411 5.82031 41.918 6.50846 42.9297 7.88477C 43.9414 9.25195 44.4609 11.3665 44.4883 14.2285L 44.4883 17.5098ZM 41.959 14.0508C 41.959 11.9089 41.6582 10.3503 41.0566 9.375C 40.4551 8.39062 39.5026 7.89844 38.1992 7.89844C 36.9049 7.89844 35.9616 8.38607 35.3691 9.36133C 34.7767 10.3366 34.4714 11.8359 34.4531 13.8594L 34.4531 17.9062C 34.4531 20.0573 34.763 21.6478 35.3828 22.6777C 36.0117 23.6986 36.9596 24.209 38.2266 24.209C 39.4753 24.209 40.4004 23.7259 41.002 22.7598C 41.6126 21.7936 41.9316 20.2715 41.959 18.1934L 41.959 14.0508ZM 60.2109 17.5098C 60.2109 20.472 59.7051 22.6732 58.6934 24.1133C 57.6816 25.5534 56.1003 26.2734 53.9492 26.2734C 51.8255 26.2734 50.2533 25.5716 49.2324 24.168C 48.2116 22.7552 47.6829 20.6497 47.6465 17.8516L 47.6465 14.4746C 47.6465 11.5488 48.1523 9.375 49.1641 7.95312C 50.1758 6.53125 51.7617 5.82031 53.9219 5.82031C 56.0638 5.82031 57.6406 6.50846 58.6523 7.88477C 59.6641 9.25195 60.1836 11.3665 60.2109 14.2285L 60.2109 17.5098ZM 57.6816 14.0508C 57.6816 11.9089 57.3809 10.3503 56.7793 9.375C 56.1777 8.39062 55.2253 7.89844 53.9219 7.89844C 52.6276 7.89844 51.6842 8.38607 51.0918 9.36133C 50.4993 10.3366 50.194 11.8359 50.1758 13.8594L 50.1758 17.9062C 50.1758 20.0573 50.4857 21.6478 51.1055 22.6777C 51.7344 23.6986 52.6823 24.209 53.9492 24.209C 55.1979 24.209 56.123 23.7259 56.7246 22.7598C 57.3353 21.7936 57.6543 20.2715 57.6816 18.1934L 57.6816 14.0508ZM 75.9336 17.5098C 75.9336 20.472 75.4277 22.6732 74.416 24.1133C 73.4043 25.5534 71.8229 26.2734 69.6719 26.2734C 67.5482 26.2734 65.9759 25.5716 64.9551 24.168C 63.9342 22.7552 63.4056 20.6497 63.3691 17.8516L 63.3691 14.4746C 63.3691 11.5488 63.875 9.375 64.8867 7.95312C 65.8984 6.53125 67.4844 5.82031 69.6445 5.82031C 71.7865 5.82031 73.3633 6.50846 74.375 7.88477C 75.3867 9.25195 75.9062 11.3665 75.9336 14.2285L 75.9336 17.5098ZM 73.4043 14.0508C 73.4043 11.9089 73.1035 10.3503 72.502 9.375C 71.9004 8.39062 70.9479 7.89844 69.6445 7.89844C 68.3503 7.89844 67.4069 8.38607 66.8145 9.36133C 66.222 10.3366 65.9167 11.8359 65.8984 13.8594L 65.8984 17.9062C 65.8984 20.0573 66.2083 21.6478 66.8281 22.6777C 67.457 23.6986 68.4049 24.209 69.6719 24.209C 70.9206 24.209 71.8457 23.7259 72.4473 22.7598C 73.0579 21.7936 73.377 20.2715 73.4043 18.1934L 73.4043 14.0508ZM 91.6562 17.5098C 91.6562 20.472 91.1504 22.6732 90.1387 24.1133C 89.127 25.5534 87.5456 26.2734 85.3945 26.2734C 83.2708 26.2734 81.6986 25.5716 80.6777 24.168C 79.6569 22.7552 79.1283 20.6497 79.0918 17.8516L 79.0918 14.4746C 79.0918 11.5488 79.5977 9.375 80.6094 7.95312C 81.6211 6.53125 83.207 5.82031 85.3672 5.82031C 87.5091 5.82031 89.0859 6.50846 90.0977 7.88477C 91.1094 9.25195 91.6289 11.3665 91.6562 14.2285L 91.6562 17.5098ZM 89.127 14.0508C 89.127 11.9089 88.8262 10.3503 88.2246 9.375C 87.623 8.39062 86.6706 7.89844 85.3672 7.89844C 84.0729 7.89844 83.1296 8.38607 82.5371 9.36133C 81.9447 10.3366 81.6393 11.8359 81.6211 13.8594L 81.6211 17.9062C 81.6211 20.0573 81.931 21.6478 82.5508 22.6777C 83.1797 23.6986 84.1276 24.209 85.3945 24.209C 86.6432 24.209 87.5684 23.7259 88.1699 22.7598C 88.7806 21.7936 89.0996 20.2715 89.127 18.1934L 89.127 14.0508Z"/>
<path id="path5_fill" d="M 17.2676 15.377C 17.2676 16.8171 16.8392 18.0339 15.9824 19.0273C 15.1348 20.0117 14.0866 20.5039 12.8379 20.5039C 12.1816 20.5039 11.5618 20.3854 10.9785 20.1484C 10.3952 19.9023 9.71615 19.4421 8.94141 18.7676C 8.17578 18.0931 7.62435 17.6738 7.28711 17.5098C 6.94987 17.3457 6.58984 17.2637 6.20703 17.2637C 5.49609 17.2637 4.94922 17.5098 4.56641 18.002C 4.18359 18.485 3.99219 19.1549 3.99219 20.0117L 1.79102 20.0391C 1.79102 18.5807 2.21029 17.3822 3.04883 16.4434C 3.88737 15.5046 4.9401 15.0352 6.20703 15.0352C 6.89974 15.0352 7.5651 15.181 8.20312 15.4727C 8.84115 15.7643 9.5612 16.2793 10.3633 17.0176C 11.1654 17.7467 11.8581 18.1569 12.4414 18.248L 12.8379 18.2754C 13.5306 18.2754 14.0911 18.0111 14.5195 17.4824C 14.957 16.9538 15.1758 16.2565 15.1758 15.3906L 17.2676 15.377ZM 29.0254 26L 26.4824 26L 26.4824 9.14258L 21.3828 11.0156L 21.3828 8.71875L 28.6289 5.99805L 29.0254 5.99805L 29.0254 26ZM 48.918 17.5098C 48.918 20.472 48.4121 22.6732 47.4004 24.1133C 46.3887 25.5534 44.8073 26.2734 42.6562 26.2734C 40.5326 26.2734 38.9603 25.5716 37.9395 24.168C 36.9186 22.7552 36.39 20.6497 36.3535 17.8516L 36.3535 14.4746C 36.3535 11.5488 36.8594 9.375 37.8711 7.95312C 38.8828 6.53125 40.4688 5.82031 42.6289 5.82031C 44.7708 5.82031 46.3477 6.50846 47.3594 7.88477C 48.3711 9.25195 48.8906 11.3665 48.918 14.2285L 48.918 17.5098ZM 46.3887 14.0508C 46.3887 11.9089 46.0879 10.3503 45.4863 9.375C 44.8848 8.39062 43.9323 7.89844 42.6289 7.89844C 41.3346 7.89844 40.3913 8.38607 39.7988 9.36133C 39.2064 10.3366 38.901 11.8359 38.8828 13.8594L 38.8828 17.9062C 38.8828 20.0573 39.1927 21.6478 39.8125 22.6777C 40.4414 23.6986 41.3893 24.209 42.6562 24.209C 43.9049 24.209 44.8301 23.7259 45.4316 22.7598C 46.0423 21.7936 46.3613 20.2715 46.3887 18.1934L 46.3887 14.0508ZM 64.6406 17.5098C 64.6406 20.472 64.1348 22.6732 63.123 24.1133C 62.1113 25.5534 60.5299 26.2734 58.3789 26.2734C 56.2552 26.2734 54.6829 25.5716 53.6621 24.168C 52.6413 22.7552 52.1126 20.6497 52.0762 17.8516L 52.0762 14.4746C 52.0762 11.5488 52.582 9.375 53.5938 7.95312C 54.6055 6.53125 56.1914 5.82031 58.3516 5.82031C 60.4935 5.82031 62.0703 6.50846 63.082 7.88477C 64.0938 9.25195 64.6133 11.3665 64.6406 14.2285L 64.6406 17.5098ZM 62.1113 14.0508C 62.1113 11.9089 61.8105 10.3503 61.209 9.375C 60.6074 8.39062 59.6549 7.89844 58.3516 7.89844C 57.0573 7.89844 56.1139 8.38607 55.5215 9.36133C 54.929 10.3366 54.6237 11.8359 54.6055 13.8594L 54.6055 17.9062C 54.6055 20.0573 54.9154 21.6478 55.5352 22.6777C 56.1641 23.6986 57.112 24.209 58.3789 24.209C 59.6276 24.209 60.5527 23.7259 61.1543 22.7598C 61.765 21.7936 62.084 20.2715 62.1113 18.1934L 62.1113 14.0508Z"/>
<path id="path6_fill" d="M 4.5 55.9688C 4.5 54.9688 4.79167 54.1354 5.375 53.4688C 5.97917 52.8021 6.875 52.4688 8.0625 52.4688C 9.25 52.4688 10.1458 52.8021 10.75 53.4688C 11.375 54.1354 11.6875 54.9688 11.6875 55.9688C 11.6875 56.9271 11.375 57.7292 10.75 58.375C 10.1458 59.0208 9.25 59.3438 8.0625 59.3438C 6.875 59.3438 5.97917 59.0208 5.375 58.375C 4.79167 57.7292 4.5 56.9271 4.5 55.9688ZM 21.375 55.9688C 21.375 54.9688 21.6667 54.1354 22.25 53.4688C 22.8542 52.8021 23.75 52.4688 24.9375 52.4688C 26.125 52.4688 27.0208 52.8021 27.625 53.4688C 28.25 54.1354 28.5625 54.9688 28.5625 55.9688C 28.5625 56.9271 28.25 57.7292 27.625 58.375C 27.0208 59.0208 26.125 59.3438 24.9375 59.3438C 23.75 59.3438 22.8542 59.0208 22.25 58.375C 21.6667 57.7292 21.375 56.9271 21.375 55.9688ZM 38.25 55.9688C 38.25 54.9688 38.5417 54.1354 39.125 53.4688C 39.7292 52.8021 40.625 52.4688 41.8125 52.4688C 43 52.4688 43.8958 52.8021 44.5 53.4688C 45.125 54.1354 45.4375 54.9688 45.4375 55.9688C 45.4375 56.9271 45.125 57.7292 44.5 58.375C 43.8958 59.0208 43 59.3438 41.8125 59.3438C 40.625 59.3438 39.7292 59.0208 39.125 58.375C 38.5417 57.7292 38.25 56.9271 38.25 55.9688ZM 55.125 55.9688C 55.125 54.9688 55.4167 54.1354 56 53.4688C 56.6042 52.8021 57.5 52.4688 58.6875 52.4688C 59.875 52.4688 60.7708 52.8021 61.375 53.4688C 62 54.1354 62.3125 54.9688 62.3125 55.9688C 62.3125 56.9271 62 57.7292 61.375 58.375C 60.7708 59.0208 59.875 59.3438 58.6875 59.3438C 57.5 59.3438 56.6042 59.0208 56 58.375C 55.4167 57.7292 55.125 56.9271 55.125 55.9688ZM 72 55.9688C 72 54.9688 72.2917 54.1354 72.875 53.4688C 73.4792 52.8021 74.375 52.4688 75.5625 52.4688C 76.75 52.4688 77.6458 52.8021 78.25 53.4688C 78.875 54.1354 79.1875 54.9688 79.1875 55.9688C 79.1875 56.9271 78.875 57.7292 78.25 58.375C 77.6458 59.0208 76.75 59.3438 75.5625 59.3438C 74.375 59.3438 73.4792 59.0208 72.875 58.375C 72.2917 57.7292 72 56.9271 72 55.9688ZM 88.875 55.9688C 88.875 54.9688 89.1667 54.1354 89.75 53.4688C 90.3542 52.8021 91.25 52.4688 92.4375 52.4688C 93.625 52.4688 94.5208 52.8021 95.125 53.4688C 95.75 54.1354 96.0625 54.9688 96.0625 55.9688C 96.0625 56.9271 95.75 57.7292 95.125 58.375C 94.5208 59.0208 93.625 59.3438 92.4375 59.3438C 91.25 59.3438 90.3542 59.0208 89.75 58.375C 89.1667 57.7292 88.875 56.9271 88.875 55.9688Z"/>
<path id="path7_fill" d="M 11.8125 5.04478C 11.8125 7.83093 9.16818 10.0896 5.90625 10.0896C 2.64432 10.0896 0 7.83093 0 5.04478C 0 2.25862 2.64432 0 5.90625 0C 9.16818 0 11.8125 2.25862 11.8125 5.04478Z"/>
<path id="path8_fill" d="M 0 0L 14 0L 14 15.9104L 0 15.9104L 0 0Z"/>
<path id="path9_fill" d="M 29.5879 14.5176L 29.8613 16.3926L 30.2617 14.7031L 33.0742 4.78125L 34.6562 4.78125L 37.4004 14.7031L 37.791 16.4219L 38.0938 14.5078L 40.3008 4.78125L 42.1855 4.78125L 38.7383 19L 37.0293 19L 34.0996 8.63867L 33.875 7.55469L 33.6504 8.63867L 30.6133 19L 28.9043 19L 25.4668 4.78125L 27.3418 4.78125L 29.5879 14.5176ZM 48.0645 19.1953C 46.6322 19.1953 45.4668 18.7266 44.5684 17.7891C 43.6699 16.8451 43.2207 15.5853 43.2207 14.0098L 43.2207 13.6777C 43.2207 12.6296 43.4193 11.6953 43.8164 10.875C 44.2201 10.0482 44.7799 9.40365 45.4961 8.94141C 46.2188 8.47266 47 8.23828 47.8398 8.23828C 49.2135 8.23828 50.2812 8.69076 51.043 9.5957C 51.8047 10.5007 52.1855 11.7962 52.1855 13.4824L 52.1855 14.2344L 45.0273 14.2344C 45.0534 15.276 45.3561 16.1191 45.9355 16.7637C 46.5215 17.4017 47.2637 17.7207 48.1621 17.7207C 48.8001 17.7207 49.3405 17.5905 49.7832 17.3301C 50.2259 17.0697 50.6133 16.7246 50.9453 16.2949L 52.0488 17.1543C 51.1634 18.515 49.8353 19.1953 48.0645 19.1953ZM 47.8398 9.72266C 47.1107 9.72266 46.4987 9.98958 46.0039 10.5234C 45.5091 11.0508 45.2031 11.793 45.0859 12.75L 50.3789 12.75L 50.3789 12.6133C 50.3268 11.6953 50.0794 10.9857 49.6367 10.4844C 49.194 9.97656 48.5951 9.72266 47.8398 9.72266ZM 60.9551 8.43359L 61.0137 9.76172C 61.821 8.74609 62.8757 8.23828 64.1777 8.23828C 66.4108 8.23828 67.5371 9.49805 67.5566 12.0176L 67.5566 19L 65.75 19L 65.75 12.0078C 65.7435 11.2461 65.5677 10.6829 65.2227 10.3184C 64.8841 9.95378 64.3535 9.77148 63.6309 9.77148C 63.0449 9.77148 62.5306 9.92773 62.0879 10.2402C 61.6452 10.5527 61.3001 10.9629 61.0527 11.4707L 61.0527 19L 59.2461 19L 59.2461 8.43359L 60.9551 8.43359ZM 74.666 19.1953C 73.2337 19.1953 72.0684 18.7266 71.1699 17.7891C 70.2715 16.8451 69.8223 15.5853 69.8223 14.0098L 69.8223 13.6777C 69.8223 12.6296 70.0208 11.6953 70.418 10.875C 70.8216 10.0482 71.3815 9.40365 72.0977 8.94141C 72.8203 8.47266 73.6016 8.23828 74.4414 8.23828C 75.8151 8.23828 76.8828 8.69076 77.6445 9.5957C 78.4062 10.5007 78.7871 11.7962 78.7871 13.4824L 78.7871 14.2344L 71.6289 14.2344C 71.6549 15.276 71.9577 16.1191 72.5371 16.7637C 73.123 17.4017 73.8652 17.7207 74.7637 17.7207C 75.4017 17.7207 75.9421 17.5905 76.3848 17.3301C 76.8275 17.0697 77.2148 16.7246 77.5469 16.2949L 78.6504 17.1543C 77.765 18.515 76.4368 19.1953 74.666 19.1953ZM 74.4414 9.72266C 73.7122 9.72266 73.1003 9.98958 72.6055 10.5234C 72.1107 11.0508 71.8047 11.793 71.6875 12.75L 76.9805 12.75L 76.9805 12.6133C 76.9284 11.6953 76.681 10.9857 76.2383 10.4844C 75.7956 9.97656 75.1966 9.72266 74.4414 9.72266ZM 85.2715 19.1953C 83.8392 19.1953 82.6738 18.7266 81.7754 17.7891C 80.877 16.8451 80.4277 15.5853 80.4277 14.0098L 80.4277 13.6777C 80.4277 12.6296 80.6263 11.6953 81.0234 10.875C 81.4271 10.0482 81.987 9.40365 82.7031 8.94141C 83.4258 8.47266 84.207 8.23828 85.0469 8.23828C 86.4206 8.23828 87.4883 8.69076 88.25 9.5957C 89.0117 10.5007 89.3926 11.7962 89.3926 13.4824L 89.3926 14.2344L 82.2344 14.2344C 82.2604 15.276 82.5632 16.1191 83.1426 16.7637C 83.7285 17.4017 84.4707 17.7207 85.3691 17.7207C 86.0072 17.7207 86.5475 17.5905 86.9902 17.3301C 87.4329 17.0697 87.8203 16.7246 88.1523 16.2949L 89.2559 17.1543C 88.3704 18.515 87.0423 19.1953 85.2715 19.1953ZM 85.0469 9.72266C 84.3177 9.72266 83.7057 9.98958 83.2109 10.5234C 82.7161 11.0508 82.4102 11.793 82.293 12.75L 87.5859 12.75L 87.5859 12.6133C 87.5339 11.6953 87.2865 10.9857 86.8438 10.4844C 86.401 9.97656 85.8021 9.72266 85.0469 9.72266ZM 91.0527 13.6289C 91.0527 12.0078 91.4368 10.7057 92.2051 9.72266C 92.9733 8.73307 93.9792 8.23828 95.2227 8.23828C 96.4596 8.23828 97.4395 8.66146 98.1621 9.50781L 98.1621 4L 99.9688 4L 99.9688 19L 98.3086 19L 98.2207 17.8672C 97.498 18.7526 96.4922 19.1953 95.2031 19.1953C 93.9792 19.1953 92.9798 18.694 92.2051 17.6914C 91.4368 16.6888 91.0527 15.3802 91.0527 13.7656L 91.0527 13.6289ZM 92.8594 13.834C 92.8594 15.0319 93.1068 15.9694 93.6016 16.6465C 94.0964 17.3236 94.7799 17.6621 95.6523 17.6621C 96.7982 17.6621 97.6348 17.1478 98.1621 16.1191L 98.1621 11.2656C 97.6217 10.2695 96.7917 9.77148 95.6719 9.77148C 94.7865 9.77148 94.0964 10.1133 93.6016 10.7969C 93.1068 11.4805 92.8594 12.4928 92.8594 13.834ZM 110.193 5.875L 110.193 8.43359L 112.166 8.43359L 112.166 9.83008L 110.193 9.83008L 110.193 16.3828C 110.193 16.806 110.281 17.125 110.457 17.3398C 110.633 17.5482 110.932 17.6523 111.355 17.6523C 111.564 17.6523 111.85 17.6133 112.215 17.5352L 112.215 19C 111.74 19.1302 111.277 19.1953 110.828 19.1953C 110.021 19.1953 109.412 18.9512 109.002 18.4629C 108.592 17.9746 108.387 17.2812 108.387 16.3828L 108.387 9.83008L 106.463 9.83008L 106.463 8.43359L 108.387 8.43359L 108.387 5.875L 110.193 5.875ZM 113.611 13.6191C 113.611 12.584 113.813 11.653 114.217 10.8262C 114.627 9.99935 115.193 9.36133 115.916 8.91211C 116.645 8.46289 117.475 8.23828 118.406 8.23828C 119.845 8.23828 121.007 8.73633 121.893 9.73242C 122.785 10.7285 123.23 12.0534 123.23 13.707L 123.23 13.834C 123.23 14.8626 123.032 15.7871 122.635 16.6074C 122.244 17.4212 121.681 18.056 120.945 18.5117C 120.216 18.9674 119.376 19.1953 118.426 19.1953C 116.993 19.1953 115.831 18.6973 114.939 17.7012C 114.054 16.7051 113.611 15.3867 113.611 13.7461L 113.611 13.6191ZM 115.428 13.834C 115.428 15.0059 115.698 15.9466 116.238 16.6562C 116.785 17.3659 117.514 17.7207 118.426 17.7207C 119.344 17.7207 120.073 17.3626 120.613 16.6465C 121.154 15.9238 121.424 14.9147 121.424 13.6191C 121.424 12.4603 121.147 11.5228 120.594 10.8066C 120.047 10.084 119.318 9.72266 118.406 9.72266C 117.514 9.72266 116.795 10.0775 116.248 10.7871C 115.701 11.4967 115.428 12.5124 115.428 13.834ZM 4.38281 42L 1.55078 42L 1.55078 27L 4.38281 27L 4.38281 42ZM 11.5801 42.1953C 10.0306 42.1953 8.76758 41.7201 7.79102 40.7695C 6.82096 39.819 6.33594 38.5527 6.33594 36.9707L 6.33594 36.6973C 6.33594 35.6361 6.54102 34.6888 6.95117 33.8555C 7.36133 33.0156 7.94076 32.3711 8.68945 31.9219C 9.44466 31.4661 10.304 31.2383 11.2676 31.2383C 12.7129 31.2383 13.849 31.694 14.6758 32.6055C 15.5091 33.5169 15.9258 34.8092 15.9258 36.4824L 15.9258 37.6348L 9.19727 37.6348C 9.28841 38.3249 9.56185 38.8783 10.0176 39.2949C 10.4798 39.7116 11.0625 39.9199 11.7656 39.9199C 12.8529 39.9199 13.7025 39.526 14.3145 38.7383L 15.7012 40.291C 15.278 40.89 14.7051 41.3587 13.9824 41.6973C 13.2598 42.0293 12.459 42.1953 11.5801 42.1953ZM 11.2578 33.5234C 10.6979 33.5234 10.2422 33.7122 9.89062 34.0898C 9.54557 34.4674 9.32422 35.0078 9.22656 35.7109L 13.1523 35.7109L 13.1523 35.4863C 13.1393 34.8613 12.9701 34.3796 12.6445 34.041C 12.319 33.696 11.8568 33.5234 11.2578 33.5234ZM 23.6602 42C 23.5299 41.7461 23.4355 41.4303 23.377 41.0527C 22.6934 41.8145 21.8047 42.1953 20.7109 42.1953C 19.6758 42.1953 18.8164 41.8958 18.1328 41.2969C 17.4557 40.6979 17.1172 39.9427 17.1172 39.0312C 17.1172 37.9115 17.5306 37.0521 18.3574 36.4531C 19.1908 35.8542 20.3919 35.5514 21.9609 35.5449L 23.2598 35.5449L 23.2598 34.9395C 23.2598 34.4512 23.1328 34.0605 22.8789 33.7676C 22.6315 33.4746 22.2376 33.3281 21.6973 33.3281C 21.222 33.3281 20.8477 33.4421 20.5742 33.6699C 20.3073 33.8978 20.1738 34.2103 20.1738 34.6074L 17.3516 34.6074C 17.3516 33.9954 17.5404 33.429 17.918 32.9082C 18.2956 32.3874 18.8294 31.9805 19.5195 31.6875C 20.2096 31.388 20.9844 31.2383 21.8438 31.2383C 23.1458 31.2383 24.1777 31.5671 24.9395 32.2246C 25.7077 32.8757 26.0918 33.7936 26.0918 34.9785L 26.0918 39.5586C 26.0983 40.5612 26.2383 41.3197 26.5117 41.834L 26.5117 42L 23.6602 42ZM 21.3262 40.0371C 21.7428 40.0371 22.127 39.946 22.4785 39.7637C 22.8301 39.5749 23.0905 39.3242 23.2598 39.0117L 23.2598 37.1953L 22.2051 37.1953C 20.7923 37.1953 20.0404 37.6836 19.9492 38.6602L 19.9395 38.8262C 19.9395 39.1777 20.0632 39.4674 20.3105 39.6953C 20.5579 39.9232 20.8965 40.0371 21.3262 40.0371ZM 34.1973 34.0801C 33.8132 34.028 33.4746 34.002 33.1816 34.002C 32.1139 34.002 31.4141 34.3633 31.082 35.0859L 31.082 42L 28.2598 42L 28.2598 31.4336L 30.9258 31.4336L 31.0039 32.6934C 31.5703 31.7233 32.3548 31.2383 33.3574 31.2383C 33.6699 31.2383 33.9629 31.2806 34.2363 31.3652L 34.1973 34.0801ZM 38.1621 31.4336L 38.25 32.6543C 39.0052 31.7103 40.0176 31.2383 41.2871 31.2383C 42.4069 31.2383 43.2402 31.5671 43.7871 32.2246C 44.334 32.8822 44.6139 33.8652 44.627 35.1738L 44.627 42L 41.8047 42L 41.8047 35.2422C 41.8047 34.6432 41.6745 34.2103 41.4141 33.9434C 41.1536 33.6699 40.7207 33.5332 40.1152 33.5332C 39.321 33.5332 38.7253 33.8717 38.3281 34.5488L 38.3281 42L 35.5059 42L 35.5059 31.4336L 38.1621 31.4336ZM 54.4707 28.875L 54.4707 31.4336L 56.4434 31.4336L 56.4434 32.8301L 54.4707 32.8301L 54.4707 39.3828C 54.4707 39.806 54.5586 40.125 54.7344 40.3398C 54.9102 40.5482 55.2096 40.6523 55.6328 40.6523C 55.8411 40.6523 56.1276 40.6133 56.4922 40.5352L 56.4922 42C 56.0169 42.1302 55.5547 42.1953 55.1055 42.1953C 54.2982 42.1953 53.6895 41.9512 53.2793 41.4629C 52.8691 40.9746 52.6641 40.2812 52.6641 39.3828L 52.6641 32.8301L 50.7402 32.8301L 50.7402 31.4336L 52.6641 31.4336L 52.6641 28.875L 54.4707 28.875ZM 57.8887 36.6191C 57.8887 35.584 58.0905 34.653 58.4941 33.8262C 58.9043 32.9993 59.4707 32.3613 60.1934 31.9121C 60.9225 31.4629 61.7526 31.2383 62.6836 31.2383C 64.1224 31.2383 65.2845 31.7363 66.1699 32.7324C 67.0618 33.7285 67.5078 35.0534 67.5078 36.707L 67.5078 36.834C 67.5078 37.8626 67.3092 38.7871 66.9121 39.6074C 66.5215 40.4212 65.9583 41.056 65.2227 41.5117C 64.4935 41.9674 63.6536 42.1953 62.7031 42.1953C 61.2708 42.1953 60.1087 41.6973 59.2168 40.7012C 58.3314 39.7051 57.8887 38.3867 57.8887 36.7461L 57.8887 36.6191ZM 59.7051 36.834C 59.7051 38.0059 59.9753 38.9466 60.5156 39.6562C 61.0625 40.3659 61.7917 40.7207 62.7031 40.7207C 63.6211 40.7207 64.3503 40.3626 64.8906 39.6465C 65.431 38.9238 65.7012 37.9147 65.7012 36.6191C 65.7012 35.4603 65.4245 34.5228 64.8711 33.8066C 64.3242 33.084 63.5951 32.7227 62.6836 32.7227C 61.7917 32.7227 61.0723 33.0775 60.5254 33.7871C 59.9785 34.4967 59.7051 35.5124 59.7051 36.834ZM 81.2578 40.9551C 80.5547 41.7819 79.5228 42.1953 78.1621 42.1953C 77.0358 42.1953 76.1764 41.8698 75.584 41.2188C 74.998 40.5612 74.7018 39.5911 74.6953 38.3086L 74.6953 31.4336L 76.502 31.4336L 76.502 38.2598C 76.502 39.8613 77.153 40.6621 78.4551 40.6621C 79.8353 40.6621 80.7533 40.1478 81.209 39.1191L 81.209 31.4336L 83.0156 31.4336L 83.0156 42L 81.2969 42L 81.2578 40.9551ZM 91.9219 39.1973C 91.9219 38.709 91.7363 38.3314 91.3652 38.0645C 91.0007 37.791 90.3594 37.5566 89.4414 37.3613C 88.5299 37.166 87.804 36.9316 87.2637 36.6582C 86.7298 36.3848 86.3327 36.0592 86.0723 35.6816C 85.8184 35.304 85.6914 34.8548 85.6914 34.334C 85.6914 33.4681 86.056 32.7357 86.7852 32.1367C 87.5208 31.5378 88.4583 31.2383 89.5977 31.2383C 90.7956 31.2383 91.7656 31.5475 92.5078 32.166C 93.2565 32.7845 93.6309 33.5755 93.6309 34.5391L 91.8145 34.5391C 91.8145 34.0443 91.6029 33.6178 91.1797 33.2598C 90.763 32.9017 90.2357 32.7227 89.5977 32.7227C 88.9401 32.7227 88.4258 32.8659 88.0547 33.1523C 87.6836 33.4388 87.498 33.8132 87.498 34.2754C 87.498 34.7116 87.6706 35.0404 88.0156 35.2617C 88.3607 35.4831 88.9824 35.6947 89.8809 35.8965C 90.7858 36.0983 91.5182 36.3392 92.0781 36.6191C 92.638 36.8991 93.0514 37.2376 93.3184 37.6348C 93.5918 38.0254 93.7285 38.5039 93.7285 39.0703C 93.7285 40.0143 93.3509 40.7728 92.5957 41.3457C 91.8405 41.9121 90.8607 42.1953 89.6562 42.1953C 88.8099 42.1953 88.0612 42.0456 87.4102 41.7461C 86.7591 41.4466 86.248 41.0299 85.877 40.4961C 85.5124 39.9557 85.3301 39.373 85.3301 38.748L 87.1367 38.748C 87.1693 39.3535 87.4102 39.8353 87.8594 40.1934C 88.3151 40.5449 88.9141 40.7207 89.6562 40.7207C 90.3398 40.7207 90.8867 40.584 91.2969 40.3105C 91.7135 40.0306 91.9219 39.6595 91.9219 39.1973ZM 100.467 42.1953C 99.0345 42.1953 97.8691 41.7266 96.9707 40.7891C 96.0723 39.8451 95.623 38.5853 95.623 37.0098L 95.623 36.6777C 95.623 35.6296 95.8216 34.6953 96.2188 33.875C 96.6224 33.0482 97.1823 32.4036 97.8984 31.9414C 98.6211 31.4727 99.4023 31.2383 100.242 31.2383C 101.616 31.2383 102.684 31.6908 103.445 32.5957C 104.207 33.5007 104.588 34.7962 104.588 36.4824L 104.588 37.2344L 97.4297 37.2344C 97.4557 38.276 97.7585 39.1191 98.3379 39.7637C 98.9238 40.4017 99.666 40.7207 100.564 40.7207C 101.202 40.7207 101.743 40.5905 102.186 40.3301C 102.628 40.0697 103.016 39.7246 103.348 39.2949L 104.451 40.1543C 103.566 41.515 102.238 42.1953 100.467 42.1953ZM 100.242 32.7227C 99.513 32.7227 98.901 32.9896 98.4062 33.5234C 97.9115 34.0508 97.6055 34.793 97.4883 35.75L 102.781 35.75L 102.781 35.6133C 102.729 34.6953 102.482 33.9857 102.039 33.4844C 101.596 32.9766 100.997 32.7227 100.242 32.7227ZM 114.744 28.8359L 114.744 31.4336L 116.551 31.4336L 116.551 33.5039L 114.744 33.5039L 114.744 38.7773C 114.744 39.168 114.819 39.4479 114.969 39.6172C 115.118 39.7865 115.405 39.8711 115.828 39.8711C 116.141 39.8711 116.417 39.8483 116.658 39.8027L 116.658 41.9414C 116.105 42.1107 115.535 42.1953 114.949 42.1953C 112.97 42.1953 111.961 41.196 111.922 39.1973L 111.922 33.5039L 110.379 33.5039L 110.379 31.4336L 111.922 31.4336L 111.922 28.8359L 114.744 28.8359ZM 120.877 32.5859C 121.626 31.6875 122.566 31.2383 123.699 31.2383C 125.991 31.2383 127.153 32.5697 127.186 35.2324L 127.186 42L 124.363 42L 124.363 35.3105C 124.363 34.7051 124.233 34.2591 123.973 33.9727C 123.712 33.6797 123.279 33.5332 122.674 33.5332C 121.847 33.5332 121.248 33.8522 120.877 34.4902L 120.877 42L 118.055 42L 118.055 27L 120.877 27L 120.877 32.5859ZM 132.293 42L 129.461 42L 129.461 31.4336L 132.293 31.4336L 132.293 42ZM 129.295 28.6992C 129.295 28.276 129.435 27.9277 129.715 27.6543C 130.001 27.3809 130.389 27.2441 130.877 27.2441C 131.359 27.2441 131.743 27.3809 132.029 27.6543C 132.316 27.9277 132.459 28.276 132.459 28.6992C 132.459 29.1289 132.312 29.4805 132.02 29.7539C 131.733 30.0273 131.352 30.1641 130.877 30.1641C 130.402 30.1641 130.018 30.0273 129.725 29.7539C 129.438 29.4805 129.295 29.1289 129.295 28.6992ZM 140.35 39.0801C 140.35 38.735 140.177 38.4648 139.832 38.2695C 139.493 38.0677 138.947 37.8887 138.191 37.7324C 135.678 37.2051 134.422 36.1374 134.422 34.5293C 134.422 33.5918 134.809 32.8105 135.584 32.1855C 136.365 31.554 137.384 31.2383 138.641 31.2383C 139.982 31.2383 141.053 31.554 141.854 32.1855C 142.661 32.8171 143.064 33.6374 143.064 34.6465L 140.242 34.6465C 140.242 34.2428 140.112 33.9108 139.852 33.6504C 139.591 33.3835 139.184 33.25 138.631 33.25C 138.156 33.25 137.788 33.3574 137.527 33.5723C 137.267 33.7871 137.137 34.0605 137.137 34.3926C 137.137 34.7051 137.283 34.959 137.576 35.1543C 137.876 35.3431 138.377 35.5091 139.08 35.6523C 139.783 35.7891 140.376 35.9453 140.857 36.1211C 142.348 36.668 143.094 37.6152 143.094 38.9629C 143.094 39.9264 142.68 40.7077 141.854 41.3066C 141.027 41.8991 139.959 42.1953 138.65 42.1953C 137.765 42.1953 136.977 42.0391 136.287 41.7266C 135.604 41.4076 135.066 40.9746 134.676 40.4277C 134.285 39.8743 134.09 39.2786 134.09 38.6406L 136.766 38.6406C 136.792 39.1419 136.977 39.526 137.322 39.793C 137.667 40.0599 138.13 40.1934 138.709 40.1934C 139.249 40.1934 139.656 40.0924 139.93 39.8906C 140.21 39.6823 140.35 39.4121 140.35 39.0801ZM 145.145 41.0527C 145.145 40.7402 145.236 40.4798 145.418 40.2715C 145.607 40.0632 145.887 39.959 146.258 39.959C 146.629 39.959 146.909 40.0632 147.098 40.2715C 147.293 40.4798 147.391 40.7402 147.391 41.0527C 147.391 41.3522 147.293 41.6029 147.098 41.8047C 146.909 42.0065 146.629 42.1074 146.258 42.1074C 145.887 42.1074 145.607 42.0065 145.418 41.8047C 145.236 41.6029 145.145 41.3522 145.145 41.0527ZM 145.154 32.4297C 145.154 32.1172 145.245 31.8568 145.428 31.6484C 145.617 31.4401 145.896 31.3359 146.268 31.3359C 146.639 31.3359 146.919 31.4401 147.107 31.6484C 147.303 31.8568 147.4 32.1172 147.4 32.4297C 147.4 32.7292 147.303 32.9798 147.107 33.1816C 146.919 33.3835 146.639 33.4844 146.268 33.4844C 145.896 33.4844 145.617 33.3835 145.428 33.1816C 145.245 32.9798 145.154 32.7292 145.154 32.4297Z"/>
<path id="path10_fill" d="M 53.6367 5.875L 53.6367 8.43359L 55.6094 8.43359L 55.6094 9.83008L 53.6367 9.83008L 53.6367 16.3828C 53.6367 16.806 53.7246 17.125 53.9004 17.3398C 54.0762 17.5482 54.3757 17.6523 54.7988 17.6523C 55.0072 17.6523 55.2936 17.6133 55.6582 17.5352L 55.6582 19C 55.1829 19.1302 54.7207 19.1953 54.2715 19.1953C 53.4642 19.1953 52.8555 18.9512 52.4453 18.4629C 52.0352 17.9746 51.8301 17.2812 51.8301 16.3828L 51.8301 9.83008L 49.9062 9.83008L 49.9062 8.43359L 51.8301 8.43359L 51.8301 5.875L 53.6367 5.875ZM 57.0547 13.6191C 57.0547 12.584 57.2565 11.653 57.6602 10.8262C 58.0703 9.99935 58.6367 9.36133 59.3594 8.91211C 60.0885 8.46289 60.9186 8.23828 61.8496 8.23828C 63.2884 8.23828 64.4505 8.73633 65.3359 9.73242C 66.2279 10.7285 66.6738 12.0534 66.6738 13.707L 66.6738 13.834C 66.6738 14.8626 66.4753 15.7871 66.0781 16.6074C 65.6875 17.4212 65.1243 18.056 64.3887 18.5117C 63.6595 18.9674 62.8197 19.1953 61.8691 19.1953C 60.4368 19.1953 59.2747 18.6973 58.3828 17.7012C 57.4974 16.7051 57.0547 15.3867 57.0547 13.7461L 57.0547 13.6191ZM 58.8711 13.834C 58.8711 15.0059 59.1413 15.9466 59.6816 16.6562C 60.2285 17.3659 60.9577 17.7207 61.8691 17.7207C 62.7871 17.7207 63.5163 17.3626 64.0566 16.6465C 64.597 15.9238 64.8672 14.9147 64.8672 13.6191C 64.8672 12.4603 64.5905 11.5228 64.0371 10.8066C 63.4902 10.084 62.7611 9.72266 61.8496 9.72266C 60.9577 9.72266 60.2383 10.0775 59.6914 10.7871C 59.1445 11.4967 58.8711 12.5124 58.8711 13.834ZM 80.4238 19C 80.3197 18.7917 80.235 18.4206 80.1699 17.8867C 79.3301 18.7591 78.3275 19.1953 77.1621 19.1953C 76.1204 19.1953 75.2643 18.9023 74.5938 18.3164C 73.9297 17.724 73.5977 16.9753 73.5977 16.0703C 73.5977 14.9701 74.0143 14.1172 74.8477 13.5117C 75.6875 12.8997 76.8659 12.5938 78.3828 12.5938L 80.1406 12.5938L 80.1406 11.7637C 80.1406 11.1322 79.9518 10.6309 79.5742 10.2598C 79.1966 9.88216 78.64 9.69336 77.9043 9.69336C 77.2598 9.69336 76.7194 9.85612 76.2832 10.1816C 75.847 10.5072 75.6289 10.901 75.6289 11.3633L 73.8125 11.3633C 73.8125 10.8359 73.998 10.3281 74.3691 9.83984C 74.7467 9.34505 75.2546 8.95443 75.8926 8.66797C 76.5371 8.38151 77.2435 8.23828 78.0117 8.23828C 79.2292 8.23828 80.1829 8.54427 80.873 9.15625C 81.5632 9.76172 81.9212 10.5983 81.9473 11.666L 81.9473 16.5293C 81.9473 17.4993 82.071 18.2708 82.3184 18.8438L 82.3184 19L 80.4238 19ZM 77.4258 17.623C 77.9922 17.623 78.5293 17.4766 79.0371 17.1836C 79.5449 16.8906 79.9128 16.5098 80.1406 16.041L 80.1406 13.873L 78.7246 13.873C 76.5111 13.873 75.4043 14.5208 75.4043 15.8164C 75.4043 16.3828 75.5931 16.8255 75.9707 17.1445C 76.3483 17.4635 76.8333 17.623 77.4258 17.623ZM 86.4883 8.43359L 86.5469 9.76172C 87.3542 8.74609 88.4089 8.23828 89.7109 8.23828C 91.944 8.23828 93.0703 9.49805 93.0898 12.0176L 93.0898 19L 91.2832 19L 91.2832 12.0078C 91.2767 11.2461 91.1009 10.6829 90.7559 10.3184C 90.4173 9.95378 89.8867 9.77148 89.1641 9.77148C 88.5781 9.77148 88.0638 9.92773 87.6211 10.2402C 87.1784 10.5527 86.8333 10.9629 86.5859 11.4707L 86.5859 19L 84.7793 19L 84.7793 8.43359L 86.4883 8.43359ZM 101.967 16.1973C 101.967 15.709 101.781 15.3314 101.41 15.0645C 101.046 14.791 100.404 14.5566 99.4863 14.3613C 98.5749 14.166 97.849 13.9316 97.3086 13.6582C 96.7747 13.3848 96.3776 13.0592 96.1172 12.6816C 95.8633 12.304 95.7363 11.8548 95.7363 11.334C 95.7363 10.4681 96.1009 9.73568 96.8301 9.13672C 97.5658 8.53776 98.5033 8.23828 99.6426 8.23828C 100.84 8.23828 101.811 8.54753 102.553 9.16602C 103.301 9.78451 103.676 10.5755 103.676 11.5391L 101.859 11.5391C 101.859 11.0443 101.648 10.6178 101.225 10.2598C 100.808 9.90169 100.281 9.72266 99.6426 9.72266C 98.985 9.72266 98.4707 9.86589 98.0996 10.1523C 97.7285 10.4388 97.543 10.8132 97.543 11.2754C 97.543 11.7116 97.7155 12.0404 98.0605 12.2617C 98.4056 12.4831 99.0273 12.6947 99.9258 12.8965C 100.831 13.0983 101.563 13.3392 102.123 13.6191C 102.683 13.8991 103.096 14.2376 103.363 14.6348C 103.637 15.0254 103.773 15.5039 103.773 16.0703C 103.773 17.0143 103.396 17.7728 102.641 18.3457C 101.885 18.9121 100.906 19.1953 99.7012 19.1953C 98.8548 19.1953 98.1061 19.0456 97.4551 18.7461C 96.804 18.4466 96.293 18.0299 95.9219 17.4961C 95.5573 16.9557 95.375 16.373 95.375 15.748L 97.1816 15.748C 97.2142 16.3535 97.4551 16.8353 97.9043 17.1934C 98.36 17.5449 98.959 17.7207 99.7012 17.7207C 100.385 17.7207 100.932 17.584 101.342 17.3105C 101.758 17.0306 101.967 16.6595 101.967 16.1973ZM 115.482 16.5098L 117.514 8.43359L 119.32 8.43359L 116.244 19L 114.779 19L 112.211 10.9922L 109.711 19L 108.246 19L 105.18 8.43359L 106.977 8.43359L 109.057 16.3438L 111.518 8.43359L 112.973 8.43359L 115.482 16.5098ZM 125.551 19.1953C 124.118 19.1953 122.953 18.7266 122.055 17.7891C 121.156 16.8451 120.707 15.5853 120.707 14.0098L 120.707 13.6777C 120.707 12.6296 120.906 11.6953 121.303 10.875C 121.706 10.0482 122.266 9.40365 122.982 8.94141C 123.705 8.47266 124.486 8.23828 125.326 8.23828C 126.7 8.23828 127.768 8.69076 128.529 9.5957C 129.291 10.5007 129.672 11.7962 129.672 13.4824L 129.672 14.2344L 122.514 14.2344C 122.54 15.276 122.842 16.1191 123.422 16.7637C 124.008 17.4017 124.75 17.7207 125.648 17.7207C 126.286 17.7207 126.827 17.5905 127.27 17.3301C 127.712 17.0697 128.1 16.7246 128.432 16.2949L 129.535 17.1543C 128.65 18.515 127.322 19.1953 125.551 19.1953ZM 125.326 9.72266C 124.597 9.72266 123.985 9.98958 123.49 10.5234C 122.995 11.0508 122.689 11.793 122.572 12.75L 127.865 12.75L 127.865 12.6133C 127.813 11.6953 127.566 10.9857 127.123 10.4844C 126.68 9.97656 126.081 9.72266 125.326 9.72266ZM 136.879 10.0547C 136.605 10.0091 136.309 9.98633 135.99 9.98633C 134.805 9.98633 134.001 10.4909 133.578 11.5L 133.578 19L 131.771 19L 131.771 8.43359L 133.529 8.43359L 133.559 9.6543C 134.151 8.71029 134.991 8.23828 136.078 8.23828C 136.43 8.23828 136.697 8.28385 136.879 8.375L 136.879 10.0547ZM 0.980469 36.6289C 0.980469 34.9688 1.36133 33.6569 2.12305 32.6934C 2.88477 31.7233 3.9069 31.2383 5.18945 31.2383C 6.43945 31.2383 7.42578 31.6582 8.14844 32.498L 8.22656 31.4336L 9.88672 31.4336L 9.88672 46.0625L 8.08008 46.0625L 8.08008 41.0234C 7.35091 41.8047 6.38086 42.1953 5.16992 42.1953C 3.89388 42.1953 2.875 41.7005 2.11328 40.7109C 1.35807 39.7148 0.980469 38.3965 0.980469 36.7559L 0.980469 36.6289ZM 2.78711 36.834C 2.78711 38.0449 3.04102 38.9954 3.54883 39.6855C 4.06315 40.3757 4.75326 40.7207 5.61914 40.7207C 6.69336 40.7207 7.51367 40.2454 8.08008 39.2949L 8.08008 34.1191C 7.50716 33.1882 6.69336 32.7227 5.63867 32.7227C 4.76628 32.7227 4.07292 33.071 3.55859 33.7676C 3.04427 34.4577 2.78711 35.4798 2.78711 36.834ZM 19.3105 40.9551C 18.6074 41.7819 17.5755 42.1953 16.2148 42.1953C 15.0885 42.1953 14.2292 41.8698 13.6367 41.2188C 13.0508 40.5612 12.7546 39.5911 12.748 38.3086L 12.748 31.4336L 14.5547 31.4336L 14.5547 38.2598C 14.5547 39.8613 15.2057 40.6621 16.5078 40.6621C 17.888 40.6621 18.806 40.1478 19.2617 39.1191L 19.2617 31.4336L 21.0684 31.4336L 21.0684 42L 19.3496 42L 19.3105 40.9551ZM 28.207 42.1953C 26.7747 42.1953 25.6094 41.7266 24.7109 40.7891C 23.8125 39.8451 23.3633 38.5853 23.3633 37.0098L 23.3633 36.6777C 23.3633 35.6296 23.5618 34.6953 23.959 33.875C 24.3626 33.0482 24.9225 32.4036 25.6387 31.9414C 26.3613 31.4727 27.1426 31.2383 27.9824 31.2383C 29.3561 31.2383 30.4238 31.6908 31.1855 32.5957C 31.9473 33.5007 32.3281 34.7962 32.3281 36.4824L 32.3281 37.2344L 25.1699 37.2344C 25.196 38.276 25.4987 39.1191 26.0781 39.7637C 26.6641 40.4017 27.4062 40.7207 28.3047 40.7207C 28.9427 40.7207 29.4831 40.5905 29.9258 40.3301C 30.3685 40.0697 30.7559 39.7246 31.0879 39.2949L 32.1914 40.1543C 31.306 41.515 29.9779 42.1953 28.207 42.1953ZM 27.9824 32.7227C 27.2533 32.7227 26.6413 32.9896 26.1465 33.5234C 25.6517 34.0508 25.3457 34.793 25.2285 35.75L 30.5215 35.75L 30.5215 35.6133C 30.4694 34.6953 30.222 33.9857 29.7793 33.4844C 29.3366 32.9766 28.7376 32.7227 27.9824 32.7227ZM 40.5801 39.1973C 40.5801 38.709 40.3945 38.3314 40.0234 38.0645C 39.6589 37.791 39.0176 37.5566 38.0996 37.3613C 37.1882 37.166 36.4622 36.9316 35.9219 36.6582C 35.388 36.3848 34.9909 36.0592 34.7305 35.6816C 34.4766 35.304 34.3496 34.8548 34.3496 34.334C 34.3496 33.4681 34.7142 32.7357 35.4434 32.1367C 36.179 31.5378 37.1165 31.2383 38.2559 31.2383C 39.4538 31.2383 40.4238 31.5475 41.166 32.166C 41.9147 32.7845 42.2891 33.5755 42.2891 34.5391L 40.4727 34.5391C 40.4727 34.0443 40.2611 33.6178 39.8379 33.2598C 39.4212 32.9017 38.8939 32.7227 38.2559 32.7227C 37.5983 32.7227 37.084 32.8659 36.7129 33.1523C 36.3418 33.4388 36.1562 33.8132 36.1562 34.2754C 36.1562 34.7116 36.3288 35.0404 36.6738 35.2617C 37.0189 35.4831 37.6406 35.6947 38.5391 35.8965C 39.444 36.0983 40.1764 36.3392 40.7363 36.6191C 41.2962 36.8991 41.7096 37.2376 41.9766 37.6348C 42.25 38.0254 42.3867 38.5039 42.3867 39.0703C 42.3867 40.0143 42.0091 40.7728 41.2539 41.3457C 40.4987 41.9121 39.5189 42.1953 38.3145 42.1953C 37.4681 42.1953 36.7194 42.0456 36.0684 41.7461C 35.4173 41.4466 34.9062 41.0299 34.5352 40.4961C 34.1706 39.9557 33.9883 39.373 33.9883 38.748L 35.7949 38.748C 35.8275 39.3535 36.0684 39.8353 36.5176 40.1934C 36.9733 40.5449 37.5723 40.7207 38.3145 40.7207C 38.998 40.7207 39.5449 40.584 39.9551 40.3105C 40.3717 40.0306 40.5801 39.6595 40.5801 39.1973ZM 47.1914 28.875L 47.1914 31.4336L 49.1641 31.4336L 49.1641 32.8301L 47.1914 32.8301L 47.1914 39.3828C 47.1914 39.806 47.2793 40.125 47.4551 40.3398C 47.6309 40.5482 47.9303 40.6523 48.3535 40.6523C 48.5618 40.6523 48.8483 40.6133 49.2129 40.5352L 49.2129 42C 48.7376 42.1302 48.2754 42.1953 47.8262 42.1953C 47.0189 42.1953 46.4102 41.9512 46 41.4629C 45.5898 40.9746 45.3848 40.2812 45.3848 39.3828L 45.3848 32.8301L 43.4609 32.8301L 43.4609 31.4336L 45.3848 31.4336L 45.3848 28.875L 47.1914 28.875ZM 53.2461 42L 51.4395 42L 51.4395 31.4336L 53.2461 31.4336L 53.2461 42ZM 51.293 28.6309C 51.293 28.3379 51.3809 28.0905 51.5566 27.8887C 51.7389 27.6868 52.0059 27.5859 52.3574 27.5859C 52.709 27.5859 52.9759 27.6868 53.1582 27.8887C 53.3405 28.0905 53.4316 28.3379 53.4316 28.6309C 53.4316 28.9238 53.3405 29.168 53.1582 29.3633C 52.9759 29.5586 52.709 29.6562 52.3574 29.6562C 52.0059 29.6562 51.7389 29.5586 51.5566 29.3633C 51.3809 29.168 51.293 28.9238 51.293 28.6309ZM 55.668 36.6191C 55.668 35.584 55.8698 34.653 56.2734 33.8262C 56.6836 32.9993 57.25 32.3613 57.9727 31.9121C 58.7018 31.4629 59.5319 31.2383 60.4629 31.2383C 61.9017 31.2383 63.0638 31.7363 63.9492 32.7324C 64.8411 33.7285 65.2871 35.0534 65.2871 36.707L 65.2871 36.834C 65.2871 37.8626 65.0885 38.7871 64.6914 39.6074C 64.3008 40.4212 63.7376 41.056 63.002 41.5117C 62.2728 41.9674 61.4329 42.1953 60.4824 42.1953C 59.0501 42.1953 57.888 41.6973 56.9961 40.7012C 56.1107 39.7051 55.668 38.3867 55.668 36.7461L 55.668 36.6191ZM 57.4844 36.834C 57.4844 38.0059 57.7546 38.9466 58.2949 39.6562C 58.8418 40.3659 59.571 40.7207 60.4824 40.7207C 61.4004 40.7207 62.1296 40.3626 62.6699 39.6465C 63.2103 38.9238 63.4805 37.9147 63.4805 36.6191C 63.4805 35.4603 63.2038 34.5228 62.6504 33.8066C 62.1035 33.084 61.3743 32.7227 60.4629 32.7227C 59.571 32.7227 58.8516 33.0775 58.3047 33.7871C 57.7578 34.4967 57.4844 35.5124 57.4844 36.834ZM 69.2617 31.4336L 69.3203 32.7617C 70.1276 31.7461 71.1823 31.2383 72.4844 31.2383C 74.7174 31.2383 75.8438 32.498 75.8633 35.0176L 75.8633 42L 74.0566 42L 74.0566 35.0078C 74.0501 34.2461 73.8743 33.6829 73.5293 33.3184C 73.1908 32.9538 72.6602 32.7715 71.9375 32.7715C 71.3516 32.7715 70.8372 32.9277 70.3945 33.2402C 69.9518 33.5527 69.6068 33.9629 69.3594 34.4707L 69.3594 42L 67.5527 42L 67.5527 31.4336L 69.2617 31.4336ZM 84.7402 39.1973C 84.7402 38.709 84.5547 38.3314 84.1836 38.0645C 83.819 37.791 83.1777 37.5566 82.2598 37.3613C 81.3483 37.166 80.6224 36.9316 80.082 36.6582C 79.5482 36.3848 79.151 36.0592 78.8906 35.6816C 78.6367 35.304 78.5098 34.8548 78.5098 34.334C 78.5098 33.4681 78.8743 32.7357 79.6035 32.1367C 80.3392 31.5378 81.2767 31.2383 82.416 31.2383C 83.6139 31.2383 84.584 31.5475 85.3262 32.166C 86.0749 32.7845 86.4492 33.5755 86.4492 34.5391L 84.6328 34.5391C 84.6328 34.0443 84.4212 33.6178 83.998 33.2598C 83.5814 32.9017 83.054 32.7227 82.416 32.7227C 81.7585 32.7227 81.2441 32.8659 80.873 33.1523C 80.502 33.4388 80.3164 33.8132 80.3164 34.2754C 80.3164 34.7116 80.4889 35.0404 80.834 35.2617C 81.179 35.4831 81.8008 35.6947 82.6992 35.8965C 83.6042 36.0983 84.3366 36.3392 84.8965 36.6191C 85.4564 36.8991 85.8698 37.2376 86.1367 37.6348C 86.4102 38.0254 86.5469 38.5039 86.5469 39.0703C 86.5469 40.0143 86.1693 40.7728 85.4141 41.3457C 84.6589 41.9121 83.679 42.1953 82.4746 42.1953C 81.6283 42.1953 80.8796 42.0456 80.2285 41.7461C 79.5775 41.4466 79.0664 41.0299 78.6953 40.4961C 78.3307 39.9557 78.1484 39.373 78.1484 38.748L 79.9551 38.748C 79.9876 39.3535 80.2285 39.8353 80.6777 40.1934C 81.1335 40.5449 81.7324 40.7207 82.4746 40.7207C 83.1582 40.7207 83.7051 40.584 84.1152 40.3105C 84.5319 40.0306 84.7402 39.6595 84.7402 39.1973ZM 100.385 42C 100.281 41.7917 100.196 41.4206 100.131 40.8867C 99.291 41.7591 98.2884 42.1953 97.123 42.1953C 96.0814 42.1953 95.2253 41.9023 94.5547 41.3164C 93.8906 40.724 93.5586 39.9753 93.5586 39.0703C 93.5586 37.9701 93.9753 37.1172 94.8086 36.5117C 95.6484 35.8997 96.8268 35.5938 98.3438 35.5938L 100.102 35.5938L 100.102 34.7637C 100.102 34.1322 99.9128 33.6309 99.5352 33.2598C 99.1576 32.8822 98.6009 32.6934 97.8652 32.6934C 97.2207 32.6934 96.6803 32.8561 96.2441 33.1816C 95.8079 33.5072 95.5898 33.901 95.5898 34.3633L 93.7734 34.3633C 93.7734 33.8359 93.959 33.3281 94.3301 32.8398C 94.7077 32.3451 95.2155 31.9544 95.8535 31.668C 96.498 31.3815 97.2044 31.2383 97.9727 31.2383C 99.1901 31.2383 100.144 31.5443 100.834 32.1562C 101.524 32.7617 101.882 33.5983 101.908 34.666L 101.908 39.5293C 101.908 40.4993 102.032 41.2708 102.279 41.8438L 102.279 42L 100.385 42ZM 97.3867 40.623C 97.9531 40.623 98.4902 40.4766 98.998 40.1836C 99.5059 39.8906 99.8737 39.5098 100.102 39.041L 100.102 36.873L 98.6855 36.873C 96.472 36.873 95.3652 37.5208 95.3652 38.8164C 95.3652 39.3828 95.554 39.8255 95.9316 40.1445C 96.3092 40.4635 96.7943 40.623 97.3867 40.623ZM 113.686 36.834C 113.686 38.4486 113.314 39.7474 112.572 40.7305C 111.83 41.707 110.834 42.1953 109.584 42.1953C 108.249 42.1953 107.217 41.7233 106.488 40.7793L 106.4 42L 104.74 42L 104.74 27L 106.547 27L 106.547 32.5957C 107.276 31.6908 108.282 31.2383 109.564 31.2383C 110.847 31.2383 111.853 31.7233 112.582 32.6934C 113.318 33.6634 113.686 34.9915 113.686 36.6777L 113.686 36.834ZM 111.879 36.6289C 111.879 35.3984 111.641 34.4479 111.166 33.7773C 110.691 33.1068 110.007 32.7715 109.115 32.7715C 107.924 32.7715 107.068 33.3249 106.547 34.4316L 106.547 39.002C 107.1 40.1087 107.963 40.6621 109.135 40.6621C 110.001 40.6621 110.674 40.3268 111.156 39.6562C 111.638 38.9857 111.879 37.9766 111.879 36.6289ZM 115.492 36.6191C 115.492 35.584 115.694 34.653 116.098 33.8262C 116.508 32.9993 117.074 32.3613 117.797 31.9121C 118.526 31.4629 119.356 31.2383 120.287 31.2383C 121.726 31.2383 122.888 31.7363 123.773 32.7324C 124.665 33.7285 125.111 35.0534 125.111 36.707L 125.111 36.834C 125.111 37.8626 124.913 38.7871 124.516 39.6074C 124.125 40.4212 123.562 41.056 122.826 41.5117C 122.097 41.9674 121.257 42.1953 120.307 42.1953C 118.874 42.1953 117.712 41.6973 116.82 40.7012C 115.935 39.7051 115.492 38.3867 115.492 36.7461L 115.492 36.6191ZM 117.309 36.834C 117.309 38.0059 117.579 38.9466 118.119 39.6562C 118.666 40.3659 119.395 40.7207 120.307 40.7207C 121.225 40.7207 121.954 40.3626 122.494 39.6465C 123.035 38.9238 123.305 37.9147 123.305 36.6191C 123.305 35.4603 123.028 34.5228 122.475 33.8066C 121.928 33.084 121.199 32.7227 120.287 32.7227C 119.395 32.7227 118.676 33.0775 118.129 33.7871C 117.582 34.4967 117.309 35.5124 117.309 36.834ZM 133.9 40.9551C 133.197 41.7819 132.165 42.1953 130.805 42.1953C 129.678 42.1953 128.819 41.8698 128.227 41.2188C 127.641 40.5612 127.344 39.5911 127.338 38.3086L 127.338 31.4336L 129.145 31.4336L 129.145 38.2598C 129.145 39.8613 129.796 40.6621 131.098 40.6621C 132.478 40.6621 133.396 40.1478 133.852 39.1191L 133.852 31.4336L 135.658 31.4336L 135.658 42L 133.939 42L 133.9 40.9551ZM 140.863 28.875L 140.863 31.4336L 142.836 31.4336L 142.836 32.8301L 140.863 32.8301L 140.863 39.3828C 140.863 39.806 140.951 40.125 141.127 40.3398C 141.303 40.5482 141.602 40.6523 142.025 40.6523C 142.234 40.6523 142.52 40.6133 142.885 40.5352L 142.885 42C 142.41 42.1302 141.947 42.1953 141.498 42.1953C 140.691 42.1953 140.082 41.9512 139.672 41.4629C 139.262 40.9746 139.057 40.2812 139.057 39.3828L 139.057 32.8301L 137.133 32.8301L 137.133 31.4336L 139.057 31.4336L 139.057 28.875L 140.863 28.875ZM 153.012 28.8359L 153.012 31.4336L 154.818 31.4336L 154.818 33.5039L 153.012 33.5039L 153.012 38.7773C 153.012 39.168 153.087 39.4479 153.236 39.6172C 153.386 39.7865 153.673 39.8711 154.096 39.8711C 154.408 39.8711 154.685 39.8483 154.926 39.8027L 154.926 41.9414C 154.372 42.1107 153.803 42.1953 153.217 42.1953C 151.238 42.1953 150.229 41.196 150.189 39.1973L 150.189 33.5039L 148.646 33.5039L 148.646 31.4336L 150.189 31.4336L 150.189 28.8359L 153.012 28.8359ZM 159.145 32.5859C 159.893 31.6875 160.834 31.2383 161.967 31.2383C 164.258 31.2383 165.421 32.5697 165.453 35.2324L 165.453 42L 162.631 42L 162.631 35.3105C 162.631 34.7051 162.501 34.2591 162.24 33.9727C 161.98 33.6797 161.547 33.5332 160.941 33.5332C 160.115 33.5332 159.516 33.8522 159.145 34.4902L 159.145 42L 156.322 42L 156.322 27L 159.145 27L 159.145 32.5859ZM 170.561 42L 167.729 42L 167.729 31.4336L 170.561 31.4336L 170.561 42ZM 167.562 28.6992C 167.562 28.276 167.702 27.9277 167.982 27.6543C 168.269 27.3809 168.656 27.2441 169.145 27.2441C 169.626 27.2441 170.01 27.3809 170.297 27.6543C 170.583 27.9277 170.727 28.276 170.727 28.6992C 170.727 29.1289 170.58 29.4805 170.287 29.7539C 170.001 30.0273 169.62 30.1641 169.145 30.1641C 168.669 30.1641 168.285 30.0273 167.992 29.7539C 167.706 29.4805 167.562 29.1289 167.562 28.6992ZM 178.617 39.0801C 178.617 38.735 178.445 38.4648 178.1 38.2695C 177.761 38.0677 177.214 37.8887 176.459 37.7324C 173.946 37.2051 172.689 36.1374 172.689 34.5293C 172.689 33.5918 173.077 32.8105 173.852 32.1855C 174.633 31.554 175.652 31.2383 176.908 31.2383C 178.249 31.2383 179.32 31.554 180.121 32.1855C 180.928 32.8171 181.332 33.6374 181.332 34.6465L 178.51 34.6465C 178.51 34.2428 178.38 33.9108 178.119 33.6504C 177.859 33.3835 177.452 33.25 176.898 33.25C 176.423 33.25 176.055 33.3574 175.795 33.5723C 175.535 33.7871 175.404 34.0605 175.404 34.3926C 175.404 34.7051 175.551 34.959 175.844 35.1543C 176.143 35.3431 176.645 35.5091 177.348 35.6523C 178.051 35.7891 178.643 35.9453 179.125 36.1211C 180.616 36.668 181.361 37.6152 181.361 38.9629C 181.361 39.9264 180.948 40.7077 180.121 41.3066C 179.294 41.8991 178.227 42.1953 176.918 42.1953C 176.033 42.1953 175.245 42.0391 174.555 41.7266C 173.871 41.4076 173.334 40.9746 172.943 40.4277C 172.553 39.8743 172.357 39.2786 172.357 38.6406L 175.033 38.6406C 175.059 39.1419 175.245 39.526 175.59 39.793C 175.935 40.0599 176.397 40.1934 176.977 40.1934C 177.517 40.1934 177.924 40.0924 178.197 39.8906C 178.477 39.6823 178.617 39.4121 178.617 39.0801ZM 183.412 41.0527C 183.412 40.7402 183.503 40.4798 183.686 40.2715C 183.874 40.0632 184.154 39.959 184.525 39.959C 184.896 39.959 185.176 40.0632 185.365 40.2715C 185.561 40.4798 185.658 40.7402 185.658 41.0527C 185.658 41.3522 185.561 41.6029 185.365 41.8047C 185.176 42.0065 184.896 42.1074 184.525 42.1074C 184.154 42.1074 183.874 42.0065 183.686 41.8047C 183.503 41.6029 183.412 41.3522 183.412 41.0527ZM 183.422 32.4297C 183.422 32.1172 183.513 31.8568 183.695 31.6484C 183.884 31.4401 184.164 31.3359 184.535 31.3359C 184.906 31.3359 185.186 31.4401 185.375 31.6484C 185.57 31.8568 185.668 32.1172 185.668 32.4297C 185.668 32.7292 185.57 32.9798 185.375 33.1816C 185.186 33.3835 184.906 33.4844 184.535 33.4844C 184.164 33.4844 183.884 33.3835 183.695 33.1816C 183.513 32.9798 183.422 32.7292 183.422 32.4297Z"/>
</defs>
</svg>
