<svg width="509" height="460" viewBox="0 0 509 460" version="1.1" xmlns="http://www.w3.org/2000/svg" xmlns:xlink="http://www.w3.org/1999/xlink">
<title>s1m1_units</title>
<desc>Created using Figma</desc>
<g id="Canvas" transform="translate(324 125)">
<rect x="-324" y="-125" width="509" height="460" fill="#FFFFFF"/>
<g id="Rectangle">
<use xlink:href="#path0_fill" transform="translate(-324 -102)" fill="#C4C4C4"/>
<mask id="mask0_outline_ins">
<use xlink:href="#path0_fill" fill="white" transform="translate(-324 -102)"/>
</mask>
<g mask="url(#mask0_outline_ins)">
<use xlink:href="#path1_stroke_2x" transform="translate(-324 -102)"/>
</g>
</g>
<g id="Rectangle">
<use xlink:href="#path0_fill" transform="translate(-284 -102)" fill="#C4C4C4"/>
<mask id="mask1_outline_ins">
<use xlink:href="#path0_fill" fill="white" transform="translate(-284 -102)"/>
</mask>
<g mask="url(#mask1_outline_ins)">
<use xlink:href="#path1_stroke_2x" transform="translate(-284 -102)"/>
</g>
</g>
<g id="Rectangle">
<use xlink:href="#path0_fill" transform="translate(-243 -102)" fill="#C4C4C4"/>
<mask id="mask2_outline_ins">
<use xlink:href="#path0_fill" fill="white" transform="translate(-243 -102)"/>
</mask>
<g mask="url(#mask2_outline_ins)">
<use xlink:href="#path1_stroke_2x" transform="translate(-243 -102)"/>
</g>
</g>
<g id="Rectangle">
<use xlink:href="#path0_fill" transform="translate(-203 -102)" fill="#C4C4C4"/>
<mask id="mask3_outline_ins">
<use xlink:href="#path0_fill" fill="white" transform="translate(-203 -102)"/>
</mask>
<g mask="url(#mask3_outline_ins)">
<use xlink:href="#path1_stroke_2x" transform="translate(-203 -102)"/>
</g>
</g>
<g id="Rectangle">
<use xlink:href="#path0_fill" transform="translate(-324 -52)" fill="#C4C4C4"/>
<mask id="mask4_outline_ins">
<use xlink:href="#path0_fill" fill="white" transform="translate(-324 -52)"/>
</mask>
<g mask="url(#mask4_outline_ins)">
<use xlink:href="#path1_stroke_2x" transform="translate(-324 -52)"/>
</g>
</g>
<g id="Rectangle">
<use xlink:href="#path0_fill" transform="translate(-284 -52)" fill="#2D9CDB"/>
<mask id="mask5_outline_ins">
<use xlink:href="#path0_fill" fill="white" transform="translate(-284 -52)"/>
</mask>
<g mask="url(#mask5_outline_ins)">
<use xlink:href="#path1_stroke_2x" transform="translate(-284 -52)"/>
</g>
</g>
<g id="Rectangle">
<use xlink:href="#path0_fill" transform="translate(-243 -52)" fill="#C4C4C4"/>
<mask id="mask6_outline_ins">
<use xlink:href="#path0_fill" fill="white" transform="translate(-243 -52)"/>
</mask>
<g mask="url(#mask6_outline_ins)">
<use xlink:href="#path1_stroke_2x" transform="translate(-243 -52)"/>
</g>
</g>
<g id="Rectangle">
<use xlink:href="#path0_fill" transform="translate(-203 -52)" fill="#C4C4C4"/>
<mask id="mask7_outline_ins">
<use xlink:href="#path0_fill" fill="white" transform="translate(-203 -52)"/>
</mask>
<g mask="url(#mask7_outline_ins)">
<use xlink:href="#path1_stroke_2x" transform="translate(-203 -52)"/>
</g>
</g>
<g id="Rectangle">
<use xlink:href="#path0_fill" transform="translate(-324 -2)" fill="#C4C4C4"/>
<mask id="mask8_outline_ins">
<use xlink:href="#path0_fill" fill="white" transform="translate(-324 -2)"/>
</mask>
<g mask="url(#mask8_outline_ins)">
<use xlink:href="#path1_stroke_2x" transform="translate(-324 -2)"/>
</g>
</g>
<g id="Rectangle">
<use xlink:href="#path0_fill" transform="translate(-284 -2)" fill="#C4C4C4"/>
<mask id="mask9_outline_ins">
<use xlink:href="#path0_fill" fill="white" transform="translate(-284 -2)"/>
</mask>
<g mask="url(#mask9_outline_ins)">
<use xlink:href="#path1_stroke_2x" transform="translate(-284 -2)"/>
</g>
</g>
<g id="Rectangle">
<use xlink:href="#path0_fill" transform="translate(-243 -2)" fill="#C4C4C4"/>
<mask id="mask10_outline_ins">
<use xlink:href="#path0_fill" fill="white" transform="translate(-243 -2)"/>
</mask>
<g mask="url(#mask10_outline_ins)">
<use xlink:href="#path1_stroke_2x" transform="translate(-243 -2)"/>
</g>
</g>
<g id="Rectangle">
<use xlink:href="#path0_fill" transform="translate(-203 -2)" fill="#C4C4C4"/>
<mask id="mask11_outline_ins">
<use xlink:href="#path0_fill" fill="white" transform="translate(-203 -2)"/>
</mask>
<g mask="url(#mask11_outline_ins)">
<use xlink:href="#path1_stroke_2x" transform="translate(-203 -2)"/>
</g>
</g>
<g id="Rectangle">
<use xlink:href="#path0_fill" transform="translate(-324 48)" fill="#C4C4C4"/>
<mask id="mask12_outline_ins">
<use xlink:href="#path0_fill" fill="white" transform="translate(-324 48)"/>
</mask>
<g mask="url(#mask12_outline_ins)">
<use xlink:href="#path1_stroke_2x" transform="translate(-324 48)"/>
</g>
</g>
<g id="Rectangle">
<use xlink:href="#path0_fill" transform="translate(-284 48)" fill="#2D9CDB"/>
<mask id="mask13_outline_ins">
<use xlink:href="#path0_fill" fill="white" transform="translate(-284 48)"/>
</mask>
<g mask="url(#mask13_outline_ins)">
<use xlink:href="#path1_stroke_2x" transform="translate(-284 48)"/>
</g>
</g>
<g id="Rectangle">
<use xlink:href="#path0_fill" transform="translate(-243 48)" fill="#C4C4C4"/>
<mask id="mask14_outline_ins">
<use xlink:href="#path0_fill" fill="white" transform="translate(-243 48)"/>
</mask>
<g mask="url(#mask14_outline_ins)">
<use xlink:href="#path1_stroke_2x" transform="translate(-243 48)"/>
</g>
</g>
<g id="Rectangle">
<use xlink:href="#path0_fill" transform="translate(-203 48)" fill="#C4C4C4"/>
<mask id="mask15_outline_ins">
<use xlink:href="#path0_fill" fill="white" transform="translate(-203 48)"/>
</mask>
<g mask="url(#mask15_outline_ins)">
<use xlink:href="#path1_stroke_2x" transform="translate(-203 48)"/>
</g>
</g>
<g id="Rectangle">
<use xlink:href="#path0_fill" transform="translate(-163 -102)" fill="#C4C4C4"/>
<mask id="mask16_outline_ins">
<use xlink:href="#path0_fill" fill="white" transform="translate(-163 -102)"/>
</mask>
<g mask="url(#mask16_outline_ins)">
<use xlink:href="#path1_stroke_2x" transform="translate(-163 -102)"/>
</g>
</g>
<g id="Rectangle">
<use xlink:href="#path0_fill" transform="translate(63 -27)" fill="#2D9CDB"/>
<mask id="mask17_outline_ins">
<use xlink:href="#path0_fill" fill="white" transform="translate(63 -27)"/>
</mask>
<g mask="url(#mask17_outline_ins)">
<use xlink:href="#path1_stroke_2x" transform="translate(63 -27)"/>
</g>
</g>
<g id="Rectangle">
<use xlink:href="#path0_fill" transform="translate(103 -27)" fill="#2D9CDB"/>
<mask id="mask18_outline_ins">
<use xlink:href="#path0_fill" fill="white" transform="translate(103 -27)"/>
</mask>
<g mask="url(#mask18_outline_ins)">
<use xlink:href="#path1_stroke_2x" transform="translate(103 -27)"/>
</g>
</g>
<g id="Arrow">
<use xlink:href="#path2_stroke" transform="matrix(6.12323e-17 1 -1 6.12323e-17 124 -1)"/>
</g>
<g id="Rectangle">
<use xlink:href="#path0_fill" transform="translate(103 226)" fill="#2D9CDB"/>
<mask id="mask19_outline_ins">
<use xlink:href="#path0_fill" fill="white" transform="translate(103 226)"/>
</mask>
<g mask="url(#mask19_outline_ins)">
<use xlink:href="#path1_stroke_2x" transform="translate(103 226)"/>
</g>
</g>
<g id="Rectangle">
<use xlink:href="#path0_fill" transform="translate(143 -27)" fill="#2D9CDB"/>
<mask id="mask20_outline_ins">
<use xlink:href="#path0_fill" fill="white" transform="translate(143 -27)"/>
</mask>
<g mask="url(#mask20_outline_ins)">
<use xlink:href="#path1_stroke_2x" transform="translate(143 -27)"/>
</g>
</g>
<g id="Rectangle">
<use xlink:href="#path0_fill" transform="translate(-163 -52)" fill="#C4C4C4"/>
<mask id="mask21_outline_ins">
<use xlink:href="#path0_fill" fill="white" transform="translate(-163 -52)"/>
</mask>
<g mask="url(#mask21_outline_ins)">
<use xlink:href="#path1_stroke_2x" transform="translate(-163 -52)"/>
</g>
</g>
<g id="Rectangle">
<use xlink:href="#path0_fill" transform="translate(-163 -2)" fill="#2D9CDB"/>
<mask id="mask22_outline_ins">
<use xlink:href="#path0_fill" fill="white" transform="translate(-163 -2)"/>
</mask>
<g mask="url(#mask22_outline_ins)">
<use xlink:href="#path1_stroke_2x" transform="translate(-163 -2)"/>
</g>
</g>
<g id="Rectangle">
<use xlink:href="#path0_fill" transform="translate(-163 48)" fill="#C4C4C4"/>
<mask id="mask23_outline_ins">
<use xlink:href="#path0_fill" fill="white" transform="translate(-163 48)"/>
</mask>
<g mask="url(#mask23_outline_ins)">
<use xlink:href="#path1_stroke_2x" transform="translate(-163 48)"/>
</g>
</g>
<g id="Rectangle">
<use xlink:href="#path0_fill" transform="translate(-161 226)" fill="#C4C4C4"/>
<mask id="mask24_outline_ins">
<use xlink:href="#path0_fill" fill="white" transform="translate(-161 226)"/>
</mask>
<g mask="url(#mask24_outline_ins)">
<use xlink:href="#path1_stroke_2x" transform="translate(-161 226)"/>
</g>
</g>
<g id="Arrow 2">
<use xlink:href="#path3_stroke" transform="matrix(6.12323e-17 1 -1 6.12323e-17 -142 74)"/>
</g>
<g id="Population">
<use xlink:href="#path4_fill" transform="translate(-271 -129)"/>
</g>
<g id="Sample">
<use xlink:href="#path5_fill" transform="translate(90 -53)"/>
</g>
<g id="Arrow 3">
<use xlink:href="#path6_stroke" transform="translate(-93 -2)"/>
</g>
<g id="Sampling">
<use xlink:href="#path7_fill" transform="translate(-71 -29)"/>
</g>
<g id="individual unit observation point event">
<use xlink:href="#path8_fill" transform="translate(-62 207)"/>
</g>
<g id="Rectangle 2">
<mask id="mask25_outline_ins">
<use xlink:href="#path9_fill" fill="white" transform="translate(-70 194)"/>
</mask>
<g mask="url(#mask25_outline_ins)">
<use xlink:href="#path10_stroke_2x" transform="translate(-70 194)"/>
</g>
</g>
<g id="Arrow 4">
<use xlink:href="#path11_stroke" transform="translate(63 252)"/>
</g>
<g id="Arrow 5">
<use xlink:href="#path11_stroke" transform="matrix(-1 1.22465e-16 -1.22465e-16 -1 -82 252)"/>
</g>
</g>
<defs>
<path id="path0_fill" d="M 0 0L 42 0L 42 52L 0 52L 0 0Z"/>
<path id="path1_stroke_2x" d="M 0 0L 0 -1L -1 -1L -1 0L 0 0ZM 42 0L 43 0L 43 -1L 42 -1L 42 0ZM 42 52L 42 53L 43 53L 43 52L 42 52ZM 0 52L -1 52L -1 53L 0 53L 0 52ZM 0 1L 42 1L 42 -1L 0 -1L 0 1ZM 41 0L 41 52L 43 52L 43 0L 41 0ZM 42 51L 0 51L 0 53L 42 53L 42 51ZM 1 52L 1 0L -1 0L -1 52L 1 52Z"/>
<path id="path2_stroke" d="M 217.061 1.06066C 217.646 0.474874 217.646 -0.474874 217.061 -1.06066L 207.515 -10.6066C 206.929 -11.1924 205.979 -11.1924 205.393 -10.6066C 204.808 -10.0208 204.808 -9.07107 205.393 -8.48528L 213.879 0L 205.393 8.48528C 204.808 9.07107 204.808 10.0208 205.393 10.6066C 205.979 11.1924 206.929 11.1924 207.515 10.6066L 217.061 1.06066ZM 0 1.5L 216 1.5L 216 -1.5L 0 -1.5L 0 1.5Z"/>
<path id="path3_stroke" d="M 142.061 1.06066C 142.646 0.474874 142.646 -0.474874 142.061 -1.06066L 132.515 -10.6066C 131.929 -11.1924 130.979 -11.1924 130.393 -10.6066C 129.808 -10.0208 129.808 -9.07107 130.393 -8.48528L 138.879 0L 130.393 8.48528C 129.808 9.07107 129.808 10.0208 130.393 10.6066C 130.979 11.1924 131.929 11.1924 132.515 10.6066L 142.061 1.06066ZM 0 1.5L 141 1.5L 141 -1.5L 0 -1.5L 0 1.5Z"/>
<path id="path4_fill" d="M 4.61523 13.9902L 4.61523 19L 1.68555 19L 1.68555 4.78125L 7.23242 4.78125C 8.30013 4.78125 9.23763 4.97656 10.0449 5.36719C 10.8587 5.75781 11.4837 6.31445 11.9199 7.03711C 12.3561 7.75326 12.5742 8.57031 12.5742 9.48828C 12.5742 10.8815 12.0957 11.9818 11.1387 12.7891C 10.1882 13.5898 8.86979 13.9902 7.18359 13.9902L 4.61523 13.9902ZM 4.61523 11.6172L 7.23242 11.6172C 8.00716 11.6172 8.59635 11.4349 9 11.0703C 9.41016 10.7057 9.61523 10.1849 9.61523 9.50781C 9.61523 8.8112 9.41016 8.24805 9 7.81836C 8.58984 7.38867 8.02344 7.16732 7.30078 7.1543L 4.61523 7.1543L 4.61523 11.6172ZM 13.834 13.6191C 13.834 12.571 14.0358 11.6367 14.4395 10.8164C 14.8431 9.99609 15.4225 9.36133 16.1777 8.91211C 16.9395 8.46289 17.8216 8.23828 18.8242 8.23828C 20.25 8.23828 21.4121 8.67448 22.3105 9.54688C 23.2155 10.4193 23.7201 11.6042 23.8242 13.1016L 23.8438 13.8242C 23.8438 15.4453 23.3913 16.7474 22.4863 17.7305C 21.5814 18.707 20.3672 19.1953 18.8438 19.1953C 17.3203 19.1953 16.1029 18.707 15.1914 17.7305C 14.2865 16.7539 13.834 15.4258 13.834 13.7461L 13.834 13.6191ZM 16.6562 13.8242C 16.6562 14.8268 16.8451 15.5951 17.2227 16.1289C 17.6003 16.6562 18.1406 16.9199 18.8438 16.9199C 19.5273 16.9199 20.0612 16.6595 20.4453 16.1387C 20.8294 15.6113 21.0215 14.7715 21.0215 13.6191C 21.0215 12.6361 20.8294 11.8743 20.4453 11.334C 20.0612 10.7936 19.5208 10.5234 18.8242 10.5234C 18.1341 10.5234 17.6003 10.7936 17.2227 11.334C 16.8451 11.8678 16.6562 12.6979 16.6562 13.8242ZM 35.0938 13.8145C 35.0938 15.4421 34.7227 16.7474 33.9805 17.7305C 33.2448 18.707 32.2487 19.1953 30.9922 19.1953C 29.9245 19.1953 29.0618 18.8242 28.4043 18.082L 28.4043 23.0625L 25.582 23.0625L 25.582 8.43359L 28.1992 8.43359L 28.2969 9.46875C 28.9805 8.64844 29.8724 8.23828 30.9727 8.23828C 32.2747 8.23828 33.2871 8.72005 34.0098 9.68359C 34.7324 10.6471 35.0938 11.9753 35.0938 13.668L 35.0938 13.8145ZM 32.2715 13.6094C 32.2715 12.6263 32.0957 11.8678 31.7441 11.334C 31.3991 10.8001 30.8945 10.5332 30.2305 10.5332C 29.3451 10.5332 28.7363 10.8717 28.4043 11.5488L 28.4043 15.875C 28.7493 16.5716 29.3646 16.9199 30.25 16.9199C 31.5977 16.9199 32.2715 15.8164 32.2715 13.6094ZM 43.1797 17.9258C 42.4831 18.7721 41.5195 19.1953 40.2891 19.1953C 39.1562 19.1953 38.2904 18.8698 37.6914 18.2188C 37.099 17.5677 36.7962 16.6139 36.7832 15.3574L 36.7832 8.43359L 39.6055 8.43359L 39.6055 15.2598C 39.6055 16.36 40.1068 16.9102 41.1094 16.9102C 42.0664 16.9102 42.724 16.5781 43.082 15.9141L 43.082 8.43359L 45.9141 8.43359L 45.9141 19L 43.2578 19L 43.1797 17.9258ZM 51.0215 19L 48.1895 19L 48.1895 4L 51.0215 4L 51.0215 19ZM 59.4785 19C 59.3483 18.7461 59.2539 18.4303 59.1953 18.0527C 58.5117 18.8145 57.623 19.1953 56.5293 19.1953C 55.4941 19.1953 54.6348 18.8958 53.9512 18.2969C 53.2741 17.6979 52.9355 16.9427 52.9355 16.0312C 52.9355 14.9115 53.349 14.0521 54.1758 13.4531C 55.0091 12.8542 56.2103 12.5514 57.7793 12.5449L 59.0781 12.5449L 59.0781 11.9395C 59.0781 11.4512 58.9512 11.0605 58.6973 10.7676C 58.4499 10.4746 58.056 10.3281 57.5156 10.3281C 57.0404 10.3281 56.666 10.4421 56.3926 10.6699C 56.1257 10.8978 55.9922 11.2103 55.9922 11.6074L 53.1699 11.6074C 53.1699 10.9954 53.3587 10.429 53.7363 9.9082C 54.1139 9.38737 54.6478 8.98047 55.3379 8.6875C 56.028 8.38802 56.8027 8.23828 57.6621 8.23828C 58.9642 8.23828 59.9961 8.56706 60.7578 9.22461C 61.526 9.87565 61.9102 10.7936 61.9102 11.9785L 61.9102 16.5586C 61.9167 17.5612 62.0566 18.3197 62.3301 18.834L 62.3301 19L 59.4785 19ZM 57.1445 17.0371C 57.5612 17.0371 57.9453 16.946 58.2969 16.7637C 58.6484 16.5749 58.9089 16.3242 59.0781 16.0117L 59.0781 14.1953L 58.0234 14.1953C 56.6107 14.1953 55.8587 14.6836 55.7676 15.6602L 55.7578 15.8262C 55.7578 16.1777 55.8815 16.4674 56.1289 16.6953C 56.3763 16.9232 56.7148 17.0371 57.1445 17.0371ZM 67.457 5.83594L 67.457 8.43359L 69.2637 8.43359L 69.2637 10.5039L 67.457 10.5039L 67.457 15.7773C 67.457 16.168 67.5319 16.4479 67.6816 16.6172C 67.8314 16.7865 68.1178 16.8711 68.541 16.8711C 68.8535 16.8711 69.1302 16.8483 69.3711 16.8027L 69.3711 18.9414C 68.8177 19.1107 68.248 19.1953 67.6621 19.1953C 65.6829 19.1953 64.6738 18.196 64.6348 16.1973L 64.6348 10.5039L 63.0918 10.5039L 63.0918 8.43359L 64.6348 8.43359L 64.6348 5.83594L 67.457 5.83594ZM 73.8145 19L 70.9824 19L 70.9824 8.43359L 73.8145 8.43359L 73.8145 19ZM 70.8164 5.69922C 70.8164 5.27604 70.9564 4.92773 71.2363 4.6543C 71.5228 4.38086 71.9102 4.24414 72.3984 4.24414C 72.8802 4.24414 73.2643 4.38086 73.5508 4.6543C 73.8372 4.92773 73.9805 5.27604 73.9805 5.69922C 73.9805 6.12891 73.834 6.48047 73.541 6.75391C 73.2546 7.02734 72.8737 7.16406 72.3984 7.16406C 71.9232 7.16406 71.5391 7.02734 71.2461 6.75391C 70.9596 6.48047 70.8164 6.12891 70.8164 5.69922ZM 75.709 13.6191C 75.709 12.571 75.9108 11.6367 76.3145 10.8164C 76.7181 9.99609 77.2975 9.36133 78.0527 8.91211C 78.8145 8.46289 79.6966 8.23828 80.6992 8.23828C 82.125 8.23828 83.2871 8.67448 84.1855 9.54688C 85.0905 10.4193 85.5951 11.6042 85.6992 13.1016L 85.7188 13.8242C 85.7188 15.4453 85.2663 16.7474 84.3613 17.7305C 83.4564 18.707 82.2422 19.1953 80.7188 19.1953C 79.1953 19.1953 77.9779 18.707 77.0664 17.7305C 76.1615 16.7539 75.709 15.4258 75.709 13.7461L 75.709 13.6191ZM 78.5312 13.8242C 78.5312 14.8268 78.7201 15.5951 79.0977 16.1289C 79.4753 16.6562 80.0156 16.9199 80.7188 16.9199C 81.4023 16.9199 81.9362 16.6595 82.3203 16.1387C 82.7044 15.6113 82.8965 14.7715 82.8965 13.6191C 82.8965 12.6361 82.7044 11.8743 82.3203 11.334C 81.9362 10.7936 81.3958 10.5234 80.6992 10.5234C 80.0091 10.5234 79.4753 10.7936 79.0977 11.334C 78.7201 11.8678 78.5312 12.6979 78.5312 13.8242ZM 90.0547 8.43359L 90.1426 9.6543C 90.8978 8.71029 91.9102 8.23828 93.1797 8.23828C 94.2995 8.23828 95.1328 8.56706 95.6797 9.22461C 96.2266 9.88216 96.5065 10.8652 96.5195 12.1738L 96.5195 19L 93.6973 19L 93.6973 12.2422C 93.6973 11.6432 93.5671 11.2103 93.3066 10.9434C 93.0462 10.6699 92.6133 10.5332 92.0078 10.5332C 91.2135 10.5332 90.6178 10.8717 90.2207 11.5488L 90.2207 19L 87.3984 19L 87.3984 8.43359L 90.0547 8.43359Z"/>
<path id="path5_fill" d="M 8.76562 15.2695C 8.76562 14.7161 8.57031 14.293 8.17969 14C 7.78906 13.7005 7.08594 13.388 6.07031 13.0625C 5.05469 12.7305 4.25065 12.4049 3.6582 12.0859C 2.04362 11.2135 1.23633 10.0384 1.23633 8.56055C 1.23633 7.79232 1.45117 7.10872 1.88086 6.50977C 2.31706 5.9043 2.9388 5.43229 3.74609 5.09375C 4.5599 4.75521 5.47135 4.58594 6.48047 4.58594C 7.49609 4.58594 8.40104 4.77148 9.19531 5.14258C 9.98958 5.50716 10.6048 6.02474 11.041 6.69531C 11.4837 7.36589 11.7051 8.1276 11.7051 8.98047L 8.77539 8.98047C 8.77539 8.32943 8.57031 7.82487 8.16016 7.4668C 7.75 7.10221 7.17383 6.91992 6.43164 6.91992C 5.71549 6.91992 5.15885 7.07292 4.76172 7.37891C 4.36458 7.67839 4.16602 8.07552 4.16602 8.57031C 4.16602 9.03255 4.39714 9.41992 4.85938 9.73242C 5.32812 10.0449 6.01497 10.3379 6.91992 10.6113C 8.58659 11.1126 9.80078 11.7344 10.5625 12.4766C 11.3242 13.2188 11.7051 14.1432 11.7051 15.25C 11.7051 16.4805 11.2396 17.4473 10.3086 18.1504C 9.3776 18.847 8.12435 19.1953 6.54883 19.1953C 5.45508 19.1953 4.45898 18.9967 3.56055 18.5996C 2.66211 18.196 1.97526 17.6458 1.5 16.9492C 1.03125 16.2526 0.796875 15.4453 0.796875 14.5273L 3.73633 14.5273C 3.73633 16.0964 4.67383 16.8809 6.54883 16.8809C 7.24544 16.8809 7.78906 16.7409 8.17969 16.4609C 8.57031 16.1745 8.76562 15.7773 8.76562 15.2695ZM 19.6348 19C 19.5046 18.7461 19.4102 18.4303 19.3516 18.0527C 18.668 18.8145 17.7793 19.1953 16.6855 19.1953C 15.6504 19.1953 14.791 18.8958 14.1074 18.2969C 13.4303 17.6979 13.0918 16.9427 13.0918 16.0312C 13.0918 14.9115 13.5052 14.0521 14.332 13.4531C 15.1654 12.8542 16.3665 12.5514 17.9355 12.5449L 19.2344 12.5449L 19.2344 11.9395C 19.2344 11.4512 19.1074 11.0605 18.8535 10.7676C 18.6061 10.4746 18.2122 10.3281 17.6719 10.3281C 17.1966 10.3281 16.8223 10.4421 16.5488 10.6699C 16.2819 10.8978 16.1484 11.2103 16.1484 11.6074L 13.3262 11.6074C 13.3262 10.9954 13.515 10.429 13.8926 9.9082C 14.2702 9.38737 14.804 8.98047 15.4941 8.6875C 16.1842 8.38802 16.959 8.23828 17.8184 8.23828C 19.1204 8.23828 20.1523 8.56706 20.9141 9.22461C 21.6823 9.87565 22.0664 10.7936 22.0664 11.9785L 22.0664 16.5586C 22.0729 17.5612 22.2129 18.3197 22.4863 18.834L 22.4863 19L 19.6348 19ZM 17.3008 17.0371C 17.7174 17.0371 18.1016 16.946 18.4531 16.7637C 18.8047 16.5749 19.0651 16.3242 19.2344 16.0117L 19.2344 14.1953L 18.1797 14.1953C 16.7669 14.1953 16.015 14.6836 15.9238 15.6602L 15.9141 15.8262C 15.9141 16.1777 16.0378 16.4674 16.2852 16.6953C 16.5326 16.9232 16.8711 17.0371 17.3008 17.0371ZM 26.8809 8.43359L 26.9688 9.61523C 27.7174 8.69727 28.7298 8.23828 30.0059 8.23828C 31.3665 8.23828 32.3008 8.77539 32.8086 9.84961C 33.5508 8.77539 34.6087 8.23828 35.9824 8.23828C 37.1283 8.23828 37.9811 8.57357 38.541 9.24414C 39.1009 9.9082 39.3809 10.9108 39.3809 12.252L 39.3809 19L 36.5488 19L 36.5488 12.2617C 36.5488 11.6628 36.4316 11.2266 36.1973 10.9531C 35.9629 10.6732 35.5495 10.5332 34.957 10.5332C 34.1107 10.5332 33.5247 10.9368 33.1992 11.7441L 33.209 19L 30.3867 19L 30.3867 12.2715C 30.3867 11.6595 30.2663 11.2168 30.0254 10.9434C 29.7845 10.6699 29.3743 10.5332 28.7949 10.5332C 27.9941 10.5332 27.4147 10.8652 27.0566 11.5293L 27.0566 19L 24.2344 19L 24.2344 8.43359L 26.8809 8.43359ZM 51.0703 13.8145C 51.0703 15.4421 50.6992 16.7474 49.957 17.7305C 49.2214 18.707 48.2253 19.1953 46.9688 19.1953C 45.901 19.1953 45.0384 18.8242 44.3809 18.082L 44.3809 23.0625L 41.5586 23.0625L 41.5586 8.43359L 44.1758 8.43359L 44.2734 9.46875C 44.957 8.64844 45.849 8.23828 46.9492 8.23828C 48.2513 8.23828 49.2637 8.72005 49.9863 9.68359C 50.709 10.6471 51.0703 11.9753 51.0703 13.668L 51.0703 13.8145ZM 48.248 13.6094C 48.248 12.6263 48.0723 11.8678 47.7207 11.334C 47.3757 10.8001 46.8711 10.5332 46.207 10.5332C 45.3216 10.5332 44.7129 10.8717 44.3809 11.5488L 44.3809 15.875C 44.7259 16.5716 45.3411 16.9199 46.2266 16.9199C 47.5742 16.9199 48.248 15.8164 48.248 13.6094ZM 55.8066 19L 52.9746 19L 52.9746 4L 55.8066 4L 55.8066 19ZM 63.0039 19.1953C 61.4544 19.1953 60.1914 18.7201 59.2148 17.7695C 58.2448 16.819 57.7598 15.5527 57.7598 13.9707L 57.7598 13.6973C 57.7598 12.6361 57.9648 11.6888 58.375 10.8555C 58.7852 10.0156 59.3646 9.37109 60.1133 8.92188C 60.8685 8.46615 61.7279 8.23828 62.6914 8.23828C 64.1367 8.23828 65.2728 8.69401 66.0996 9.60547C 66.9329 10.5169 67.3496 11.8092 67.3496 13.4824L 67.3496 14.6348L 60.6211 14.6348C 60.7122 15.3249 60.9857 15.8783 61.4414 16.2949C 61.9036 16.7116 62.4863 16.9199 63.1895 16.9199C 64.2767 16.9199 65.1263 16.526 65.7383 15.7383L 67.125 17.291C 66.7018 17.89 66.1289 18.3587 65.4062 18.6973C 64.6836 19.0293 63.8828 19.1953 63.0039 19.1953ZM 62.6816 10.5234C 62.1217 10.5234 61.666 10.7122 61.3145 11.0898C 60.9694 11.4674 60.748 12.0078 60.6504 12.7109L 64.5762 12.7109L 64.5762 12.4863C 64.5632 11.8613 64.3939 11.3796 64.0684 11.041C 63.7428 10.696 63.2806 10.5234 62.6816 10.5234Z"/>
<path id="path6_stroke" d="M 130.061 1.06066C 130.646 0.474874 130.646 -0.474874 130.061 -1.06066L 120.515 -10.6066C 119.929 -11.1924 118.979 -11.1924 118.393 -10.6066C 117.808 -10.0208 117.808 -9.07107 118.393 -8.48528L 126.879 0L 118.393 8.48528C 117.808 9.07107 117.808 10.0208 118.393 10.6066C 118.979 11.1924 119.929 11.1924 120.515 10.6066L 130.061 1.06066ZM 0 1.5L 129 1.5L 129 -1.5L 0 -1.5L 0 1.5Z"/>
<path id="path7_fill" d="M 8.70117 15.2695C 8.70117 14.7161 8.50586 14.293 8.11523 14C 7.72461 13.7005 7.02148 13.388 6.00586 13.0625C 4.99023 12.7305 4.1862 12.4049 3.59375 12.0859C 1.97917 11.2135 1.17188 10.0384 1.17188 8.56055C 1.17188 7.79232 1.38672 7.10872 1.81641 6.50977C 2.2526 5.9043 2.87435 5.43229 3.68164 5.09375C 4.49544 4.75521 5.4069 4.58594 6.41602 4.58594C 7.43164 4.58594 8.33659 4.77148 9.13086 5.14258C 9.92513 5.50716 10.5404 6.02474 10.9766 6.69531C 11.4193 7.36589 11.6406 8.1276 11.6406 8.98047L 8.71094 8.98047C 8.71094 8.32943 8.50586 7.82487 8.0957 7.4668C 7.68555 7.10221 7.10938 6.91992 6.36719 6.91992C 5.65104 6.91992 5.0944 7.07292 4.69727 7.37891C 4.30013 7.67839 4.10156 8.07552 4.10156 8.57031C 4.10156 9.03255 4.33268 9.41992 4.79492 9.73242C 5.26367 10.0449 5.95052 10.3379 6.85547 10.6113C 8.52214 11.1126 9.73633 11.7344 10.498 12.4766C 11.2598 13.2188 11.6406 14.1432 11.6406 15.25C 11.6406 16.4805 11.1751 17.4473 10.2441 18.1504C 9.31315 18.847 8.0599 19.1953 6.48438 19.1953C 5.39062 19.1953 4.39453 18.9967 3.49609 18.5996C 2.59766 18.196 1.91081 17.6458 1.43555 16.9492C 0.966797 16.2526 0.732422 15.4453 0.732422 14.5273L 3.67188 14.5273C 3.67188 16.0964 4.60938 16.8809 6.48438 16.8809C 7.18099 16.8809 7.72461 16.7409 8.11523 16.4609C 8.50586 16.1745 8.70117 15.7773 8.70117 15.2695ZM 19.5703 19C 19.4401 18.7461 19.3457 18.4303 19.2871 18.0527C 18.6035 18.8145 17.7148 19.1953 16.6211 19.1953C 15.5859 19.1953 14.7266 18.8958 14.043 18.2969C 13.3659 17.6979 13.0273 16.9427 13.0273 16.0312C 13.0273 14.9115 13.4408 14.0521 14.2676 13.4531C 15.1009 12.8542 16.3021 12.5514 17.8711 12.5449L 19.1699 12.5449L 19.1699 11.9395C 19.1699 11.4512 19.043 11.0605 18.7891 10.7676C 18.5417 10.4746 18.1478 10.3281 17.6074 10.3281C 17.1322 10.3281 16.7578 10.4421 16.4844 10.6699C 16.2174 10.8978 16.084 11.2103 16.084 11.6074L 13.2617 11.6074C 13.2617 10.9954 13.4505 10.429 13.8281 9.9082C 14.2057 9.38737 14.7396 8.98047 15.4297 8.6875C 16.1198 8.38802 16.8945 8.23828 17.7539 8.23828C 19.056 8.23828 20.0879 8.56706 20.8496 9.22461C 21.6178 9.87565 22.002 10.7936 22.002 11.9785L 22.002 16.5586C 22.0085 17.5612 22.1484 18.3197 22.4219 18.834L 22.4219 19L 19.5703 19ZM 17.2363 17.0371C 17.653 17.0371 18.0371 16.946 18.3887 16.7637C 18.7402 16.5749 19.0007 16.3242 19.1699 16.0117L 19.1699 14.1953L 18.1152 14.1953C 16.7025 14.1953 15.9505 14.6836 15.8594 15.6602L 15.8496 15.8262C 15.8496 16.1777 15.9733 16.4674 16.2207 16.6953C 16.4681 16.9232 16.8066 17.0371 17.2363 17.0371ZM 26.8164 8.43359L 26.9043 9.61523C 27.653 8.69727 28.6654 8.23828 29.9414 8.23828C 31.3021 8.23828 32.2363 8.77539 32.7441 9.84961C 33.4863 8.77539 34.5443 8.23828 35.918 8.23828C 37.0638 8.23828 37.9167 8.57357 38.4766 9.24414C 39.0365 9.9082 39.3164 10.9108 39.3164 12.252L 39.3164 19L 36.4844 19L 36.4844 12.2617C 36.4844 11.6628 36.3672 11.2266 36.1328 10.9531C 35.8984 10.6732 35.485 10.5332 34.8926 10.5332C 34.0462 10.5332 33.4603 10.9368 33.1348 11.7441L 33.1445 19L 30.3223 19L 30.3223 12.2715C 30.3223 11.6595 30.2018 11.2168 29.9609 10.9434C 29.7201 10.6699 29.3099 10.5332 28.7305 10.5332C 27.9297 10.5332 27.3503 10.8652 26.9922 11.5293L 26.9922 19L 24.1699 19L 24.1699 8.43359L 26.8164 8.43359ZM 51.0059 13.8145C 51.0059 15.4421 50.6348 16.7474 49.8926 17.7305C 49.1569 18.707 48.1608 19.1953 46.9043 19.1953C 45.8366 19.1953 44.974 18.8242 44.3164 18.082L 44.3164 23.0625L 41.4941 23.0625L 41.4941 8.43359L 44.1113 8.43359L 44.209 9.46875C 44.8926 8.64844 45.7845 8.23828 46.8848 8.23828C 48.1868 8.23828 49.1992 8.72005 49.9219 9.68359C 50.6445 10.6471 51.0059 11.9753 51.0059 13.668L 51.0059 13.8145ZM 48.1836 13.6094C 48.1836 12.6263 48.0078 11.8678 47.6562 11.334C 47.3112 10.8001 46.8066 10.5332 46.1426 10.5332C 45.2572 10.5332 44.6484 10.8717 44.3164 11.5488L 44.3164 15.875C 44.6615 16.5716 45.2767 16.9199 46.1621 16.9199C 47.5098 16.9199 48.1836 15.8164 48.1836 13.6094ZM 55.7422 19L 52.9102 19L 52.9102 4L 55.7422 4L 55.7422 19ZM 61.0547 19L 58.2227 19L 58.2227 8.43359L 61.0547 8.43359L 61.0547 19ZM 58.0566 5.69922C 58.0566 5.27604 58.1966 4.92773 58.4766 4.6543C 58.763 4.38086 59.1504 4.24414 59.6387 4.24414C 60.1204 4.24414 60.5046 4.38086 60.791 4.6543C 61.0775 4.92773 61.2207 5.27604 61.2207 5.69922C 61.2207 6.12891 61.0742 6.48047 60.7812 6.75391C 60.4948 7.02734 60.1139 7.16406 59.6387 7.16406C 59.1634 7.16406 58.7793 7.02734 58.4863 6.75391C 58.1999 6.48047 58.0566 6.12891 58.0566 5.69922ZM 65.9863 8.43359L 66.0742 9.6543C 66.8294 8.71029 67.8418 8.23828 69.1113 8.23828C 70.2311 8.23828 71.0645 8.56706 71.6113 9.22461C 72.1582 9.88216 72.4382 10.8652 72.4512 12.1738L 72.4512 19L 69.6289 19L 69.6289 12.2422C 69.6289 11.6432 69.4987 11.2103 69.2383 10.9434C 68.9779 10.6699 68.5449 10.5332 67.9395 10.5332C 67.1452 10.5332 66.5495 10.8717 66.1523 11.5488L 66.1523 19L 63.3301 19L 63.3301 8.43359L 65.9863 8.43359ZM 74.1895 13.6387C 74.1895 12.0176 74.5736 10.7122 75.3418 9.72266C 76.1165 8.73307 77.1582 8.23828 78.4668 8.23828C 79.6257 8.23828 80.5273 8.63542 81.1719 9.42969L 81.2891 8.43359L 83.8477 8.43359L 83.8477 18.6484C 83.8477 19.5729 83.6361 20.377 83.2129 21.0605C 82.7962 21.7441 82.207 22.265 81.4453 22.623C 80.6836 22.9811 79.7917 23.1602 78.7695 23.1602C 77.9948 23.1602 77.2396 23.0039 76.5039 22.6914C 75.7682 22.3854 75.2116 21.9883 74.834 21.5L 76.084 19.7812C 76.7871 20.569 77.64 20.9629 78.6426 20.9629C 79.3913 20.9629 79.974 20.7611 80.3906 20.3574C 80.8073 19.9603 81.0156 19.3939 81.0156 18.6582L 81.0156 18.0918C 80.3646 18.8275 79.5085 19.1953 78.4473 19.1953C 77.1777 19.1953 76.1491 18.7005 75.3613 17.7109C 74.5801 16.7148 74.1895 15.3965 74.1895 13.7559L 74.1895 13.6387ZM 77.0117 13.8438C 77.0117 14.8008 77.2038 15.5527 77.5879 16.0996C 77.972 16.64 78.4993 16.9102 79.1699 16.9102C 80.0293 16.9102 80.6445 16.5879 81.0156 15.9434L 81.0156 11.5C 80.638 10.8555 80.0293 10.5332 79.1895 10.5332C 78.5124 10.5332 77.9785 10.8099 77.5879 11.3633C 77.2038 11.9167 77.0117 12.7435 77.0117 13.8438Z"/>
<path id="path8_fill" d="M 14.0469 19L 11.2148 19L 11.2148 8.43359L 14.0469 8.43359L 14.0469 19ZM 11.0488 5.69922C 11.0488 5.27604 11.1888 4.92773 11.4688 4.6543C 11.7552 4.38086 12.1426 4.24414 12.6309 4.24414C 13.1126 4.24414 13.4967 4.38086 13.7832 4.6543C 14.0697 4.92773 14.2129 5.27604 14.2129 5.69922C 14.2129 6.12891 14.0664 6.48047 13.7734 6.75391C 13.487 7.02734 13.1061 7.16406 12.6309 7.16406C 12.1556 7.16406 11.7715 7.02734 11.4785 6.75391C 11.1921 6.48047 11.0488 6.12891 11.0488 5.69922ZM 18.9785 8.43359L 19.0664 9.6543C 19.8216 8.71029 20.834 8.23828 22.1035 8.23828C 23.2233 8.23828 24.0566 8.56706 24.6035 9.22461C 25.1504 9.88216 25.4303 10.8652 25.4434 12.1738L 25.4434 19L 22.6211 19L 22.6211 12.2422C 22.6211 11.6432 22.4909 11.2103 22.2305 10.9434C 21.9701 10.6699 21.5371 10.5332 20.9316 10.5332C 20.1374 10.5332 19.5417 10.8717 19.1445 11.5488L 19.1445 19L 16.3223 19L 16.3223 8.43359L 18.9785 8.43359ZM 27.1523 13.6387C 27.1523 11.9915 27.5202 10.6797 28.2559 9.70312C 28.998 8.72656 30.0104 8.23828 31.293 8.23828C 32.3216 8.23828 33.1712 8.6224 33.8418 9.39062L 33.8418 4L 36.6738 4L 36.6738 19L 34.125 19L 33.9883 17.877C 33.2852 18.7559 32.3802 19.1953 31.2734 19.1953C 30.0299 19.1953 29.0306 18.707 28.2754 17.7305C 27.5267 16.7474 27.1523 15.3835 27.1523 13.6387ZM 29.9746 13.8438C 29.9746 14.8333 30.1471 15.5918 30.4922 16.1191C 30.8372 16.6465 31.3385 16.9102 31.9961 16.9102C 32.8685 16.9102 33.4837 16.5423 33.8418 15.8066L 33.8418 11.6367C 33.4902 10.901 32.8815 10.5332 32.0156 10.5332C 30.6549 10.5332 29.9746 11.6367 29.9746 13.8438ZM 41.8398 19L 39.0078 19L 39.0078 8.43359L 41.8398 8.43359L 41.8398 19ZM 38.8418 5.69922C 38.8418 5.27604 38.9818 4.92773 39.2617 4.6543C 39.5482 4.38086 39.9355 4.24414 40.4238 4.24414C 40.9056 4.24414 41.2897 4.38086 41.5762 4.6543C 41.8626 4.92773 42.0059 5.27604 42.0059 5.69922C 42.0059 6.12891 41.8594 6.48047 41.5664 6.75391C 41.2799 7.02734 40.8991 7.16406 40.4238 7.16406C 39.9486 7.16406 39.5645 7.02734 39.2715 6.75391C 38.985 6.48047 38.8418 6.12891 38.8418 5.69922ZM 48.1289 15.5527L 50.0918 8.43359L 53.041 8.43359L 49.4766 19L 46.7812 19L 43.2168 8.43359L 46.166 8.43359L 48.1289 15.5527ZM 57.2695 19L 54.4375 19L 54.4375 8.43359L 57.2695 8.43359L 57.2695 19ZM 54.2715 5.69922C 54.2715 5.27604 54.4115 4.92773 54.6914 4.6543C 54.9779 4.38086 55.3652 4.24414 55.8535 4.24414C 56.3353 4.24414 56.7194 4.38086 57.0059 4.6543C 57.2923 4.92773 57.4355 5.27604 57.4355 5.69922C 57.4355 6.12891 57.2891 6.48047 56.9961 6.75391C 56.7096 7.02734 56.3288 7.16406 55.8535 7.16406C 55.3783 7.16406 54.9941 7.02734 54.7012 6.75391C 54.4147 6.48047 54.2715 6.12891 54.2715 5.69922ZM 59.1641 13.6387C 59.1641 11.9915 59.5319 10.6797 60.2676 9.70312C 61.0098 8.72656 62.0221 8.23828 63.3047 8.23828C 64.3333 8.23828 65.1829 8.6224 65.8535 9.39062L 65.8535 4L 68.6855 4L 68.6855 19L 66.1367 19L 66 17.877C 65.2969 18.7559 64.3919 19.1953 63.2852 19.1953C 62.0417 19.1953 61.0423 18.707 60.2871 17.7305C 59.5384 16.7474 59.1641 15.3835 59.1641 13.6387ZM 61.9863 13.8438C 61.9863 14.8333 62.1589 15.5918 62.5039 16.1191C 62.849 16.6465 63.3503 16.9102 64.0078 16.9102C 64.8802 16.9102 65.4954 16.5423 65.8535 15.8066L 65.8535 11.6367C 65.502 10.901 64.8932 10.5332 64.0273 10.5332C 62.6667 10.5332 61.9863 11.6367 61.9863 13.8438ZM 77.2012 17.9258C 76.5046 18.7721 75.541 19.1953 74.3105 19.1953C 73.1777 19.1953 72.3118 18.8698 71.7129 18.2188C 71.1204 17.5677 70.8177 16.6139 70.8047 15.3574L 70.8047 8.43359L 73.627 8.43359L 73.627 15.2598C 73.627 16.36 74.1283 16.9102 75.1309 16.9102C 76.0879 16.9102 76.7454 16.5781 77.1035 15.9141L 77.1035 8.43359L 79.9355 8.43359L 79.9355 19L 77.2793 19L 77.2012 17.9258ZM 88.1875 19C 88.0573 18.7461 87.9629 18.4303 87.9043 18.0527C 87.2207 18.8145 86.332 19.1953 85.2383 19.1953C 84.2031 19.1953 83.3438 18.8958 82.6602 18.2969C 81.9831 17.6979 81.6445 16.9427 81.6445 16.0312C 81.6445 14.9115 82.0579 14.0521 82.8848 13.4531C 83.7181 12.8542 84.9193 12.5514 86.4883 12.5449L 87.7871 12.5449L 87.7871 11.9395C 87.7871 11.4512 87.6602 11.0605 87.4062 10.7676C 87.1589 10.4746 86.765 10.3281 86.2246 10.3281C 85.7493 10.3281 85.375 10.4421 85.1016 10.6699C 84.8346 10.8978 84.7012 11.2103 84.7012 11.6074L 81.8789 11.6074C 81.8789 10.9954 82.0677 10.429 82.4453 9.9082C 82.8229 9.38737 83.3568 8.98047 84.0469 8.6875C 84.737 8.38802 85.5117 8.23828 86.3711 8.23828C 87.6732 8.23828 88.7051 8.56706 89.4668 9.22461C 90.235 9.87565 90.6191 10.7936 90.6191 11.9785L 90.6191 16.5586C 90.6257 17.5612 90.7656 18.3197 91.0391 18.834L 91.0391 19L 88.1875 19ZM 85.8535 17.0371C 86.2702 17.0371 86.6543 16.946 87.0059 16.7637C 87.3574 16.5749 87.6178 16.3242 87.7871 16.0117L 87.7871 14.1953L 86.7324 14.1953C 85.3197 14.1953 84.5677 14.6836 84.4766 15.6602L 84.4668 15.8262C 84.4668 16.1777 84.5905 16.4674 84.8379 16.6953C 85.0853 16.9232 85.4238 17.0371 85.8535 17.0371ZM 95.7656 19L 92.9336 19L 92.9336 4L 95.7656 4L 95.7656 19ZM 43.6758 40.9258C 42.9792 41.7721 42.0156 42.1953 40.7852 42.1953C 39.6523 42.1953 38.7865 41.8698 38.1875 41.2188C 37.5951 40.5677 37.2923 39.6139 37.2793 38.3574L 37.2793 31.4336L 40.1016 31.4336L 40.1016 38.2598C 40.1016 39.36 40.6029 39.9102 41.6055 39.9102C 42.5625 39.9102 43.2201 39.5781 43.5781 38.9141L 43.5781 31.4336L 46.4102 31.4336L 46.4102 42L 43.7539 42L 43.6758 40.9258ZM 51.1367 31.4336L 51.2246 32.6543C 51.9798 31.7103 52.9922 31.2383 54.2617 31.2383C 55.3815 31.2383 56.2148 31.5671 56.7617 32.2246C 57.3086 32.8822 57.5885 33.8652 57.6016 35.1738L 57.6016 42L 54.7793 42L 54.7793 35.2422C 54.7793 34.6432 54.6491 34.2103 54.3887 33.9434C 54.1283 33.6699 53.6953 33.5332 53.0898 33.5332C 52.2956 33.5332 51.6999 33.8717 51.3027 34.5488L 51.3027 42L 48.4805 42L 48.4805 31.4336L 51.1367 31.4336ZM 62.7285 42L 59.8965 42L 59.8965 31.4336L 62.7285 31.4336L 62.7285 42ZM 59.7305 28.6992C 59.7305 28.276 59.8704 27.9277 60.1504 27.6543C 60.4368 27.3809 60.8242 27.2441 61.3125 27.2441C 61.7943 27.2441 62.1784 27.3809 62.4648 27.6543C 62.7513 27.9277 62.8945 28.276 62.8945 28.6992C 62.8945 29.1289 62.748 29.4805 62.4551 29.7539C 62.1686 30.0273 61.7878 30.1641 61.3125 30.1641C 60.8372 30.1641 60.4531 30.0273 60.1602 29.7539C 59.8737 29.4805 59.7305 29.1289 59.7305 28.6992ZM 68.4414 28.8359L 68.4414 31.4336L 70.248 31.4336L 70.248 33.5039L 68.4414 33.5039L 68.4414 38.7773C 68.4414 39.168 68.5163 39.4479 68.666 39.6172C 68.8158 39.7865 69.1022 39.8711 69.5254 39.8711C 69.8379 39.8711 70.1146 39.8483 70.3555 39.8027L 70.3555 41.9414C 69.8021 42.1107 69.2324 42.1953 68.6465 42.1953C 66.6673 42.1953 65.6582 41.196 65.6191 39.1973L 65.6191 33.5039L 64.0762 33.5039L 64.0762 31.4336L 65.6191 31.4336L 65.6191 28.8359L 68.4414 28.8359ZM 0.921875 59.6191C 0.921875 58.571 1.1237 57.6367 1.52734 56.8164C 1.93099 55.9961 2.51042 55.3613 3.26562 54.9121C 4.02734 54.4629 4.90951 54.2383 5.91211 54.2383C 7.33789 54.2383 8.5 54.6745 9.39844 55.5469C 10.3034 56.4193 10.8079 57.6042 10.9121 59.1016L 10.9316 59.8242C 10.9316 61.4453 10.4792 62.7474 9.57422 63.7305C 8.66927 64.707 7.45508 65.1953 5.93164 65.1953C 4.4082 65.1953 3.19076 64.707 2.2793 63.7305C 1.37435 62.7539 0.921875 61.4258 0.921875 59.7461L 0.921875 59.6191ZM 3.74414 59.8242C 3.74414 60.8268 3.93294 61.5951 4.31055 62.1289C 4.68815 62.6562 5.22852 62.9199 5.93164 62.9199C 6.61523 62.9199 7.14909 62.6595 7.5332 62.1387C 7.91732 61.6113 8.10938 60.7715 8.10938 59.6191C 8.10938 58.6361 7.91732 57.8743 7.5332 57.334C 7.14909 56.7936 6.60872 56.5234 5.91211 56.5234C 5.22201 56.5234 4.68815 56.7936 4.31055 57.334C 3.93294 57.8678 3.74414 58.6979 3.74414 59.8242ZM 22.1914 59.8145C 22.1914 61.5072 21.8301 62.8288 21.1074 63.7793C 20.3848 64.7233 19.3757 65.1953 18.0801 65.1953C 16.9342 65.1953 16.0195 64.7559 15.3359 63.877L 15.209 65L 12.6699 65L 12.6699 50L 15.4922 50L 15.4922 55.3809C 16.1432 54.6191 16.9993 54.2383 18.0605 54.2383C 19.3496 54.2383 20.3587 54.7135 21.0879 55.6641C 21.8236 56.6081 22.1914 57.9395 22.1914 59.6582L 22.1914 59.8145ZM 19.3691 59.6094C 19.3691 58.5417 19.1999 57.7637 18.8613 57.2754C 18.5228 56.7806 18.0182 56.5332 17.3477 56.5332C 16.4492 56.5332 15.8307 56.901 15.4922 57.6367L 15.4922 61.8066C 15.8372 62.5488 16.4622 62.9199 17.3672 62.9199C 18.2786 62.9199 18.8776 62.4707 19.1641 61.5723C 19.3008 61.1426 19.3691 60.4883 19.3691 59.6094ZM 29.6621 62.0801C 29.6621 61.735 29.4896 61.4648 29.1445 61.2695C 28.806 61.0677 28.2591 60.8887 27.5039 60.7324C 24.9909 60.2051 23.7344 59.1374 23.7344 57.5293C 23.7344 56.5918 24.1217 55.8105 24.8965 55.1855C 25.6777 54.554 26.6966 54.2383 27.9531 54.2383C 29.2943 54.2383 30.3652 54.554 31.166 55.1855C 31.9733 55.8171 32.377 56.6374 32.377 57.6465L 29.5547 57.6465C 29.5547 57.2428 29.4245 56.9108 29.1641 56.6504C 28.9036 56.3835 28.4967 56.25 27.9434 56.25C 27.4681 56.25 27.1003 56.3574 26.8398 56.5723C 26.5794 56.7871 26.4492 57.0605 26.4492 57.3926C 26.4492 57.7051 26.5957 57.959 26.8887 58.1543C 27.1882 58.3431 27.6895 58.5091 28.3926 58.6523C 29.0957 58.7891 29.6882 58.9453 30.1699 59.1211C 31.6608 59.668 32.4062 60.6152 32.4062 61.9629C 32.4062 62.9264 31.9928 63.7077 31.166 64.3066C 30.3392 64.8991 29.2715 65.1953 27.9629 65.1953C 27.0775 65.1953 26.2897 65.0391 25.5996 64.7266C 24.916 64.4076 24.3789 63.9746 23.9883 63.4277C 23.5977 62.8743 23.4023 62.2786 23.4023 61.6406L 26.0781 61.6406C 26.1042 62.1419 26.2897 62.526 26.6348 62.793C 26.9798 63.0599 27.4421 63.1934 28.0215 63.1934C 28.5618 63.1934 28.9688 63.0924 29.2422 62.8906C 29.5221 62.6823 29.6621 62.4121 29.6621 62.0801ZM 39.0957 65.1953C 37.5462 65.1953 36.2832 64.7201 35.3066 63.7695C 34.3366 62.819 33.8516 61.5527 33.8516 59.9707L 33.8516 59.6973C 33.8516 58.6361 34.0566 57.6888 34.4668 56.8555C 34.877 56.0156 35.4564 55.3711 36.2051 54.9219C 36.9603 54.4661 37.8197 54.2383 38.7832 54.2383C 40.2285 54.2383 41.3646 54.694 42.1914 55.6055C 43.0247 56.5169 43.4414 57.8092 43.4414 59.4824L 43.4414 60.6348L 36.7129 60.6348C 36.804 61.3249 37.0775 61.8783 37.5332 62.2949C 37.9954 62.7116 38.5781 62.9199 39.2812 62.9199C 40.3685 62.9199 41.2181 62.526 41.8301 61.7383L 43.2168 63.291C 42.7936 63.89 42.2207 64.3587 41.498 64.6973C 40.7754 65.0293 39.9746 65.1953 39.0957 65.1953ZM 38.7734 56.5234C 38.2135 56.5234 37.7578 56.7122 37.4062 57.0898C 37.0612 57.4674 36.8398 58.0078 36.7422 58.7109L 40.668 58.7109L 40.668 58.4863C 40.6549 57.8613 40.4857 57.3796 40.1602 57.041C 39.8346 56.696 39.3724 56.5234 38.7734 56.5234ZM 50.9902 57.0801C 50.6061 57.028 50.2676 57.002 49.9746 57.002C 48.9069 57.002 48.207 57.3633 47.875 58.0859L 47.875 65L 45.0527 65L 45.0527 54.4336L 47.7188 54.4336L 47.7969 55.6934C 48.3633 54.7233 49.1478 54.2383 50.1504 54.2383C 50.4629 54.2383 50.7559 54.2806 51.0293 54.3652L 50.9902 57.0801ZM 56.4883 61.5527L 58.4512 54.4336L 61.4004 54.4336L 57.8359 65L 55.1406 65L 51.5762 54.4336L 54.5254 54.4336L 56.4883 61.5527ZM 68.6172 65C 68.487 64.7461 68.3926 64.4303 68.334 64.0527C 67.6504 64.8145 66.7617 65.1953 65.668 65.1953C 64.6328 65.1953 63.7734 64.8958 63.0898 64.2969C 62.4128 63.6979 62.0742 62.9427 62.0742 62.0312C 62.0742 60.9115 62.4876 60.0521 63.3145 59.4531C 64.1478 58.8542 65.349 58.5514 66.918 58.5449L 68.2168 58.5449L 68.2168 57.9395C 68.2168 57.4512 68.0898 57.0605 67.8359 56.7676C 67.5885 56.4746 67.1947 56.3281 66.6543 56.3281C 66.179 56.3281 65.8047 56.4421 65.5312 56.6699C 65.2643 56.8978 65.1309 57.2103 65.1309 57.6074L 62.3086 57.6074C 62.3086 56.9954 62.4974 56.429 62.875 55.9082C 63.2526 55.3874 63.7865 54.9805 64.4766 54.6875C 65.1667 54.388 65.9414 54.2383 66.8008 54.2383C 68.1029 54.2383 69.1348 54.5671 69.8965 55.2246C 70.6647 55.8757 71.0488 56.7936 71.0488 57.9785L 71.0488 62.5586C 71.0553 63.5612 71.1953 64.3197 71.4688 64.834L 71.4688 65L 68.6172 65ZM 66.2832 63.0371C 66.6999 63.0371 67.084 62.946 67.4355 62.7637C 67.7871 62.5749 68.0475 62.3242 68.2168 62.0117L 68.2168 60.1953L 67.1621 60.1953C 65.7493 60.1953 64.9974 60.6836 64.9062 61.6602L 64.8965 61.8262C 64.8965 62.1777 65.0202 62.4674 65.2676 62.6953C 65.515 62.9232 65.8535 63.0371 66.2832 63.0371ZM 76.5957 51.8359L 76.5957 54.4336L 78.4023 54.4336L 78.4023 56.5039L 76.5957 56.5039L 76.5957 61.7773C 76.5957 62.168 76.6706 62.4479 76.8203 62.6172C 76.9701 62.7865 77.2565 62.8711 77.6797 62.8711C 77.9922 62.8711 78.2689 62.8483 78.5098 62.8027L 78.5098 64.9414C 77.9564 65.1107 77.3867 65.1953 76.8008 65.1953C 74.8216 65.1953 73.8125 64.196 73.7734 62.1973L 73.7734 56.5039L 72.2305 56.5039L 72.2305 54.4336L 73.7734 54.4336L 73.7734 51.8359L 76.5957 51.8359ZM 82.9531 65L 80.1211 65L 80.1211 54.4336L 82.9531 54.4336L 82.9531 65ZM 79.9551 51.6992C 79.9551 51.276 80.0951 50.9277 80.375 50.6543C 80.6615 50.3809 81.0488 50.2441 81.5371 50.2441C 82.0189 50.2441 82.403 50.3809 82.6895 50.6543C 82.9759 50.9277 83.1191 51.276 83.1191 51.6992C 83.1191 52.1289 82.9727 52.4805 82.6797 52.7539C 82.3932 53.0273 82.0124 53.1641 81.5371 53.1641C 81.0618 53.1641 80.6777 53.0273 80.3848 52.7539C 80.0983 52.4805 79.9551 52.1289 79.9551 51.6992ZM 84.8477 59.6191C 84.8477 58.571 85.0495 57.6367 85.4531 56.8164C 85.8568 55.9961 86.4362 55.3613 87.1914 54.9121C 87.9531 54.4629 88.8353 54.2383 89.8379 54.2383C 91.2637 54.2383 92.4258 54.6745 93.3242 55.5469C 94.2292 56.4193 94.7337 57.6042 94.8379 59.1016L 94.8574 59.8242C 94.8574 61.4453 94.4049 62.7474 93.5 63.7305C 92.5951 64.707 91.3809 65.1953 89.8574 65.1953C 88.334 65.1953 87.1165 64.707 86.2051 63.7305C 85.3001 62.7539 84.8477 61.4258 84.8477 59.7461L 84.8477 59.6191ZM 87.6699 59.8242C 87.6699 60.8268 87.8587 61.5951 88.2363 62.1289C 88.6139 62.6562 89.1543 62.9199 89.8574 62.9199C 90.541 62.9199 91.0749 62.6595 91.459 62.1387C 91.8431 61.6113 92.0352 60.7715 92.0352 59.6191C 92.0352 58.6361 91.8431 57.8743 91.459 57.334C 91.0749 56.7936 90.5345 56.5234 89.8379 56.5234C 89.1478 56.5234 88.6139 56.7936 88.2363 57.334C 87.8587 57.8678 87.6699 58.6979 87.6699 59.8242ZM 99.1934 54.4336L 99.2812 55.6543C 100.036 54.7103 101.049 54.2383 102.318 54.2383C 103.438 54.2383 104.271 54.5671 104.818 55.2246C 105.365 55.8822 105.645 56.8652 105.658 58.1738L 105.658 65L 102.836 65L 102.836 58.2422C 102.836 57.6432 102.706 57.2103 102.445 56.9434C 102.185 56.6699 101.752 56.5332 101.146 56.5332C 100.352 56.5332 99.7565 56.8717 99.3594 57.5488L 99.3594 65L 96.5371 65L 96.5371 54.4336L 99.1934 54.4336ZM 41.166 83.8145C 41.166 85.4421 40.7949 86.7474 40.0527 87.7305C 39.3171 88.707 38.321 89.1953 37.0645 89.1953C 35.9967 89.1953 35.1341 88.8242 34.4766 88.082L 34.4766 93.0625L 31.6543 93.0625L 31.6543 78.4336L 34.2715 78.4336L 34.3691 79.4688C 35.0527 78.6484 35.9447 78.2383 37.0449 78.2383C 38.347 78.2383 39.3594 78.7201 40.082 79.6836C 40.8047 80.6471 41.166 81.9753 41.166 83.668L 41.166 83.8145ZM 38.3438 83.6094C 38.3438 82.6263 38.168 81.8678 37.8164 81.334C 37.4714 80.8001 36.9668 80.5332 36.3027 80.5332C 35.4173 80.5332 34.8086 80.8717 34.4766 81.5488L 34.4766 85.875C 34.8216 86.5716 35.4368 86.9199 36.3223 86.9199C 37.6699 86.9199 38.3438 85.8164 38.3438 83.6094ZM 42.4844 83.6191C 42.4844 82.571 42.6862 81.6367 43.0898 80.8164C 43.4935 79.9961 44.0729 79.3613 44.8281 78.9121C 45.5898 78.4629 46.472 78.2383 47.4746 78.2383C 48.9004 78.2383 50.0625 78.6745 50.9609 79.5469C 51.8659 80.4193 52.3704 81.6042 52.4746 83.1016L 52.4941 83.8242C 52.4941 85.4453 52.0417 86.7474 51.1367 87.7305C 50.2318 88.707 49.0176 89.1953 47.4941 89.1953C 45.9707 89.1953 44.7533 88.707 43.8418 87.7305C 42.9368 86.7539 42.4844 85.4258 42.4844 83.7461L 42.4844 83.6191ZM 45.3066 83.8242C 45.3066 84.8268 45.4954 85.5951 45.873 86.1289C 46.2507 86.6562 46.791 86.9199 47.4941 86.9199C 48.1777 86.9199 48.7116 86.6595 49.0957 86.1387C 49.4798 85.6113 49.6719 84.7715 49.6719 83.6191C 49.6719 82.6361 49.4798 81.8743 49.0957 81.334C 48.7116 80.7936 48.1712 80.5234 47.4746 80.5234C 46.7845 80.5234 46.2507 80.7936 45.873 81.334C 45.4954 81.8678 45.3066 82.6979 45.3066 83.8242ZM 57.2109 89L 54.3789 89L 54.3789 78.4336L 57.2109 78.4336L 57.2109 89ZM 54.2129 75.6992C 54.2129 75.276 54.3529 74.9277 54.6328 74.6543C 54.9193 74.3809 55.3066 74.2441 55.7949 74.2441C 56.2767 74.2441 56.6608 74.3809 56.9473 74.6543C 57.2337 74.9277 57.377 75.276 57.377 75.6992C 57.377 76.1289 57.2305 76.4805 56.9375 76.7539C 56.651 77.0273 56.2702 77.1641 55.7949 77.1641C 55.3197 77.1641 54.9355 77.0273 54.6426 76.7539C 54.3561 76.4805 54.2129 76.1289 54.2129 75.6992ZM 62.1426 78.4336L 62.2305 79.6543C 62.9857 78.7103 63.998 78.2383 65.2676 78.2383C 66.3874 78.2383 67.2207 78.5671 67.7676 79.2246C 68.3145 79.8822 68.5944 80.8652 68.6074 82.1738L 68.6074 89L 65.7852 89L 65.7852 82.2422C 65.7852 81.6432 65.6549 81.2103 65.3945 80.9434C 65.1341 80.6699 64.7012 80.5332 64.0957 80.5332C 63.3014 80.5332 62.7057 80.8717 62.3086 81.5488L 62.3086 89L 59.4863 89L 59.4863 78.4336L 62.1426 78.4336ZM 74.1348 75.8359L 74.1348 78.4336L 75.9414 78.4336L 75.9414 80.5039L 74.1348 80.5039L 74.1348 85.7773C 74.1348 86.168 74.2096 86.4479 74.3594 86.6172C 74.5091 86.7865 74.7956 86.8711 75.2188 86.8711C 75.5312 86.8711 75.8079 86.8483 76.0488 86.8027L 76.0488 88.9414C 75.4954 89.1107 74.9258 89.1953 74.3398 89.1953C 72.3607 89.1953 71.3516 88.196 71.3125 86.1973L 71.3125 80.5039L 69.7695 80.5039L 69.7695 78.4336L 71.3125 78.4336L 71.3125 75.8359L 74.1348 75.8359ZM 34.7207 112.195C 33.1712 112.195 31.9082 111.72 30.9316 110.77C 29.9616 109.819 29.4766 108.553 29.4766 106.971L 29.4766 106.697C 29.4766 105.636 29.6816 104.689 30.0918 103.855C 30.502 103.016 31.0814 102.371 31.8301 101.922C 32.5853 101.466 33.4447 101.238 34.4082 101.238C 35.8535 101.238 36.9896 101.694 37.8164 102.605C 38.6497 103.517 39.0664 104.809 39.0664 106.482L 39.0664 107.635L 32.3379 107.635C 32.429 108.325 32.7025 108.878 33.1582 109.295C 33.6204 109.712 34.2031 109.92 34.9062 109.92C 35.9935 109.92 36.8431 109.526 37.4551 108.738L 38.8418 110.291C 38.4186 110.89 37.8457 111.359 37.123 111.697C 36.4004 112.029 35.5996 112.195 34.7207 112.195ZM 34.3984 103.523C 33.8385 103.523 33.3828 103.712 33.0312 104.09C 32.6862 104.467 32.4648 105.008 32.3672 105.711L 36.293 105.711L 36.293 105.486C 36.2799 104.861 36.1107 104.38 35.7852 104.041C 35.4596 103.696 34.9974 103.523 34.3984 103.523ZM 44.4961 108.553L 46.459 101.434L 49.4082 101.434L 45.8438 112L 43.1484 112L 39.584 101.434L 42.5332 101.434L 44.4961 108.553ZM 55.3848 112.195C 53.8353 112.195 52.5723 111.72 51.5957 110.77C 50.6257 109.819 50.1406 108.553 50.1406 106.971L 50.1406 106.697C 50.1406 105.636 50.3457 104.689 50.7559 103.855C 51.166 103.016 51.7454 102.371 52.4941 101.922C 53.2493 101.466 54.1087 101.238 55.0723 101.238C 56.5176 101.238 57.6536 101.694 58.4805 102.605C 59.3138 103.517 59.7305 104.809 59.7305 106.482L 59.7305 107.635L 53.002 107.635C 53.0931 108.325 53.3665 108.878 53.8223 109.295C 54.2845 109.712 54.8672 109.92 55.5703 109.92C 56.6576 109.92 57.5072 109.526 58.1191 108.738L 59.5059 110.291C 59.0827 110.89 58.5098 111.359 57.7871 111.697C 57.0645 112.029 56.2637 112.195 55.3848 112.195ZM 55.0625 103.523C 54.5026 103.523 54.0469 103.712 53.6953 104.09C 53.3503 104.467 53.1289 105.008 53.0312 105.711L 56.957 105.711L 56.957 105.486C 56.944 104.861 56.7747 104.38 56.4492 104.041C 56.1237 103.696 55.6615 103.523 55.0625 103.523ZM 63.9395 101.434L 64.0273 102.654C 64.7826 101.71 65.7949 101.238 67.0645 101.238C 68.1842 101.238 69.0176 101.567 69.5645 102.225C 70.1113 102.882 70.3913 103.865 70.4043 105.174L 70.4043 112L 67.582 112L 67.582 105.242C 67.582 104.643 67.4518 104.21 67.1914 103.943C 66.931 103.67 66.498 103.533 65.8926 103.533C 65.0983 103.533 64.5026 103.872 64.1055 104.549L 64.1055 112L 61.2832 112L 61.2832 101.434L 63.9395 101.434ZM 75.9316 98.8359L 75.9316 101.434L 77.7383 101.434L 77.7383 103.504L 75.9316 103.504L 75.9316 108.777C 75.9316 109.168 76.0065 109.448 76.1562 109.617C 76.306 109.786 76.5924 109.871 77.0156 109.871C 77.3281 109.871 77.6048 109.848 77.8457 109.803L 77.8457 111.941C 77.2923 112.111 76.7227 112.195 76.1367 112.195C 74.1576 112.195 73.1484 111.196 73.1094 109.197L 73.1094 103.504L 71.5664 103.504L 71.5664 101.434L 73.1094 101.434L 73.1094 98.8359L 75.9316 98.8359Z"/>
<path id="path9_fill" d="M 0 0L 123 0L 123 141L 0 141L 0 0Z"/>
<path id="path10_stroke_2x" d="M 0 0L 0 -1L -1 -1L -1 0L 0 0ZM 123 0L 124 0L 124 -1L 123 -1L 123 0ZM 123 141L 123 142L 124 142L 124 141L 123 141ZM 0 141L -1 141L -1 142L 0 142L 0 141ZM 0 1L 123 1L 123 -1L 0 -1L 0 1ZM 122 0L 122 141L 124 141L 124 0L 122 0ZM 123 140L 0 140L 0 142L 123 142L 123 140ZM 1 141L 1 0L -1 0L -1 141L 1 141Z"/>
<path id="path11_stroke" d="M 27.7071 0.707107C 28.0976 0.316582 28.0976 -0.316582 27.7071 -0.707107L 21.3431 -7.07107C 20.9526 -7.46159 20.3195 -7.46159 19.9289 -7.07107C 19.5384 -6.68054 19.5384 -6.04738 19.9289 -5.65685L 25.5858 0L 19.9289 5.65685C 19.5384 6.04738 19.5384 6.68054 19.9289 7.07107C 20.3195 7.46159 20.9526 7.46159 21.3431 7.07107L 27.7071 0.707107ZM 0 1L 27 1L 27 -1L 0 -1L 0 1Z"/>
</defs>
</svg>
